STARTFONT 2.1
COMMENT This font was automatically resized by bdfresize-1.4
COMMENT   mag_x = 3/5, mag_y = 3/5, blackness = 3
COMMENT HBF_START_FONT 1.0
COMMENT HBF_CODE_SCHEME CNS11643-1992-3
COMMENT
COMMENT   Plane 3 of CNS11643-1992
COMMENT
COMMENT	  Bitmaps provided by Central Bureau of Standards
COMMENT	  Ministry of Economy, Taiwan, ROC, March 9, 1994
COMMENT
FONT -CBS-Song-medium-r-normal-fantizi-24-240-75-75-c-240-CNS11643.1992-3
COMMENT
COMMENT An equivalent full X11R6 XLFD conforming font name is
COMMENT -CBS-Song-medium-r-normal-fantizi-40-400-75-75-c-400-CNS11643.1992.3-0
COMMENT which is formed from the first 15 properties listed in
COMMENT the STARTPROPERTIES section below.
COMMENT Any of these properties is optional, as in the simple HBF file.
COMMENT
SIZE 24 150 150
COMMENT HBF_BITMAP_BOUNDING_BOX 40 40 0 -6
FONTBOUNDINGBOX 24 24 0 -2
STARTPROPERTIES 23
FONTNAME_REGISTRY ""
FOUNDRY "CBS"
FAMILY_NAME "Song"
WEIGHT_NAME "medium"
SLANT "r"
SETWIDTH_NAME "normal"
ADD_STYLE_NAME "fantizi"
PIXEL_SIZE 24
POINT_SIZE 240
RESOLUTION_X 75
RESOLUTION_Y 75
SPACING "c"
AVERAGE_WIDTH 240
CHARS 1
CHARS 1
COPYRIGHT "1994, Central Bureau of Standards, Ministry of Economy, ROC"
WEIGHT 19329
RESOLUTION 110
X_HEIGHT 34
QUAD_WIDTH 40
FONT_ASCENT 22
FONT_DESCENT 2
DEFAULT_CHAR 32382
ENDPROPERTIES
CHARS 6149
COMMENT HBF_START_BYTE_2_RANGES 1
COMMENT HBF_BYTE_2_RANGE 0x21-0x7E
COMMENT HBF_END_BYTE_2_RANGES
COMMENT HBF_START_CODE_RANGES 1
COMMENT HBF_CODE_RANGE 0x2121-0x6246 cns4040.w3.bin 0
COMMENT HBF_END_CODE_RANGES
COMMENT
COMMENT The first part of 6148 characters which was on Plane 14 of
COMMENT CNS 11643-1988. In the range of 2121--6246.  At least one character
COMMENT is repeated in previous Planes.  But this particular one is
COMMENT assigned in different BuShou than the previous one. -Shann
COMMENT
COMMENT HBF_END_FONT
STARTCHAR C2121
ENCODING 8481
SWIDTH 400 0
DWIDTH 24 0
BBX 24 24 0 -2
BITMAP
001800
001800
001800
001800
001800
001800
001800
001800
001800
001800
001800
001800
001800
001800
001800
001800
001800
001800
001800
001800
001800
001800
001800
001000
ENDCHAR
STARTCHAR C2122
ENCODING 8482
SWIDTH 400 0
DWIDTH 24 0
BBX 24 24 0 -2
BITMAP
000000
000000
000000
000000
000000
000000
000000
000000
018000
00E000
007000
003C00
001E00
000F00
000F00
000700
000300
000000
000000
000000
000000
000000
000000
000000
ENDCHAR
STARTCHAR C2123
ENCODING 8483
SWIDTH 400 0
DWIDTH 24 0
BBX 24 24 0 -2
BITMAP
000E00
000E00
000C00
000C00
000C00
000C00
000C00
000C00
000C00
000C00
000C00
001C00
001800
001800
001800
001800
003800
003000
007000
00E000
01C000
038000
070000
0C0000
ENDCHAR
STARTCHAR C2124
ENCODING 8484
SWIDTH 400 0
DWIDTH 24 0
BBX 24 24 0 -2
BITMAP
001C00
001C00
001800
001800
001800
001800
001800
001800
001800
001800
001800
001800
001800
001800
001800
001800
001800
001800
001800
001800
001800
03F800
00F800
007000
ENDCHAR
STARTCHAR C2125
ENCODING 8485
SWIDTH 400 0
DWIDTH 24 0
BBX 24 24 0 -2
BITMAP
000004
00000E
7FFFFE
001800
001800
001800
001800
001800
001800
001800
001800
001800
001800
001800
001800
001800
001800
001800
001800
001800
001800
001800
001800
001000
ENDCHAR
STARTCHAR C2126
ENCODING 8486
SWIDTH 400 0
DWIDTH 24 0
BBX 24 24 0 -2
BITMAP
001000
001C00
001800
001800
001800
001800
001800
001800
001800
001800
001800
001800
001800
001800
001800
001800
001800
001800
001800
001800
001800
001800
003807
FFFFFF
ENDCHAR
STARTCHAR C2127
ENCODING 8487
SWIDTH 400 0
DWIDTH 24 0
BBX 24 24 0 -2
BITMAP
000000
60000C
7FFFFE
60000C
60000C
60000C
60000C
60000C
60000C
60000C
60000C
60000C
60000C
60000C
60000C
60000C
60000C
60000C
60000C
60000C
60000C
60007C
60003C
600008
ENDCHAR
STARTCHAR C2128
ENCODING 8488
SWIDTH 400 0
DWIDTH 24 0
BBX 24 24 0 -2
BITMAP
000000
000000
000000
000000
000000
000000
000000
000000
600006
7FFFFF
600006
C0000C
C00008
000000
000000
000000
000000
000000
000000
000000
000000
000000
000000
000000
ENDCHAR
STARTCHAR C2129
ENCODING 8489
SWIDTH 400 0
DWIDTH 24 0
BBX 24 24 0 -2
BITMAP
000000
000006
FFFFFF
300000
300000
300000
300000
300000
300000
300000
300000
300000
300000
300000
300000
300000
300000
300000
300000
300000
3FFFFE
3FFFFF
000000
000000
ENDCHAR
STARTCHAR C212a
ENCODING 8490
SWIDTH 400 0
DWIDTH 24 0
BBX 24 24 0 -2
BITMAP
0300C0
03FFE0
030060
030060
030060
030060
030060
030060
030060
030060
030060
030060
030060
030060
030060
030FE0
0303C0
030180
030000
030000
030000
030000
030000
030000
ENDCHAR
STARTCHAR C212b
ENCODING 8491
SWIDTH 400 0
DWIDTH 24 0
BBX 24 24 0 -2
BITMAP
000000
000000
000000
000000
001E00
001C00
001800
003800
003000
007000
006000
00E000
01C0C0
018060
030070
060030
0C0038
187FFC
3FF81C
1E000C
0C0000
000000
000000
000000
ENDCHAR
STARTCHAR C212c
ENCODING 8492
SWIDTH 400 0
DWIDTH 24 0
BBX 24 24 0 -2
BITMAP
001800
001800
003800
007C00
006600
00E700
01C380
0391C0
071CF0
0E187F
18181E
701804
C01800
001800
001800
001800
001800
001800
001800
001800
001800
001800
001800
001000
ENDCHAR
STARTCHAR C212d
ENCODING 8493
SWIDTH 400 0
DWIDTH 24 0
BBX 24 24 0 -2
BITMAP
0E0000
0E0000
0C0000
1C0000
1C000C
1FFFFC
100C00
300C00
200C00
400C00
000C00
000C00
000C00
000C00
000C00
000C00
000C00
000C00
000C00
000C00
000C00
00FC00
007800
001000
ENDCHAR
STARTCHAR C212e
ENCODING 8494
SWIDTH 400 0
DWIDTH 24 0
BBX 24 24 0 -2
BITMAP
004040
007070
003860
021860
0218E0
0308C0
0301C0
0101C0
018180
008180
00C300
004300
006700
003E00
003C00
003C00
007E00
00E700
01C380
0381E0
0700FC
0E007F
1C000E
700004
ENDCHAR
STARTCHAR C212f
ENCODING 8495
SWIDTH 400 0
DWIDTH 24 0
BBX 24 24 0 -2
BITMAP
003800
003800
003000
006000
00C000
068180
07FFC0
0601C0
0601C0
0601C0
0601C0
0601C0
0601C0
0601C0
0601C0
0601C0
0601C0
0C01C1
0C01C1
0C01C1
1801C3
1001FF
2000FF
40003E
ENDCHAR
STARTCHAR C2130
ENCODING 8496
SWIDTH 400 0
DWIDTH 24 0
BBX 24 24 0 -2
BITMAP
000E00
000E00
040E00
070E00
060E00
060E00
0C0E00
0C0C00
1C0C00
181C00
181C00
1FFA00
003A00
003300
007100
006180
00C0C0
00C0E0
01C060
038070
07003C
0E001F
1C000E
700000
ENDCHAR
STARTCHAR C2131
ENCODING 8497
SWIDTH 400 0
DWIDTH 24 0
BBX 24 24 0 -2
BITMAP
000000
000030
3FFFF8
000000
000000
000000
000004
00000E
3FFFFE
038000
030000
030000
060030
07FFF0
000030
000030
000030
000030
000070
000060
000060
001FE0
000FC0
000380
ENDCHAR
STARTCHAR C2132
ENCODING 8498
SWIDTH 400 0
DWIDTH 24 0
BBX 24 24 0 -2
BITMAP
001000
001C00
001800
003800
003800
007C00
006600
00E200
00C300
01C300
018180
0381C0
0300E0
060070
0C003F
18001F
30000C
600000
800000
000000
00000E
7FFFFE
000000
000000
ENDCHAR
STARTCHAR C2133
ENCODING 8499
SWIDTH 400 0
DWIDTH 24 0
BBX 24 24 0 -2
BITMAP
000E00
000E00
400C00
700C00
600C00
600C00
600C00
600C00
601E00
601E00
601B00
601B00
603B80
603180
6071C0
6060E0
60C070
61803E
63001E
66000C
640000
7FFFFE
3FFFFF
1FFFFF
ENDCHAR
STARTCHAR C2134
ENCODING 8500
SWIDTH 400 0
DWIDTH 24 0
BBX 24 24 0 -2
BITMAP
002000
003800
401800
701800
601800
600C00
601C00
601C00
601C00
601E00
603E00
603300
607300
606180
60E180
60C0C0
618060
61803E
63001E
66000C
600000
7FFFFE
3FFFFF
1FFFFF
ENDCHAR
STARTCHAR C2135
ENCODING 8501
SWIDTH 400 0
DWIDTH 24 0
BBX 24 24 0 -2
BITMAP
003800
003800
003000
003000
003000
063080
07FFC0
0701C0
0601C0
0601C0
0601C0
0601C0
0601C0
0601C0
0601C0
0601C0
0601C0
0C01C1
0C01C1
0C01C1
1801C3
1001FF
2000FF
40003E
ENDCHAR
STARTCHAR C2136
ENCODING 8502
SWIDTH 400 0
DWIDTH 24 0
BBX 24 24 0 -2
BITMAP
000000
000060
1FFFF0
007060
007060
007060
007060
107060
0C7060
066060
036060
01E060
00E060
00E060
00F060
00DC60
018E60
0187E0
0301E0
0600F8
0C00FF
181FCC
300780
600300
ENDCHAR
STARTCHAR C2137
ENCODING 8503
SWIDTH 400 0
DWIDTH 24 0
BBX 24 24 0 -2
BITMAP
060380
060380
060300
060300
060300
060300
063300
7FFB00
063300
063300
063300
063300
063300
0C3300
0C3300
0C3300
1C3300
183301
183301
307303
20E303
4FC3FF
8181FF
0000FC
ENDCHAR
STARTCHAR C2138
ENCODING 8504
SWIDTH 400 0
DWIDTH 24 0
BBX 24 24 0 -2
BITMAP
0381C0
0381C0
038180
038180
038180
038180
038180
038180
038180
038186
FFFFFF
038180
038180
038180
038180
038180
038180
038180
038180
038180
038180
038180
038180
030180
ENDCHAR
STARTCHAR C2139
ENCODING 8505
SWIDTH 400 0
DWIDTH 24 0
BBX 24 24 0 -2
BITMAP
00E000
00E000
00C000
00C000
01C000
018080
03FFC0
0301E0
0701C0
078180
048180
0CC300
186300
302600
003600
001C00
001C00
003E00
007700
00C3C0
0181F8
07007F
1C001E
700004
ENDCHAR
STARTCHAR C213a
ENCODING 8506
SWIDTH 400 0
DWIDTH 24 0
BBX 24 24 0 -2
BITMAP
00E000
00E000
00C000
00C000
01C000
018080
33FFC0
1B81E0
0F01C0
060180
060180
0F0300
198300
10C600
206600
003C00
001C00
003E00
007700
00C3C0
0181F8
07007F
1C001E
700004
ENDCHAR
STARTCHAR C213b
ENCODING 8507
SWIDTH 400 0
DWIDTH 24 0
BBX 24 24 0 -2
BITMAP
000000
000000
000000
000000
000000
000000
003000
001800
201802
3FFFFF
600007
E00006
C0000C
000000
000000
000000
000000
000000
000000
000000
000000
000000
000000
000000
ENDCHAR
STARTCHAR C213c
ENCODING 8508
SWIDTH 400 0
DWIDTH 24 0
BBX 24 24 0 -2
BITMAP
000000
000000
000000
000000
060408
070E0E
060C1C
060C18
0C1838
1C1830
183060
3060C0
60E0C0
387060
1C3830
0E1C18
060E1C
070E0C
03060C
000000
000000
000000
000000
000000
ENDCHAR
STARTCHAR C213d
ENCODING 8509
SWIDTH 400 0
DWIDTH 24 0
BBX 24 24 0 -2
BITMAP
000000
007800
007000
006000
00C000
00C000
01C000
018200
030380
060700
060600
038E00
00EC00
007800
003000
006000
00C100
0180C0
070060
0C0FF0
1FFE38
0FC038
040010
000000
ENDCHAR
STARTCHAR C213e
ENCODING 8510
SWIDTH 400 0
DWIDTH 24 0
BBX 24 24 0 -2
BITMAP
001800
000C00
300C06
3FFFFF
300000
300000
300000
300000
300000
300000
300000
300000
300000
300000
300000
300000
300000
300000
300000
600000
600000
C00000
800000
000000
ENDCHAR
STARTCHAR C213f
ENCODING 8511
SWIDTH 400 0
DWIDTH 24 0
BBX 24 24 0 -2
BITMAP
000000
060000
7F0000
070000
060000
060000
0C0000
0C0000
190000
1F8000
138000
038000
238000
230000
330000
360000
1E0000
1E0000
0C0000
0E0000
1BC003
31FFFE
607FF8
000000
ENDCHAR
STARTCHAR C2140
ENCODING 8512
SWIDTH 400 0
DWIDTH 24 0
BBX 24 24 0 -2
BITMAP
000000
000060
7FFFF0
000070
000060
000060
000060
000060
000060
000060
000060
0FFFE0
000060
000060
000060
000060
000060
000060
000060
000060
000062
FFFFFF
000000
000000
ENDCHAR
STARTCHAR C2141
ENCODING 8513
SWIDTH 400 0
DWIDTH 24 0
BBX 24 24 0 -2
BITMAP
008000
00E000
00C000
00C000
00C000
018000
0180C0
01FFE0
018060
038060
038060
038060
0300C0
0300C0
0700C0
07FFC0
0601C0
0001C0
0001C0
000180
000180
000180
000387
FFFFFF
ENDCHAR
STARTCHAR C2142
ENCODING 8514
SWIDTH 400 0
DWIDTH 24 0
BBX 24 24 0 -2
BITMAP
000100
0001C0
000380
000F00
001800
00F000
03C000
060000
0001E0
0001C0
000300
000E00
001800
007000
01C000
060060
0000E0
0001C0
000380
000E00
001C00
007000
01C000
0F0000
ENDCHAR
STARTCHAR C2143
ENCODING 8515
SWIDTH 400 0
DWIDTH 24 0
BBX 24 24 0 -2
BITMAP
000100
00C380
00FFC0
00C300
00C300
00C200
00C600
00C400
00C400
00C200
00C100
00C180
00C1C0
00C0C0
00C0C0
00C0C0
00C0C0
00C1C0
00FF80
00C700
00C200
00C000
00C000
00C000
ENDCHAR
STARTCHAR C2144
ENCODING 8516
SWIDTH 400 0
DWIDTH 24 0
BBX 24 24 0 -2
BITMAP
000700
000740
000630
000630
000604
7FFFFE
000600
000600
040600
040600
060E00
020E00
030C00
018C00
01D800
00F800
007000
007800
007C00
00CF00
0183E0
0701FF
1C007F
70001C
ENDCHAR
STARTCHAR C2145
ENCODING 8517
SWIDTH 400 0
DWIDTH 24 0
BBX 24 24 0 -2
BITMAP
040E00
070E00
0E0E00
0C0E00
0C0E00
180E00
100E00
308E00
61EE00
71CE00
1B8E00
0F0E00
070E00
060E00
060E00
0C0E00
198E00
38CE01
31EE03
676E02
FC7E06
703FFF
0007FE
0003F8
ENDCHAR
STARTCHAR C2146
ENCODING 8518
SWIDTH 400 0
DWIDTH 24 0
BBX 24 24 0 -2
BITMAP
040E00
070E00
060E00
060E00
060E00
46CE00
76EE00
66CE00
66CE00
66CE00
66CE00
66CE00
66CE00
66CE00
66CE00
66CE00
66CE00
66CE01
7FCE03
60CE02
000E06
000FFF
0007FE
0003F8
ENDCHAR
STARTCHAR C2147
ENCODING 8519
SWIDTH 400 0
DWIDTH 24 0
BBX 24 24 0 -2
BITMAP
00C000
007000
003800
001800
001806
FFFFFF
0301C0
0301C0
0301C0
0301C0
0301C0
0301C0
0301C0
0301C0
0301C0
0301C0
0601C0
0601C0
0601C0
0C01C0
0C01C0
1801C0
3001C0
400180
ENDCHAR
STARTCHAR C2148
ENCODING 8520
SWIDTH 400 0
DWIDTH 24 0
BBX 24 24 0 -2
BITMAP
001800
001800
001800
001800
001800
60180C
7FFFFE
60180C
60180C
60380C
60380C
603C0C
60660C
60630C
60C18C
61C0CC
6380EC
67006C
6C002C
60000C
60000C
6000FC
60007C
600018
ENDCHAR
STARTCHAR C2149
ENCODING 8521
SWIDTH 400 0
DWIDTH 24 0
BBX 24 24 0 -2
BITMAP
038000
038000
070018
067FFC
061018
0C1018
1C1038
1C1038
3C1830
3C1830
6C0860
4C0C60
8C04E0
0C06C0
0C07C0
0C0380
0C0380
0C0780
0C0EC0
0C1C60
0C383C
0C701F
0CC00E
0F8004
ENDCHAR
STARTCHAR C214a
ENCODING 8522
SWIDTH 400 0
DWIDTH 24 0
BBX 24 24 0 -2
BITMAP
030000
030000
070380
060380
060300
0C0300
1C0300
1C0300
3C0700
3C0600
7C0600
5C0E00
9C0E00
1C0C40
1C0C20
1C0C30
1C1818
1C181C
1C380C
1C71FE
1CFFC7
1C7807
1C2002
180000
ENDCHAR
STARTCHAR C214b
ENCODING 8523
SWIDTH 400 0
DWIDTH 24 0
BBX 24 24 0 -2
BITMAP
0381C0
0381C0
030180
030180
030180
030180
030180
030180
0301C0
0301C0
0703C0
0783C0
078360
06C360
06C320
0C6730
0C6630
1C7638
183C18
102C0C
30180E
60180F
C03006
806000
ENDCHAR
STARTCHAR C214c
ENCODING 8524
SWIDTH 400 0
DWIDTH 24 0
BBX 24 24 0 -2
BITMAP
003800
003800
003000
003800
007800
006C00
006600
00C300
018180
0300E0
063078
0C383F
38301C
E03800
007800
006C00
006600
00C700
01C380
0381C0
0700F8
0E007F
18001C
700000
ENDCHAR
STARTCHAR C214d
ENCODING 8525
SWIDTH 400 0
DWIDTH 24 0
BBX 24 24 0 -2
BITMAP
000000
0C0060
0FFFF0
0C0060
0C0060
0C0060
0C0060
0C0077
FFFFFF
0C0060
0C0060
0C0060
0C0060
0C0066
FFFFFF
0C0060
0C0060
0C0060
0C0060
0C0060
0C0060
0C03E0
0C01E0
0C00C0
ENDCHAR
STARTCHAR C214e
ENCODING 8526
SWIDTH 400 0
DWIDTH 24 0
BBX 24 24 0 -2
BITMAP
000000
080038
1FFFFC
1C1818
1C1818
1C1818
1C1818
1C1818
1C1818
1C1818
1C1818
1FFFF8
1C0018
1C0018
1C0018
1C0018
1C0018
1C0018
1C0018
1C0018
1C0018
1C01F8
1C00F8
180070
ENDCHAR
STARTCHAR C214f
ENCODING 8527
SWIDTH 400 0
DWIDTH 24 0
BBX 24 24 0 -2
BITMAP
000000
200006
3FFFFF
600007
C00004
C10108
03C1C0
038180
038180
038180
038180
038180
038180
038180
038180
030180
030180
070180
060181
060181
0C0183
1801FF
3001FF
60007E
ENDCHAR
STARTCHAR C2150
ENCODING 8528
SWIDTH 400 0
DWIDTH 24 0
BBX 24 24 0 -2
BITMAP
000000
000000
700006
38FFFF
1801C0
0C01C0
0201C0
0201C0
0601C0
0601C0
0401C0
0C01C0
0C01C0
1801C0
1801C0
7001C0
7001C0
3001C0
3001C0
3001C0
3801C0
380FC0
100780
000300
ENDCHAR
STARTCHAR C2151
ENCODING 8529
SWIDTH 400 0
DWIDTH 24 0
BBX 24 24 0 -2
BITMAP
000000
300060
3FFFF0
300060
300660
33FF60
310760
310660
318E60
308C60
308C60
30D860
30F860
307060
307060
307070
30F831
31CC31
3387B9
260399
6C011F
C8000F
800007
000000
ENDCHAR
STARTCHAR C2152
ENCODING 8530
SWIDTH 400 0
DWIDTH 24 0
BBX 24 24 0 -2
BITMAP
000040
0000E0
7FFFE0
006060
006060
006060
006060
006060
006060
186060
0E6070
07C07C
03C06E
01C066
00C067
01C062
018060
038060
0300E0
0600C0
0C01C0
181F80
300700
600200
ENDCHAR
STARTCHAR C2153
ENCODING 8531
SWIDTH 400 0
DWIDTH 24 0
BBX 24 24 0 -2
BITMAP
007000
007000
006000
006000
006040
3FFFE0
006060
006060
006060
006060
006060
046060
04C078
0CC06C
0CC06E
18C067
10C062
018060
0380E0
0300C0
0601C0
0C1FC0
180F80
600300
ENDCHAR
STARTCHAR C2154
ENCODING 8532
SWIDTH 400 0
DWIDTH 24 0
BBX 24 24 0 -2
BITMAP
000380
000380
000300
018300
7FC300
00C300
01C306
219FFE
138306
1B0306
0E0306
0E0306
0E0306
0F0306
1D8306
198706
30C606
30C60E
704C0C
600C0C
C0181C
8031FC
006078
018030
ENDCHAR
STARTCHAR C2155
ENCODING 8533
SWIDTH 400 0
DWIDTH 24 0
BBX 24 24 0 -2
BITMAP
060000
060000
0E0000
0C000C
0FFFFE
1C000E
18000C
30780C
20700C
40700C
00600C
00E00C
00F00C
00D80C
018C0C
030E0C
06070C
0C03CC
18018C
60000C
00000C
0001FC
000078
000030
ENDCHAR
STARTCHAR C2156
ENCODING 8534
SWIDTH 400 0
DWIDTH 24 0
BBX 24 24 0 -2
BITMAP
060000
060000
0E0000
0C000C
0FFFFE
1C000E
18000C
31800C
30F80C
603E0C
400E0C
00020C
00000C
00000C
0003CC
001F0C
00F80C
1FC00C
1F000C
0C000C
000018
0007F8
0001F0
000060
ENDCHAR
STARTCHAR C2157
ENCODING 8535
SWIDTH 400 0
DWIDTH 24 0
BBX 24 24 0 -2
BITMAP
000000
00000C
7FFFFC
300000
3000E0
3000C0
3301C0
3181C0
30C180
306380
303300
301E00
300E00
301E00
301F00
303B80
3071C0
30C0E0
318070
330030
300000
3FFFFC
3FFFFE
0FFFFE
ENDCHAR
STARTCHAR C2158
ENCODING 8536
SWIDTH 400 0
DWIDTH 24 0
BBX 24 24 0 -2
BITMAP
1C0380
1C0380
1C0300
1C0300
1C0300
1C0304
1D3FFE
FF8386
1C0306
1C0306
1C0306
1C0306
1C0306
1C0306
1C0606
1C0606
1C0606
1C0C0E
1C0C0C
1C180C
1C301C
1C61F8
1CC0F0
198060
ENDCHAR
STARTCHAR C2159
ENCODING 8537
SWIDTH 400 0
DWIDTH 24 0
BBX 24 24 0 -2
BITMAP
01C000
01C000
018100
1FFF80
018180
018180
038181
030183
030182
0601FE
0C01FE
18387C
703800
003000
003004
FFFFFE
003000
003000
003000
003000
003000
003000
003000
003000
ENDCHAR
STARTCHAR C215a
ENCODING 8538
SWIDTH 400 0
DWIDTH 24 0
BBX 24 24 0 -2
BITMAP
0381C0
0381C0
038180
038180
038180
038180
038180
038180
038186
FF81FF
038180
038180
038180
038180
038180
038180
038180
038180
038180
038180
038180
038180
038180
030180
ENDCHAR
STARTCHAR C215b
ENCODING 8539
SWIDTH 400 0
DWIDTH 24 0
BBX 24 24 0 -2
BITMAP
000000
300007
3FFFFF
300800
300E00
300C00
300C00
300C00
300C08
33FFFC
300C1C
300C0C
300C0C
30180C
30180C
30180C
20300C
603018
606018
606018
C0C038
C183F0
8301E0
0C00C0
ENDCHAR
STARTCHAR C215c
ENCODING 8540
SWIDTH 400 0
DWIDTH 24 0
BBX 24 24 0 -2
BITMAP
000000
007800
007000
007000
006000
006002
FFFFFF
00E000
00C000
00C000
00C600
018700
038E00
030C00
071C00
061840
061860
0C3030
186018
30C01C
219FFC
43FC0C
81C004
008000
ENDCHAR
STARTCHAR C215d
ENCODING 8541
SWIDTH 400 0
DWIDTH 24 0
BBX 24 24 0 -2
BITMAP
000000
003800
003000
007000
00E080
00C0E0
018070
030038
0E0FF8
1FFF1C
1F800C
040000
000000
003800
003000
007000
00E080
00C0E0
018070
030038
060FF8
1FFF1C
1FC00C
040000
ENDCHAR
STARTCHAR C215e
ENCODING 8542
SWIDTH 400 0
DWIDTH 24 0
BBX 24 24 0 -2
BITMAP
000000
000008
00DFFC
7FE80C
00E80C
00CC18
00CC18
20C418
30C638
198238
198230
0D8330
0F0370
0701E0
0701E0
0781C0
0F81E0
0DC3E0
18C3B0
18C738
304E1E
301C0F
603807
006000
ENDCHAR
STARTCHAR C215f
ENCODING 8543
SWIDTH 400 0
DWIDTH 24 0
BBX 24 24 0 -2
BITMAP
000030
0FFFF0
020070
0100E0
00C1C0
006380
003E00
003F00
00F7F0
03C0FF
0F003E
7C0004
000030
0FFFF0
020070
0100E0
00C1C0
006380
003E00
003F00
00F7F0
03C0FF
0F003E
7C0004
ENDCHAR
STARTCHAR C2160
ENCODING 8544
SWIDTH 400 0
DWIDTH 24 0
BBX 24 24 0 -2
BITMAP
038000
03800C
03BFFE
E3880E
E3880C
E3880C
E3880C
E3880C
E38C18
E38C18
E38418
E38638
E38230
E38330
E38370
FF83E0
E381E0
0381C0
0381E0
038370
03863C
038C1F
03980E
03F004
ENDCHAR
STARTCHAR C2161
ENCODING 8545
SWIDTH 400 0
DWIDTH 24 0
BBX 24 24 0 -2
BITMAP
001C00
001C00
001800
001800
001800
001800
001800
001800
001810
1FFFF8
001C00
001800
001800
0018C0
001860
001870
001830
001838
001810
001800
001802
FFFFFF
000000
000000
ENDCHAR
STARTCHAR C2162
ENCODING 8546
SWIDTH 400 0
DWIDTH 24 0
BBX 24 24 0 -2
BITMAP
001800
001800
001800
201808
38180E
30180C
30180C
30180C
30180C
30180C
30180C
30180C
30180C
7FFFFC
201808
001800
001800
001800
001800
001800
001800
001800
003807
FFFFFF
ENDCHAR
STARTCHAR C2163
ENCODING 8547
SWIDTH 400 0
DWIDTH 24 0
BBX 24 24 0 -2
BITMAP
000000
000007
FFFFFF
001800
001800
001800
001818
3FFFFC
301818
301818
301818
301818
301818
301818
301818
301818
3019F8
301878
301810
001800
001800
001800
001800
001000
ENDCHAR
STARTCHAR C2164
ENCODING 8548
SWIDTH 400 0
DWIDTH 24 0
BBX 24 24 0 -2
BITMAP
000380
0003A0
000330
000318
000308
000306
FFFFFF
000300
000300
000300
000180
000180
000180
000180
0019C0
7FFCC0
0000C0
0000E1
000061
000061
000033
00001F
00000F
000007
ENDCHAR
STARTCHAR C2165
ENCODING 8549
SWIDTH 400 0
DWIDTH 24 0
BBX 24 24 0 -2
BITMAP
000000
001800
000C00
000E00
000600
060008
07FFFC
07001C
06000C
06000C
06000C
06000C
06000C
07FFFC
060008
060000
060000
060000
0E0000
0C0000
1C0000
180000
300000
600000
ENDCHAR
STARTCHAR C2166
ENCODING 8550
SWIDTH 400 0
DWIDTH 24 0
BBX 24 24 0 -2
BITMAP
000000
00000C
0FFFFE
000000
000000
060008
07FFFC
07001C
06000C
06000C
06000C
06000C
06000C
07FFFC
060008
060000
060000
060000
0E0000
0C0000
1C0000
180000
300000
600000
ENDCHAR
STARTCHAR C2167
ENCODING 8551
SWIDTH 400 0
DWIDTH 24 0
BBX 24 24 0 -2
BITMAP
003800
003800
003000
003004
00300E
003FFE
003000
003000
003000
003060
0FFFF0
020070
0300E0
0181C0
01C180
00E380
007700
003E00
003C00
007F00
00E3E0
03C1FF
0E007F
7C001C
ENDCHAR
STARTCHAR C2168
ENCODING 8552
SWIDTH 400 0
DWIDTH 24 0
BBX 24 24 0 -2
BITMAP
00E000
00E000
00C000
00C000
01C000
018008
03FFFC
0300C0
0700C0
0781C0
048180
0CC380
186300
302300
003600
001C00
001C00
003E00
007700
00C3C0
0181F8
07007F
1C001E
700004
ENDCHAR
STARTCHAR C2169
ENCODING 8553
SWIDTH 400 0
DWIDTH 24 0
BBX 24 24 0 -2
BITMAP
000000
000038
1FFFF8
001800
001800
001800
001800
001800
00180C
3FFFFE
003700
003700
003600
007600
006600
006600
00C600
00C600
018601
038601
070603
0E07FF
1C03FF
7001FE
ENDCHAR
STARTCHAR C216a
ENCODING 8554
SWIDTH 400 0
DWIDTH 24 0
BBX 24 24 0 -2
BITMAP
000000
0C0038
0FFFF8
0C0E00
0C0E00
0C0E00
0C0E00
1C0E00
1C0E04
1FFFFE
180E00
000E00
0E0E00
038E00
00EE00
003E00
000F00
000FE0
000EFF
000E3F
000E0C
00FE00
007C00
001800
ENDCHAR
STARTCHAR C216b
ENCODING 8555
SWIDTH 400 0
DWIDTH 24 0
BBX 24 24 0 -2
BITMAP
000000
070000
070000
060000
060008
0FFFFC
1C1800
181800
381800
301800
601800
001800
001800
001C38
1FFFF8
001800
001800
001800
001800
001800
001800
001806
FFFFFF
000000
ENDCHAR
STARTCHAR C216c
ENCODING 8556
SWIDTH 400 0
DWIDTH 24 0
BBX 24 24 0 -2
BITMAP
001000
001C00
001800
001800
201808
38180E
30180C
30180C
30180C
30180C
30381C
7FFFF8
000000
000000
000000
000000
000038
1FFFF8
000000
000000
000000
000006
7FFFFF
000000
ENDCHAR
STARTCHAR C216d
ENCODING 8557
SWIDTH 400 0
DWIDTH 24 0
BBX 24 24 0 -2
BITMAP
038000
03800C
033FFC
030180
060180
060180
0C0180
0C0180
1C0180
1C0180
3C0187
6C7FFF
4C0180
0C0180
0C0180
0C0180
0C0180
0C0180
0C0180
0C0180
0C0180
0C0180
0C0180
0C0180
ENDCHAR
STARTCHAR C216e
ENCODING 8558
SWIDTH 400 0
DWIDTH 24 0
BBX 24 24 0 -2
BITMAP
0381C0
0381C0
070180
060180
060180
0C0180
1C0186
1C7FFE
3C0180
3C0180
6C0180
4C03C0
8C03C0
0C0340
0C0340
0C0660
0C0660
0C0E30
0C0C38
0C181C
0C181E
0C300F
0C6007
0DC000
ENDCHAR
STARTCHAR C216f
ENCODING 8559
SWIDTH 400 0
DWIDTH 24 0
BBX 24 24 0 -2
BITMAP
070000
073020
063FF0
063030
0C3030
0C3030
183030
183030
383430
783230
783330
D831B0
1831B0
183030
183030
187030
187030
187030
186030
186031
18C031
18C03F
19803F
1B000E
ENDCHAR
STARTCHAR C2170
ENCODING 8560
SWIDTH 400 0
DWIDTH 24 0
BBX 24 24 0 -2
BITMAP
003800
003800
003000
003010
003FF8
003000
003000
003000
003006
FFFFFF
001000
001C00
001800
001800
003800
007C00
006600
00E300
01C380
0381C0
0700F8
0E007F
1C001E
700004
ENDCHAR
STARTCHAR C2171
ENCODING 8561
SWIDTH 400 0
DWIDTH 24 0
BBX 24 24 0 -2
BITMAP
070000
070000
060002
06FFFF
0C0CE0
0C0C60
180C60
180C60
380C60
780C60
780C60
D80C60
180C60
180C60
181C60
181860
181860
181860
183860
183061
187061
18607F
18C07F
1B801E
ENDCHAR
STARTCHAR C2172
ENCODING 8562
SWIDTH 400 0
DWIDTH 24 0
BBX 24 24 0 -2
BITMAP
038100
0381C0
070180
060180
060180
0C0180
1C0180
1C0180
3C1DA0
3C19B0
6C1998
4C319C
8C318C
0C618E
0C6186
0C4187
0CC183
0C8180
0D0180
0C0180
0C0180
0C1F80
0C0F00
0C0200
ENDCHAR
STARTCHAR C2173
ENCODING 8563
SWIDTH 400 0
DWIDTH 24 0
BBX 24 24 0 -2
BITMAP
038300
038300
070300
060700
060604
0C07FE
1C0E06
1C0C06
3C0C06
3C180C
6C180C
4C370C
8C238C
0C41D8
0C00D8
0C0030
0C0030
0C0060
0C00C0
0C0180
0C0300
0C0600
0C1800
0C7000
ENDCHAR
STARTCHAR C2174
ENCODING 8564
SWIDTH 400 0
DWIDTH 24 0
BBX 24 24 0 -2
BITMAP
038700
038700
070600
060600
060600
0C0E00
1C0E30
1C0E37
3CFFFF
3C0C30
6C1830
4C1870
8C1860
0C1860
0C3060
0C70E0
0C3EC0
0C07C0
0C01E0
0C0378
0C061C
0C1C0E
0C780E
0DE006
ENDCHAR
STARTCHAR C2175
ENCODING 8565
SWIDTH 400 0
DWIDTH 24 0
BBX 24 24 0 -2
BITMAP
001000
001C00
003C00
007600
00E300
01C180
0380E0
060078
0C07BF
300F0C
E01C00
80F000
03C000
0E01E0
0007C0
001F00
007800
07C078
0E01F0
0007C0
003E00
07F000
3F0000
000000
ENDCHAR
STARTCHAR C2176
ENCODING 8566
SWIDTH 400 0
DWIDTH 24 0
BBX 24 24 0 -2
BITMAP
003000
001800
003C00
007600
00E300
01C180
0380C0
070070
0C003F
18001F
60000C
800070
1FFFF0
001800
001800
001800
001800
001800
001800
001800
001800
001806
7FFFFE
000000
ENDCHAR
STARTCHAR C2177
ENCODING 8567
SWIDTH 400 0
DWIDTH 24 0
BBX 24 24 0 -2
BITMAP
000004
60000E
7FFFFF
600006
600106
63FF86
638186
638186
638186
638186
638186
63FF86
638186
638006
638026
638026
638066
63FFE6
61FFE6
600006
600006
60007E
60000E
60000C
ENDCHAR
STARTCHAR C2178
ENCODING 8568
SWIDTH 400 0
DWIDTH 24 0
BBX 24 24 0 -2
BITMAP
000004
60000E
7FFFFF
600006
600006
600006
600006
600106
61FF86
618186
618186
618186
618186
618186
618186
618186
61FF86
618186
600006
600006
600006
60003E
60001E
60000C
ENDCHAR
STARTCHAR C2179
ENCODING 8569
SWIDTH 400 0
DWIDTH 24 0
BBX 24 24 0 -2
BITMAP
000020
08C670
1FE7F8
1CC630
1CC630
1CC630
1CC630
1CC630
1CC630
1CC630
1CC636
FFFFFF
1CC630
1CC630
1CC630
1CC630
1CC630
1CC630
1CC630
1CC630
1CC630
1FC6F0
1DC670
188660
ENDCHAR
STARTCHAR C217a
ENCODING 8570
SWIDTH 400 0
DWIDTH 24 0
BBX 24 24 0 -2
BITMAP
000000
200007
7FFFFF
600006
C7000C
C70000
060030
07FFF0
060000
0E0000
0C0060
0FFFF0
080070
000060
000062
FFFFFF
000070
000060
000060
0000E0
0000C0
001F80
000F00
000200
ENDCHAR
STARTCHAR C217b
ENCODING 8571
SWIDTH 400 0
DWIDTH 24 0
BBX 24 24 0 -2
BITMAP
00000C
3FFFFE
30000E
30000C
30000C
30000C
3FFFFC
30000C
300080
307FC0
3060E0
3060C0
3060C0
3060C0
3060C0
3060C0
30C0C0
30C0C0
30C0C1
60C0C3
6180E6
C300FF
86003E
040000
ENDCHAR
STARTCHAR C217c
ENCODING 8572
SWIDTH 400 0
DWIDTH 24 0
BBX 24 24 0 -2
BITMAP
000000
0E0000
0C0006
0C3FFF
0C0307
0C0307
0D8307
7FC307
0C0307
0C0307
0C0307
0C0307
0C0607
0C0607
0C0607
0C4E07
0F8C07
3E0C07
F81806
E0180E
00300C
0061FC
00C078
070030
ENDCHAR
STARTCHAR C217d
ENCODING 8573
SWIDTH 400 0
DWIDTH 24 0
BBX 24 24 0 -2
BITMAP
000007
007807
07F006
3F8006
0381E6
0381C6
0381C6
0381C6
0389C6
FFFDC6
0381C6
0381C6
0381C6
0301C6
0301C6
0301C6
0601C6
0601C6
060086
0C0006
0C0006
18007E
30003C
600008
ENDCHAR
STARTCHAR C217e
ENCODING 8574
SWIDTH 400 0
DWIDTH 24 0
BBX 24 24 0 -2
BITMAP
000000
0E0000
0C000E
1C3FFF
180306
380306
300306
218306
61C306
638306
330306
1F0306
0E0606
0C0606
0C0606
180E06
318C06
30CC06
67CC0C
FCD80C
F0580C
6031FC
006078
01C030
ENDCHAR
STARTCHAR C2221
ENCODING 8737
SWIDTH 400 0
DWIDTH 24 0
BBX 24 24 0 -2
BITMAP
000000
60000C
7FFFFE
60700C
60700C
60700C
60700C
6070CC
67FFEC
6070EC
6070CC
6060CC
6060CC
6060CC
60C0CC
60C0CC
6180CC
6180CC
631FCC
660F8C
6C030C
60000C
7FFFFC
60000C
ENDCHAR
STARTCHAR C2222
ENCODING 8738
SWIDTH 400 0
DWIDTH 24 0
BBX 24 24 0 -2
BITMAP
0E0000
0E0000
0C0000
1C0006
1FFFFE
180006
300006
306006
603046
5FFFE6
070006
060006
060006
060006
060006
060006
060006
07FF86
03FFCE
00000C
00000C
0003FC
0001F8
000070
ENDCHAR
STARTCHAR C2223
ENCODING 8739
SWIDTH 400 0
DWIDTH 24 0
BBX 24 24 0 -2
BITMAP
070000
070000
060004
07FFFE
0E0006
0C0006
180006
301C06
201C06
401806
0E1806
0C1C06
0C3606
0C3306
0C6186
0C41C6
0C8086
0C0006
0C0006
0FFFE6
00000E
0001FC
000078
000030
ENDCHAR
STARTCHAR C2224
ENCODING 8740
SWIDTH 400 0
DWIDTH 24 0
BBX 24 24 0 -2
BITMAP
0E0000
0E0000
0C0000
1C0006
1FFFFE
180006
307006
307006
60E0E6
40FFE6
0180C6
0381C6
06E186
0C7306
383F06
001E06
001C06
003806
00700E
00C00C
07800C
3E03FC
0001F8
000070
ENDCHAR
STARTCHAR C2225
ENCODING 8741
SWIDTH 400 0
DWIDTH 24 0
BBX 24 24 0 -2
BITMAP
070000
070000
060000
060000
060038
0FFFF8
0C6338
186338
1E6338
33C638
21C638
40E638
01FE38
019C38
039E38
031F38
0619F8
0C30F8
186078
30C03F
01807F
0303E2
0601E0
0000C0
ENDCHAR
STARTCHAR C2226
ENCODING 8742
SWIDTH 400 0
DWIDTH 24 0
BBX 24 24 0 -2
BITMAP
000004
60000E
7FFFFE
600000
600000
600030
67FFF0
600C00
600C00
600C00
600C00
600C00
600C00
600C00
600C00
600C00
600C00
600C0C
6FFFFC
600000
600000
600006
7FFFFF
000000
ENDCHAR
STARTCHAR C2227
ENCODING 8743
SWIDTH 400 0
DWIDTH 24 0
BBX 24 24 0 -2
BITMAP
000300
000300
000300
618300
7FC300
618300
618300
618300
6183C0
618360
618338
61831C
61830E
61830E
618306
7F8302
618300
618300
400300
000300
000300
000300
000300
000200
ENDCHAR
STARTCHAR C2228
ENCODING 8744
SWIDTH 400 0
DWIDTH 24 0
BBX 24 24 0 -2
BITMAP
000004
00460E
7FE7FF
060606
060606
060606
060606
060606
060606
060606
060606
060606
060606
060606
060606
067606
0FC606
FE06FE
70061C
200608
000600
000600
000600
000600
ENDCHAR
STARTCHAR C2229
ENCODING 8745
SWIDTH 400 0
DWIDTH 24 0
BBX 24 24 0 -2
BITMAP
000000
300007
3FFFFF
300000
300000
30000C
37FFFE
303000
303000
303000
303038
303FF8
303038
303038
307038
306038
306038
60C038
60C030
618070
C18060
C30FE0
8603C0
1C0180
ENDCHAR
STARTCHAR C222a
ENCODING 8746
SWIDTH 400 0
DWIDTH 24 0
BBX 24 24 0 -2
BITMAP
003800
003800
007000
00700C
7FFFFE
00E300
00C180
0181C0
0380E0
030070
062038
0C701F
18700F
606006
80E000
00C200
00C300
018180
0300C0
060060
0C3FF0
1FF838
0E0010
000000
ENDCHAR
STARTCHAR C222b
ENCODING 8747
SWIDTH 400 0
DWIDTH 24 0
BBX 24 24 0 -2
BITMAP
000038
0003FC
3FFFFC
006000
006000
006002
FFFFFF
00E000
00C000
00C000
00C060
01FFF0
01A060
03B0C0
0310C0
061980
060980
0C0F00
180F00
301F80
6039F0
40E07F
03801E
3E0004
ENDCHAR
STARTCHAR C222c
ENCODING 8748
SWIDTH 400 0
DWIDTH 24 0
BBX 24 24 0 -2
BITMAP
000380
000380
000300
C30300
FF8300
E38300
E38300
E38300
E38380
E38380
E38380
E383C0
E38740
E38640
E38660
FF8E60
E30C30
E01C30
401818
00301C
00600E
00C00F
018007
060000
ENDCHAR
STARTCHAR C222d
ENCODING 8749
SWIDTH 400 0
DWIDTH 24 0
BBX 24 24 0 -2
BITMAP
0001C0
0001C0
000180
C30180
FF0180
E30180
E30180
E30186
E3FFFF
E30180
E30180
E30180
E30180
E30180
E30180
FF0180
E30180
E30180
400180
000180
000180
000180
000180
000180
ENDCHAR
STARTCHAR C222e
ENCODING 8750
SWIDTH 400 0
DWIDTH 24 0
BBX 24 24 0 -2
BITMAP
000060
0FFFF0
0C0070
0C0060
0C0060
0C0060
0FFFE0
0C0060
00000C
3FFFFE
038000
038000
030000
060030
07FFF8
060038
000038
000038
000038
000030
000070
000FE0
0003E0
0000C0
ENDCHAR
STARTCHAR C222f
ENCODING 8751
SWIDTH 400 0
DWIDTH 24 0
BBX 24 24 0 -2
BITMAP
000000
000008
003FFC
C3100C
FF100C
E31818
E31818
E30818
E30838
E30C30
E30460
E30660
E306E0
E303C0
E303C0
E30180
FF03C0
E306E0
C00C70
001838
00301C
00600F
00C006
038000
ENDCHAR
STARTCHAR C2230
ENCODING 8752
SWIDTH 400 0
DWIDTH 24 0
BBX 24 24 0 -2
BITMAP
000E00
000E00
000E00
C60E00
FF0E00
E70E20
E67FF0
E60E30
E60E30
E60E30
E60E30
E60E30
E60C30
E60C30
E60C30
E61830
FE1830
E61830
C03030
007031
00E031
01C03F
03803F
0E000E
ENDCHAR
STARTCHAR C2231
ENCODING 8753
SWIDTH 400 0
DWIDTH 24 0
BBX 24 24 0 -2
BITMAP
007000
007000
006000
0060C0
3FFFE0
0060C0
00C0C0
00C0C0
00C0C0
0180C1
0300C1
0600E3
1C00FF
30007F
C00000
07FFF0
060070
060060
060060
060060
060060
060060
07FFE0
040060
ENDCHAR
STARTCHAR C2232
ENCODING 8754
SWIDTH 400 0
DWIDTH 24 0
BBX 24 24 0 -2
BITMAP
000000
60000C
7FFFFE
60010C
60038C
63FFCC
60830C
60830C
60C30C
60C70C
60460C
606E0C
603C0C
60180C
603C0C
60360C
60630C
60C1EC
6180EC
66004C
64000C
7FFFFC
60000C
600000
ENDCHAR
STARTCHAR C2233
ENCODING 8755
SWIDTH 400 0
DWIDTH 24 0
BBX 24 24 0 -2
BITMAP
000380
1E0380
1C0300
1C0300
1C0300
1C0304
1C1FFE
1F8386
7F8306
1C0306
1C0306
1C0306
1C0306
1C0306
1C0606
1C8606
1F8606
3E0C0E
F80C0C
E0180C
00301C
0061F8
00C0F0
038060
ENDCHAR
STARTCHAR C2234
ENCODING 8756
SWIDTH 400 0
DWIDTH 24 0
BBX 24 24 0 -2
BITMAP
040380
070380
060300
060300
060300
060300
060300
0EC380
3FC3E0
060370
060338
06031C
06030E
060307
060303
064300
07C300
0F0300
7C0300
300300
000300
000300
000300
000300
ENDCHAR
STARTCHAR C2235
ENCODING 8757
SWIDTH 400 0
DWIDTH 24 0
BBX 24 24 0 -2
BITMAP
0601C0
0601C0
0601C0
0E01C0
0C61C0
0FF1C0
1C71C0
1C71C0
1871E0
1861E0
3C6160
346320
66C330
63C330
C1C218
01C61C
01C40E
03EC07
033802
061800
0C0F00
1803FF
3001FF
40007C
ENDCHAR
STARTCHAR C2236
ENCODING 8758
SWIDTH 400 0
DWIDTH 24 0
BBX 24 24 0 -2
BITMAP
070000
070087
0601FF
0601C7
0611C7
07F9C7
0E19C7
0C19C7
0C19C7
1C39C7
1831C7
3E31C7
73F1C7
61E1C7
C0E1C7
00E1C7
00C1C7
0181DE
0381CC
0301C0
0601C0
0C01C0
1801C0
600180
ENDCHAR
STARTCHAR C2237
ENCODING 8759
SWIDTH 400 0
DWIDTH 24 0
BBX 24 24 0 -2
BITMAP
001800
001800
001800
001804
00380E
7FFFFE
003400
003200
006200
006300
00C100
019180
031CC0
061860
0C1838
18181F
3038CF
E7FFC7
001800
001800
001800
001800
001800
001000
ENDCHAR
STARTCHAR C2238
ENCODING 8760
SWIDTH 400 0
DWIDTH 24 0
BBX 24 24 0 -2
BITMAP
003000
003000
007004
7FFFFE
00E300
00C180
0180C0
038060
070030
0E001C
1D008F
3B81C7
E381C2
0381C0
0381C0
0381C0
0301C0
0301C0
0301C0
0601C0
0601C0
0C01C0
1801C0
300180
ENDCHAR
STARTCHAR C2239
ENCODING 8761
SWIDTH 400 0
DWIDTH 24 0
BBX 24 24 0 -2
BITMAP
000E00
000E00
080C00
060C00
030C00
018C00
000C00
000C00
180C00
0E0C00
070C00
031C00
001800
001807
FFFFFF
003000
003100
0060C0
006070
00C038
01801C
07000E
1C0006
700000
ENDCHAR
STARTCHAR C223a
ENCODING 8762
SWIDTH 400 0
DWIDTH 24 0
BBX 24 24 0 -2
BITMAP
003000
003000
007004
7FFFFE
00E200
00C300
018180
0380C0
070070
0E003C
1C001F
38000F
E00022
1E0038
1C0030
1C0030
1C0030
1C0030
1C0030
1C0030
1C0030
1C0030
1FFFF0
000030
ENDCHAR
STARTCHAR C223b
ENCODING 8763
SWIDTH 400 0
DWIDTH 24 0
BBX 24 24 0 -2
BITMAP
000000
1E0006
1C3FFF
1C00C0
1C00C0
1D80C0
FFC0C0
F980C0
1980C0
1980C0
1980C0
3180C0
3380C0
3380C0
3300C0
3F00C0
0E00C0
0F00C0
0D80C0
18C0C0
3000C0
600FC0
8003C0
000180
ENDCHAR
STARTCHAR C223c
ENCODING 8764
SWIDTH 400 0
DWIDTH 24 0
BBX 24 24 0 -2
BITMAP
003000
001800
201802
3FFFFF
600007
E00006
C000CC
0FFFE0
0100E0
0180C0
008180
00C180
00C300
006300
006600
003C00
001C00
003C00
007700
00E3C0
0181F0
07007F
1C001E
700004
ENDCHAR
STARTCHAR C223d
ENCODING 8765
SWIDTH 400 0
DWIDTH 24 0
BBX 24 24 0 -2
BITMAP
003000
001800
201802
3FFFFF
600007
E00006
C0000C
01C380
018380
018300
018300
018300
018300
018300
018300
038300
038300
030300
030301
060303
0C0302
1803FE
3001FE
6000FC
ENDCHAR
STARTCHAR C223e
ENCODING 8766
SWIDTH 400 0
DWIDTH 24 0
BBX 24 24 0 -2
BITMAP
00001C
00001C
00C018
7FE018
00C018
40C01A
61DFFF
218018
318018
138018
1B0218
1B0318
0F0398
060198
060018
0F0018
0F0018
0D8018
198018
10C018
30C018
60C1F8
C00078
800030
ENDCHAR
STARTCHAR C223f
ENCODING 8767
SWIDTH 400 0
DWIDTH 24 0
BBX 24 24 0 -2
BITMAP
060000
060000
060000
0C0000
0C000C
1FFFFE
100C0C
200C18
400C00
000C00
040C00
070C20
060C10
0C0C08
0C0C0C
180C0E
180C06
300C07
600C03
C00C00
800C00
00FC00
007800
001000
ENDCHAR
STARTCHAR C2240
ENCODING 8768
SWIDTH 400 0
DWIDTH 24 0
BBX 24 24 0 -2
BITMAP
000008
30001C
3FFFFC
30000C
30000C
3FFFFC
300008
300000
300060
31FFF0
304060
304060
3020C0
3030C0
301180
301980
300F00
200E00
600F00
6019C0
4070F0
C1C07F
87000E
3C0004
ENDCHAR
STARTCHAR C2241
ENCODING 8769
SWIDTH 400 0
DWIDTH 24 0
BBX 24 24 0 -2
BITMAP
100000
1C1820
181FF0
181830
181830
991830
DB9830
9B9830
9B9830
9B9830
9B9830
9B9830
9B9830
9B9830
9B9830
9B9830
9B9830
9B9830
FF3030
003031
006031
00C03F
01803F
06000E
ENDCHAR
STARTCHAR C2242
ENCODING 8770
SWIDTH 400 0
DWIDTH 24 0
BBX 24 24 0 -2
BITMAP
001800
101810
1C1838
181838
181838
181838
3FFFF8
001010
001C00
001800
001800
001800
003C00
003400
007600
006200
00C300
00C180
0181C0
0380E0
070078
0E003F
18001E
600004
ENDCHAR
STARTCHAR C2243
ENCODING 8771
SWIDTH 400 0
DWIDTH 24 0
BBX 24 24 0 -2
BITMAP
001800
101810
1C1838
181838
181838
181838
3FFFF8
004010
003000
001800
001800
001C00
003E00
003200
007300
006300
00C180
00C0C0
0180E0
030070
06003C
0C001F
18000E
600000
ENDCHAR
STARTCHAR C2244
ENCODING 8772
SWIDTH 400 0
DWIDTH 24 0
BBX 24 24 0 -2
BITMAP
001800
101810
1C1838
181838
183838
1FFFF0
000040
0000E0
0FFFE0
00C0C0
00C0C0
00C18C
00C1FE
00C10E
00C00C
01C00C
01800C
03800C
03000C
06000C
0C0018
1803F8
3000F0
600060
ENDCHAR
STARTCHAR C2245
ENCODING 8773
SWIDTH 400 0
DWIDTH 24 0
BBX 24 24 0 -2
BITMAP
000020
000070
0FFFF8
000030
000030
000030
000030
1C0030
1C0030
1FFFF0
1C0020
1C0000
1C0000
1C0018
1FFFFC
1C001C
1C0018
1C0018
1C0018
1C0018
1C0018
1FFFF8
1C0018
180000
ENDCHAR
STARTCHAR C2246
ENCODING 8774
SWIDTH 400 0
DWIDTH 24 0
BBX 24 24 0 -2
BITMAP
060000
060700
060600
060600
66C600
7FE600
66E600
66C600
66C600
66C606
66C7FE
66C600
66C600
66C600
66C600
66C600
67C600
668600
060601
060601
060603
0607FF
0603FF
0401FE
ENDCHAR
STARTCHAR C2247
ENCODING 8775
SWIDTH 400 0
DWIDTH 24 0
BBX 24 24 0 -2
BITMAP
001800
000C00
300C06
3FFFFF
300000
300004
33FFFE
300600
300600
300600
300600
300600
300600
300600
300600
300600
600600
600600
600600
400600
C00600
807E00
801E00
000C00
ENDCHAR
STARTCHAR C2248
ENCODING 8776
SWIDTH 400 0
DWIDTH 24 0
BBX 24 24 0 -2
BITMAP
001800
000C00
300E02
3FFFFF
380000
300000
301C00
301C00
301800
301800
301800
303000
303000
303000
306080
3060E0
30C070
20C038
61801C
6301FE
C7FF06
C3E006
80C000
000000
ENDCHAR
STARTCHAR C2249
ENCODING 8777
SWIDTH 400 0
DWIDTH 24 0
BBX 24 24 0 -2
BITMAP
000300
000320
000318
000318
000300
FFFFFF
000300
000300
000300
006180
3FE180
000180
0001C0
0001C0
0000C0
0000C0
000060
000860
7FFC70
000031
000039
00001F
00000F
000007
ENDCHAR
STARTCHAR C224a
ENCODING 8778
SWIDTH 400 0
DWIDTH 24 0
BBX 24 24 0 -2
BITMAP
038000
038004
031FFE
030006
030006
430006
630006
330006
330006
130006
030006
030006
030FFE
060006
060006
060006
060006
060006
0C0006
0C0006
180006
100FFE
200006
400004
ENDCHAR
STARTCHAR C224b
ENCODING 8779
SWIDTH 400 0
DWIDTH 24 0
BBX 24 24 0 -2
BITMAP
030000
070002
063FFF
0E00C0
1C00C0
3800C0
7300C0
0700C0
0600C0
0E00C0
1C00C0
1C00C0
3C00C0
3C00C0
5C00C0
9C00C0
1C00C0
1C00C0
1C00C0
1C00C0
1C00C0
1C0FC0
1C03C0
180180
ENDCHAR
STARTCHAR C224c
ENCODING 8780
SWIDTH 400 0
DWIDTH 24 0
BBX 24 24 0 -2
BITMAP
1C0000
1C0006
18FFFF
1801C0
1801C0
1801C0
5C01C0
5E01C0
DB01C0
D901C0
D801C0
9801C0
1801C0
1801C0
1801C0
1801C0
1801C0
1801C0
1801C0
1801C0
1801C0
181FC0
180780
180300
ENDCHAR
STARTCHAR C224d
ENCODING 8781
SWIDTH 400 0
DWIDTH 24 0
BBX 24 24 0 -2
BITMAP
1C0380
1C0380
180300
180300
180300
180302
5C3FFF
5E0387
DB0307
D90307
D80307
980307
180307
180307
180607
180607
180607
180C06
180C06
18180E
18300C
1861FC
18C078
1B8030
ENDCHAR
STARTCHAR C224e
ENCODING 8782
SWIDTH 400 0
DWIDTH 24 0
BBX 24 24 0 -2
BITMAP
0003F0
30FFF8
3FF000
300004
3FFFFE
30000E
30000C
3FFFFC
300000
300030
31FFF8
300078
3001E0
300380
300E00
303C00
307000
61C000
638001
670003
C70002
C7FFFE
83FFFE
00FFFC
ENDCHAR
STARTCHAR C224f
ENCODING 8783
SWIDTH 400 0
DWIDTH 24 0
BBX 24 24 0 -2
BITMAP
0E0000
0E0000
0C000E
0C1FFF
0C0306
0CC306
7FC306
0C0306
0C0306
0C0306
0C0306
0F8306
3E0606
FC0606
EC0606
4C0E06
0C0C06
0C0C0E
0C180C
0C180C
0C300C
7C61FC
3CC078
198030
ENDCHAR
STARTCHAR C2250
ENCODING 8784
SWIDTH 400 0
DWIDTH 24 0
BBX 24 24 0 -2
BITMAP
1C0E00
1C0E00
1C0C00
1C0C00
1C0C00
1C0C20
7F7FF0
1C0C30
1C0C30
1C0C30
1C0C30
1F0C30
1C0C30
FC0C30
FC1830
5C1830
1C1830
1C1030
1C3030
1C2031
1C6031
FC403F
38803F
31000E
ENDCHAR
STARTCHAR C2251
ENCODING 8785
SWIDTH 400 0
DWIDTH 24 0
BBX 24 24 0 -2
BITMAP
000000
100000
1C600C
187FFE
18700C
18700C
18700C
18700C
18700C
18700C
18700C
187FFC
18700C
18700C
18700C
18700C
18700C
18700C
18700C
18700C
187FFC
18700C
182000
100000
ENDCHAR
STARTCHAR C2252
ENCODING 8786
SWIDTH 400 0
DWIDTH 24 0
BBX 24 24 0 -2
BITMAP
001800
001880
0018E0
001860
001820
00180E
7FFFFE
003800
007C00
007C00
00FE00
00DB00
019B00
019980
0318C0
0618E0
061870
0C183C
18181F
301807
601800
801800
001800
001000
ENDCHAR
STARTCHAR C2253
ENCODING 8787
SWIDTH 400 0
DWIDTH 24 0
BBX 24 24 0 -2
BITMAP
001C00
001C00
001810
021FF8
039C00
031800
031860
07FFF0
070070
0E00E0
0C00E0
19C0C0
30E1C0
607180
003380
000700
000E00
001C00
003800
007000
01C000
030000
1E0000
780000
ENDCHAR
STARTCHAR C2254
ENCODING 8788
SWIDTH 400 0
DWIDTH 24 0
BBX 24 24 0 -2
BITMAP
004000
00E300
7FF380
00C300
018300
030300
060B9C
0DFBB8
0C1BE0
181BC0
301B40
303320
607330
606318
E0C31F
C1830F
C60306
C41F00
C00600
E00001
700001
3FFFFF
1FFFFF
07FFFE
ENDCHAR
STARTCHAR C2255
ENCODING 8789
SWIDTH 400 0
DWIDTH 24 0
BBX 24 24 0 -2
BITMAP
001800
181800
0C1800
0C1800
001800
011800
811800
E2180C
72187E
361BF0
061E00
041800
0C1800
081800
181800
181800
301800
F01800
301801
301801
381803
381FFF
381FFF
100FFE
ENDCHAR
STARTCHAR C2256
ENCODING 8790
SWIDTH 400 0
DWIDTH 24 0
BBX 24 24 0 -2
BITMAP
000000
183040
0C3FE0
0C3060
003060
013060
813060
E23060
723060
363060
063060
043060
0C3060
083060
183060
187060
307060
F06060
306061
30C061
38C063
39C07F
39807F
13003E
ENDCHAR
STARTCHAR C2257
ENCODING 8791
SWIDTH 400 0
DWIDTH 24 0
BBX 24 24 0 -2
BITMAP
001C00
001C00
0E1800
071800
039800
001808
00181C
00D838
3FDE60
00DEC0
00DB00
00DB00
019900
019980
039880
0318C0
061860
061830
0C181C
18180F
301807
E0F802
007800
003000
ENDCHAR
STARTCHAR C2258
ENCODING 8792
SWIDTH 400 0
DWIDTH 24 0
BBX 24 24 0 -2
BITMAP
200700
300700
180600
0C0600
000600
000600
820600
E20600
760600
360600
040700
0C0F00
0C0D00
180D80
181D80
3818C0
3018C0
F030E0
703070
606078
70603C
30C01F
31800E
370004
ENDCHAR
STARTCHAR C2259
ENCODING 8793
SWIDTH 400 0
DWIDTH 24 0
BBX 24 24 0 -2
BITMAP
000000
180007
1C7FFF
0C0600
040600
010C00
810C00
E21800
721800
361806
363FFE
041006
0C0006
080006
180006
180006
300006
F00006
30000E
30000C
38001C
3801F8
380078
100030
ENDCHAR
STARTCHAR C225a
ENCODING 8794
SWIDTH 400 0
DWIDTH 24 0
BBX 24 24 0 -2
BITMAP
000E00
000E00
008C00
7FCC00
0C0C00
0C0C00
0C0C00
0C0C00
0C0C00
0C0C00
0C8C00
7FCC00
0C0C00
0C0C00
0C0C00
0C0C00
0C0C00
0C0C00
0CCC01
0F8C01
FC0C03
F00E03
4007FF
0003FF
ENDCHAR
STARTCHAR C225b
ENCODING 8795
SWIDTH 400 0
DWIDTH 24 0
BBX 24 24 0 -2
BITMAP
001800
000C00
080606
1FFFFF
1C0000
9C0000
DC0000
7C0000
7C0000
1C0000
1C0000
3C0000
FC0000
DC0000
1C0000
1C0000
180000
180000
180000
300000
300000
600000
600000
C00000
ENDCHAR
STARTCHAR C225c
ENCODING 8796
SWIDTH 400 0
DWIDTH 24 0
BBX 24 24 0 -2
BITMAP
000000
006460
3FF4E0
007780
006200
00E308
30C31E
1CC338
0EC1F0
0781C0
0381C0
0300C0
0700E0
060070
0C0038
0C001C
18000F
300007
600002
800000
000000
000000
000000
000000
ENDCHAR
STARTCHAR C225d
ENCODING 8797
SWIDTH 400 0
DWIDTH 24 0
BBX 24 24 0 -2
BITMAP
000004
00030E
00E3FF
7FF30C
00E30C
00C308
00C318
20C310
30C310
198308
098304
0F8306
070307
070303
070303
078303
058303
0CC307
18C3FE
18631C
306308
603300
C00300
800300
ENDCHAR
STARTCHAR C225e
ENCODING 8798
SWIDTH 400 0
DWIDTH 24 0
BBX 24 24 0 -2
BITMAP
000004
00130E
FFFBFF
06030C
06030C
060308
060318
060310
060310
060308
060304
060306
060307
060303
060303
060303
060303
060307
0603FE
06031C
060308
3E0300
1E0300
0C0300
ENDCHAR
STARTCHAR C225f
ENCODING 8799
SWIDTH 400 0
DWIDTH 24 0
BBX 24 24 0 -2
BITMAP
000000
10C1C7
1FE1FF
18C1C6
18C1CC
18C1CC
18C1D8
18C1D0
18C1D0
18C1C8
18C1C4
18C1C6
18C1C7
18C1C3
18C1C3
18C1C3
30C1C3
30C1FF
30C7DE
30F9CC
60F1C0
60E1C0
4041C0
000180
ENDCHAR
STARTCHAR C2260
ENCODING 8800
SWIDTH 400 0
DWIDTH 24 0
BBX 24 24 0 -2
BITMAP
020000
E70006
FFFFFF
E301C0
E601C0
E601C0
E401C0
EC01C0
EC01C0
E401C0
E601C0
E301C0
E301C0
E381C0
E381C0
E381C0
E381C0
FF01C0
E601C0
E001C0
E001C0
E00FC0
E00780
C00300
ENDCHAR
STARTCHAR C2261
ENCODING 8801
SWIDTH 400 0
DWIDTH 24 0
BBX 24 24 0 -2
BITMAP
000000
000007
FFFFFF
001800
001800
00180C
7FFFFE
60380E
60180C
60180C
6618CC
6718CC
6618CC
6618CC
6618CC
6618CC
6618CC
67FFCC
6600CC
60000C
60000C
60007C
60003C
600018
ENDCHAR
STARTCHAR C2262
ENCODING 8802
SWIDTH 400 0
DWIDTH 24 0
BBX 24 24 0 -2
BITMAP
00C300
00C300
00C300
00C300
00C300
00C300
00C300
01C30C
3FC3FC
00C300
00C300
00C300
00C300
00C300
00C301
00C301
03C303
FE83FF
F001FE
400000
000000
000000
000007
FFFFFF
ENDCHAR
STARTCHAR C2263
ENCODING 8803
SWIDTH 400 0
DWIDTH 24 0
BBX 24 24 0 -2
BITMAP
000038
0003FC
01FFC0
3F1800
001800
001800
001818
3FFFFC
001800
001800
001800
001802
FFFFFF
003000
003000
006000
00C000
0180E0
030070
060038
0C001C
1FFFFE
1FFC07
0E0007
ENDCHAR
STARTCHAR C2264
ENCODING 8804
SWIDTH 400 0
DWIDTH 24 0
BBX 24 24 0 -2
BITMAP
0701C0
0701C0
060180
0C0180
0C0180
18C180
106180
303180
603980
FFF980
F81980
600980
000180
006180
3FF180
307180
307180
307180
307181
307181
307183
3FF1FF
3061FF
20007E
ENDCHAR
STARTCHAR C2265
ENCODING 8805
SWIDTH 400 0
DWIDTH 24 0
BBX 24 24 0 -2
BITMAP
038000
038100
03FF80
030380
060300
0C0600
080C30
0FFFF0
001830
001830
001832
FFFFFF
001830
001830
001830
0FFFF0
003830
001820
001800
001800
001800
01F800
00F000
006000
ENDCHAR
STARTCHAR C2266
ENCODING 8806
SWIDTH 400 0
DWIDTH 24 0
BBX 24 24 0 -2
BITMAP
000000
00000C
3FFFFE
000000
000000
000060
07FFF0
060070
060060
060060
060060
060060
07FFE0
060060
060060
060060
060060
060060
07FFE0
060060
040000
000000
000007
FFFFFF
ENDCHAR
STARTCHAR C2267
ENCODING 8807
SWIDTH 400 0
DWIDTH 24 0
BBX 24 24 0 -2
BITMAP
038380
038380
070300
060338
0603FC
0C1FC0
1C3B00
1C0300
3C0300
3C0308
6C7FFC
4C0300
8C0300
0C0300
0C0302
0CFFFF
0C0380
0C0300
0C0300
0C0300
0C0300
0C0300
0C0300
0C0300
ENDCHAR
STARTCHAR C2268
ENCODING 8808
SWIDTH 400 0
DWIDTH 24 0
BBX 24 24 0 -2
BITMAP
0381C0
0381C0
070180
060180
060180
0C1190
1C1998
1C198C
3C3186
3C3187
6C6183
4C6181
8C418C
0CC18C
0C8198
0C01B8
0C0130
0C0060
0C00C0
0C0180
0C0700
0C0C00
0C3000
0DC000
ENDCHAR
STARTCHAR C2269
ENCODING 8809
SWIDTH 400 0
DWIDTH 24 0
BBX 24 24 0 -2
BITMAP
070600
070300
060100
060180
0C7187
0C7FFF
1871C7
1870C7
3871C7
7871C7
7871E7
D87367
187367
187337
187637
187C1F
18781F
18700F
187007
187007
187007
18703F
18701E
18600C
ENDCHAR
STARTCHAR C226a
ENCODING 8810
SWIDTH 400 0
DWIDTH 24 0
BBX 24 24 0 -2
BITMAP
070638
071F38
067C38
060C38
0C0C38
0C0C38
1C0C38
1C0C38
3C0C38
7C0C38
7CFFFF
DC0C38
1C0C38
1C0C38
1C1838
1C1838
1C1838
1C1838
1C3038
1C3038
1C6038
1C6038
1CC038
198030
ENDCHAR
STARTCHAR C226b
ENCODING 8811
SWIDTH 400 0
DWIDTH 24 0
BBX 24 24 0 -2
BITMAP
070078
0707FC
06FF80
060300
0C0300
0C0300
180300
180300
38030C
78FFFE
780300
D80700
180780
180780
180FC0
180CC0
1818E0
181860
183870
183038
18603E
18C01F
19800E
1F0004
ENDCHAR
STARTCHAR C226c
ENCODING 8812
SWIDTH 400 0
DWIDTH 24 0
BBX 24 24 0 -2
BITMAP
071800
071800
061800
063800
0C3004
0C3FFE
186666
186666
38C666
78CE66
798C66
D80C66
180CC6
1818C6
1819C6
183186
183306
186306
18C70E
180E0C
181C0C
1839FC
182078
180030
ENDCHAR
STARTCHAR C226d
ENCODING 8813
SWIDTH 400 0
DWIDTH 24 0
BBX 24 24 0 -2
BITMAP
070000
070038
061FFC
060030
0C0060
0C0640
180380
180380
380186
78FFFF
780186
D8018C
180188
180180
180180
180180
180180
180180
180180
180180
180180
181F80
180F00
180200
ENDCHAR
STARTCHAR C226e
ENCODING 8814
SWIDTH 400 0
DWIDTH 24 0
BBX 24 24 0 -2
BITMAP
070004
07000E
067FFE
060300
0C0300
0C0300
180300
180300
380300
780300
78030C
D87FFE
180300
180300
180300
180300
180300
180300
180300
180300
180300
180306
19FFFF
180000
ENDCHAR
STARTCHAR C226f
ENCODING 8815
SWIDTH 400 0
DWIDTH 24 0
BBX 24 24 0 -2
BITMAP
070000
07200C
067FFE
067000
0C7000
0C7000
187000
187038
387FFC
787418
787418
D87638
187230
187230
186370
186160
1861E0
18C1C0
18C1E0
18C370
19863C
190C1F
1A180E
187004
ENDCHAR
STARTCHAR C2270
ENCODING 8816
SWIDTH 400 0
DWIDTH 24 0
BBX 24 24 0 -2
BITMAP
070E00
070E00
060C00
060C00
0C0C07
0CFFFF
180C00
180C00
381C08
781FFC
781C1C
D81C18
181E38
181230
183330
183360
1861E0
1861C0
1841E0
18C330
19861C
190C0F
181807
18E000
ENDCHAR
STARTCHAR C2271
ENCODING 8817
SWIDTH 400 0
DWIDTH 24 0
BBX 24 24 0 -2
BITMAP
077000
077000
06701C
067FFC
0CC000
0CC000
19BFF0
190000
380000
780030
78FFF8
D80038
180038
180038
180038
180038
180018
180018
180018
18000D
18000D
180007
180007
180003
ENDCHAR
STARTCHAR C2272
ENCODING 8818
SWIDTH 400 0
DWIDTH 24 0
BBX 24 24 0 -2
BITMAP
071800
071800
061800
063006
0C3FFE
0C7006
186006
18C006
38C006
79BFC6
790006
D80006
180006
180006
180006
183FC6
180006
180006
18000E
18000C
18000C
1801FC
180078
180030
ENDCHAR
STARTCHAR C2273
ENCODING 8819
SWIDTH 400 0
DWIDTH 24 0
BBX 24 24 0 -2
BITMAP
070E00
070E00
060E00
060E30
0CFFF0
0C0E30
180E30
180C30
380C31
781831
78183B
D8333F
18E39E
198300
180300
180302
19FFFF
180300
180300
180300
180300
180300
180300
180300
ENDCHAR
STARTCHAR C2274
ENCODING 8820
SWIDTH 400 0
DWIDTH 24 0
BBX 24 24 0 -2
BITMAP
070000
071860
061FF0
061860
0C1860
0C1860
181860
181870
38303E
78601E
78C000
D8BFF8
181038
181830
180830
180C60
180660
1803C0
1803C0
1803E0
1806F8
181C7F
18701E
1BC004
ENDCHAR
STARTCHAR C2275
ENCODING 8821
SWIDTH 400 0
DWIDTH 24 0
BBX 24 24 0 -2
BITMAP
001800
001800
003800
007400
006200
00C180
0180C0
030060
06003C
0DFF9F
30000E
E00004
000000
000018
3FFFFC
006000
00C000
018080
030040
060020
0C03F0
1FFF98
1F800C
0C000C
ENDCHAR
STARTCHAR C2276
ENCODING 8822
SWIDTH 400 0
DWIDTH 24 0
BBX 24 24 0 -2
BITMAP
001800
003800
003800
006400
00C200
018180
0300C0
060060
0C003C
1C003F
37FFEE
E60000
060000
060000
060000
0600C0
07FFE0
060000
060000
060000
060000
060030
07FFF0
000000
ENDCHAR
STARTCHAR C2277
ENCODING 8823
SWIDTH 400 0
DWIDTH 24 0
BBX 24 24 0 -2
BITMAP
001800
001800
001800
003800
003400
006600
00C300
0181C0
0300F0
0E007F
18001E
E20084
0381E0
0301C0
0301C0
0301C0
0781C0
06C1A0
06E330
0C6318
0C761C
182C0F
301807
607000
ENDCHAR
STARTCHAR C2278
ENCODING 8824
SWIDTH 400 0
DWIDTH 24 0
BBX 24 24 0 -2
BITMAP
008600
00E300
01C180
0380E0
070070
0E3838
18701F
30600F
E0C186
0180C0
030060
060030
1FFFF8
1FC318
0CC300
00C300
00C300
01C300
018301
038301
070303
0E03FF
1803FF
6001FE
ENDCHAR
STARTCHAR C2279
ENCODING 8825
SWIDTH 400 0
DWIDTH 24 0
BBX 24 24 0 -2
BITMAP
006000
003000
003800
006400
006200
00C180
0180C0
030070
06003F
0C001F
300006
E400E0
07FFE0
060060
060060
060060
0600E0
07FFE0
060060
060060
060060
07FFE0
0600E0
040040
ENDCHAR
STARTCHAR C227a
ENCODING 8826
SWIDTH 400 0
DWIDTH 24 0
BBX 24 24 0 -2
BITMAP
000018
3FFFFC
001800
001800
001820
0FFFF0
001800
001800
001804
3FFFFE
000000
000800
000400
00E200
00E300
00C300
01C180
0180C0
030060
060030
0C001C
18000F
300006
600000
ENDCHAR
STARTCHAR C227b
ENCODING 8827
SWIDTH 400 0
DWIDTH 24 0
BBX 24 24 0 -2
BITMAP
000004
00000E
7FFFFE
001800
001800
081870
1FFFF8
1C1830
1C1830
1C1830
1C3836
7FFFFE
1C1830
1C1830
1C1832
FFFFFF
1C0030
1C0030
1C0030
1C0030
1C0030
1C03F0
1C01E0
180040
ENDCHAR
STARTCHAR C227c
ENCODING 8828
SWIDTH 400 0
DWIDTH 24 0
BBX 24 24 0 -2
BITMAP
000000
00000C
603FFC
301860
381860
183060
023060
063060
047062
0C7FFF
0C60F0
1800E0
1801E0
1001E0
300360
F00760
F00E60
601C60
303860
307060
30E060
3387E0
3001E0
0000C0
ENDCHAR
STARTCHAR C227d
ENCODING 8829
SWIDTH 400 0
DWIDTH 24 0
BBX 24 24 0 -2
BITMAP
000700
000700
600600
300600
380630
187FF8
000638
040638
0C0638
0C0638
080638
18063A
10FFFF
100E00
300E00
F00CC0
E00C60
601C30
301818
30180C
30300E
30600E
30C006
070000
ENDCHAR
STARTCHAR C227e
ENCODING 8830
SWIDTH 400 0
DWIDTH 24 0
BBX 24 24 0 -2
BITMAP
000380
000380
600300
300300
380304
18FFFE
00C306
04C306
0CC306
0CC306
08C306
18C306
10FFFE
10C386
308304
F00300
E00300
600300
300300
300300
300300
300300
300300
000300
ENDCHAR
STARTCHAR C2321
ENCODING 8993
SWIDTH 400 0
DWIDTH 24 0
BBX 24 24 0 -2
BITMAP
000070
0003F8
607F80
300300
380300
180300
020300
060300
04030E
0CFFFE
0C0300
180380
180380
100680
3006C0
F00E40
F00C60
601C30
301838
30301C
30600E
30C00F
318007
060000
ENDCHAR
STARTCHAR C2322
ENCODING 8994
SWIDTH 400 0
DWIDTH 24 0
BBX 24 24 0 -2
BITMAP
000020
100070
1FFFF8
180030
180030
180330
19FF30
180030
180030
180030
1801B0
1BFFB0
187030
186030
18E030
18C030
308238
318338
33FF99
27C1D9
6300CF
C0000F
800007
000003
ENDCHAR
STARTCHAR C2323
ENCODING 8995
SWIDTH 400 0
DWIDTH 24 0
BBX 24 24 0 -2
BITMAP
003000
001800
001800
001806
FFFFFF
000000
000000
000080
3901CE
31818C
30C30C
30660C
303C0C
301C0C
303E0C
30630C
30C1CC
3180EC
33006C
36000C
30000C
7FFFFC
20001C
000008
ENDCHAR
STARTCHAR C2324
ENCODING 8996
SWIDTH 400 0
DWIDTH 24 0
BBX 24 24 0 -2
BITMAP
070007
070007
060006
0600E6
0630E6
3FF8C6
0638C6
0630C6
0630C6
0630C6
0630C6
0630C6
FFFEC6
0E00C6
0600C6
0E80C6
0CC0C6
0C60C6
183006
181806
301C06
300C7E
600C3C
000008
ENDCHAR
STARTCHAR C2325
ENCODING 8997
SWIDTH 400 0
DWIDTH 24 0
BBX 24 24 0 -2
BITMAP
180007
180007
181006
3FF9C6
3001C6
6001C6
C021C6
3FF1C6
0001C6
0001C6
0061C6
3FF1C6
01C1C6
0381C6
0701C6
0E01C6
1C01C6
380186
700806
600806
E01806
FFF87E
7FF83C
3FF008
ENDCHAR
STARTCHAR C2326
ENCODING 8998
SWIDTH 400 0
DWIDTH 24 0
BBX 24 24 0 -2
BITMAP
000000
000060
07FFF0
007060
007060
006060
006060
00C060
0180E0
030FC0
060180
1C0100
000004
00700E
7FF7FF
0C71C6
0C71C6
0C7186
187186
187306
30630E
37E6FC
63CC78
C19830
ENDCHAR
STARTCHAR C2327
ENCODING 8999
SWIDTH 400 0
DWIDTH 24 0
BBX 24 24 0 -2
BITMAP
0C0007
060007
070006
0301C6
0319C6
FFF9C6
0061C6
0061C6
6061C6
30C1C6
18C1C6
08C1C6
0DC1C6
0781C6
0781C6
0381C6
07C1C6
06C186
0CE006
0C6006
187006
30307E
60103C
000008
ENDCHAR
STARTCHAR C2328
ENCODING 9000
SWIDTH 400 0
DWIDTH 24 0
BBX 24 24 0 -2
BITMAP
0001C0
0001C0
0061C0
7FE1C0
0001C0
0001C0
0001C6
000FFF
0021C7
FFF1C7
0601C7
0C01C7
0C0187
180187
18C187
306307
206307
41F307
FF3606
F0160E
600C0C
0019FC
003078
00E030
ENDCHAR
STARTCHAR C2329
ENCODING 9001
SWIDTH 400 0
DWIDTH 24 0
BBX 24 24 0 -2
BITMAP
001800
001800
001800
001808
00381C
3FFFFC
001800
001800
071870
061860
061860
061060
060060
0EC0E7
FFCFFF
060060
060060
060060
0C0060
0C0060
1C0060
180060
300060
600040
ENDCHAR
STARTCHAR C232a
ENCODING 9002
SWIDTH 400 0
DWIDTH 24 0
BBX 24 24 0 -2
BITMAP
001000
001C00
001800
001800
001808
3FFFFC
001800
001800
041840
071870
061860
061060
060060
060066
FFFFFF
060060
060060
060060
060060
060060
060060
07FFE0
0600E0
040040
ENDCHAR
STARTCHAR C232b
ENCODING 9003
SWIDTH 400 0
DWIDTH 24 0
BBX 24 24 0 -2
BITMAP
1C0700
1C0700
180600
180600
180600
180600
FF0618
183FFC
180618
180618
182618
18261E
18661B
18461B
18CE1B
18CC18
180C18
181C18
181838
183038
183030
1863F0
18C1E0
1980C0
ENDCHAR
STARTCHAR C232c
ENCODING 9004
SWIDTH 400 0
DWIDTH 24 0
BBX 24 24 0 -2
BITMAP
000000
00000C
3FFFFC
000C00
001800
003B80
00F8F0
019838
06181C
18180C
001800
001800
001000
000000
001800
001800
001804
7FFFFE
001800
001800
001800
001800
001800
001000
ENDCHAR
STARTCHAR C232d
ENCODING 9005
SWIDTH 400 0
DWIDTH 24 0
BBX 24 24 0 -2
BITMAP
000008
70101C
601FFC
601800
601800
601800
601800
601800
601800
601800
60180C
7FFFFE
40180E
00180C
00180C
00180C
00180C
00180C
00180C
00180C
00180C
00180C
7FF80C
001000
ENDCHAR
STARTCHAR C232e
ENCODING 9006
SWIDTH 400 0
DWIDTH 24 0
BBX 24 24 0 -2
BITMAP
000000
300007
3FFFFF
300000
30000C
37FFFC
300E00
301C00
301800
3039C0
3071C0
30E180
30C300
307300
301E00
300C00
201800
6030E0
606070
60C038
C3FFFC
C3F80C
81800C
008000
ENDCHAR
STARTCHAR C232f
ENCODING 9007
SWIDTH 400 0
DWIDTH 24 0
BBX 24 24 0 -2
BITMAP
000004
30000E
3FFFFE
300000
300F00
300E00
300E00
300E00
300E00
300E00
300E38
33FFF8
300E00
300E00
300E80
300E60
200E38
600E18
600E08
600E00
C00E04
C7FFFE
800000
000000
ENDCHAR
STARTCHAR C2330
ENCODING 9008
SWIDTH 400 0
DWIDTH 24 0
BBX 24 24 0 -2
BITMAP
000000
300006
3FFFFF
300000
300400
300E00
300E00
301F00
301980
3030C0
306070
30C03E
3380CE
363FE4
300000
300030
20FFF0
600070
600060
6000C0
C000C0
C00180
800100
000300
ENDCHAR
STARTCHAR C2331
ENCODING 9009
SWIDTH 400 0
DWIDTH 24 0
BBX 24 24 0 -2
BITMAP
000008
00001C
3FFFFC
00700C
00700C
00700C
00700C
0070C6
1FFFC6
007003
007001
007020
3FFFF0
006000
00E000
00C200
018300
030180
0600C0
0C0060
181FF0
3FF838
1C0018
0C0000
ENDCHAR
STARTCHAR C2332
ENCODING 9010
SWIDTH 400 0
DWIDTH 24 0
BBX 24 24 0 -2
BITMAP
001800
001800
001810
3FFFF8
38381C
301818
301818
3FFFF8
001800
001800
001800
001070
7FFFF8
060070
0300E0
0181C0
00C380
006700
003C00
007E00
00F7C0
03C1FF
1E007F
78000C
ENDCHAR
STARTCHAR C2333
ENCODING 9011
SWIDTH 400 0
DWIDTH 24 0
BBX 24 24 0 -2
BITMAP
000000
0001C0
0FFFE0
000180
038300
00E600
003E00
007F00
00E3C0
0380E0
1C0060
300020
00C00C
7FE7FE
00E20E
00C31C
118118
0D80B0
0700F0
078070
0DC0DC
18C18F
304606
601800
ENDCHAR
STARTCHAR C2334
ENCODING 9012
SWIDTH 400 0
DWIDTH 24 0
BBX 24 24 0 -2
BITMAP
000004
004007
00300E
C3181C
FF0C38
E30670
E307E0
E303C0
E30180
E30180
E30180
E30180
E30180
E30180
E30180
FF0180
E30180
E30180
400180
000180
000180
000180
000180
000180
ENDCHAR
STARTCHAR C2335
ENCODING 9013
SWIDTH 400 0
DWIDTH 24 0
BBX 24 24 0 -2
BITMAP
000000
000000
00000C
033FFE
FF0180
E30180
E30180
E30180
E30180
E30180
E30180
E30180
E30180
E30180
E30180
E30180
FF0180
E30180
C00180
000180
000182
00FFFF
000000
000000
ENDCHAR
STARTCHAR C2336
ENCODING 9014
SWIDTH 400 0
DWIDTH 24 0
BBX 24 24 0 -2
BITMAP
000000
003007
003FFF
C33007
FF3007
E33007
E33007
E33007
E33007
E33FFF
E33002
E33000
E33000
E33000
E33000
FF3000
E33000
E37000
407000
006000
006000
00C000
008000
010000
ENDCHAR
STARTCHAR C2337
ENCODING 9015
SWIDTH 400 0
DWIDTH 24 0
BBX 24 24 0 -2
BITMAP
000020
000078
0003F8
C33F80
FF0180
E30180
E30180
E30180
E30180
E30180
E30187
E37FFF
E30180
E30180
E30180
FF0180
E30180
E30180
400180
000180
000180
000180
000180
000180
ENDCHAR
STARTCHAR C2338
ENCODING 9016
SWIDTH 400 0
DWIDTH 24 0
BBX 24 24 0 -2
BITMAP
000000
0C0060
0FFFF0
0C0060
0C0060
0C0060
0C0060
0C0060
0C0060
0FFFE0
0C3060
003800
003000
003000
003006
FFFFFF
006400
006600
00C380
0181C0
0300F0
06007F
1C001C
700008
ENDCHAR
STARTCHAR C2339
ENCODING 9017
SWIDTH 400 0
DWIDTH 24 0
BBX 24 24 0 -2
BITMAP
000000
000000
008004
FFCFFE
E1CE06
E0CE06
E0CE06
E0CE06
E0CE06
E0CE06
E0CE06
E0CE06
E0CE06
E0CE06
E0CE06
E0CE06
E0CE06
E0CE06
E0CE06
E1CE06
FFCFFE
C0CC06
000000
000000
ENDCHAR
STARTCHAR C233a
ENCODING 9018
SWIDTH 400 0
DWIDTH 24 0
BBX 24 24 0 -2
BITMAP
000000
000007
007FFF
C30300
FF0300
E30300
E30300
E30300
E303C0
E30370
E30338
E3031C
E3030C
E30300
E30300
FF0300
E30300
E30300
400300
000300
000300
000300
000300
000300
ENDCHAR
STARTCHAR C233b
ENCODING 9019
SWIDTH 400 0
DWIDTH 24 0
BBX 24 24 0 -2
BITMAP
000000
040060
07FFF0
060060
060060
060060
060060
060060
060060
07FFE0
040060
000000
000000
000018
1FFFFC
18001C
180018
180018
180018
180018
180018
180018
1FFFF8
180018
ENDCHAR
STARTCHAR C233c
ENCODING 9020
SWIDTH 400 0
DWIDTH 24 0
BBX 24 24 0 -2
BITMAP
000000
000600
000700
C60600
FF0E00
E70C00
E60C00
E61800
E619E0
E639C0
E63180
E66180
E64180
E60300
E60300
E60710
FE0608
E60E0C
C00C06
001806
00307F
007FE3
007803
003001
ENDCHAR
STARTCHAR C233d
ENCODING 9021
SWIDTH 400 0
DWIDTH 24 0
BBX 24 24 0 -2
BITMAP
000004
60000E
7FFFFF
60C386
60C386
60C306
60C306
60C306
60C306
60C336
6FFFF6
60C306
60C306
60C306
618306
618306
618306
630306
630306
660306
6C0306
7FFFFE
600006
600004
ENDCHAR
STARTCHAR C233e
ENCODING 9022
SWIDTH 400 0
DWIDTH 24 0
BBX 24 24 0 -2
BITMAP
000004
60000E
7FFFFF
600706
600706
600606
600606
600666
67FFE6
600606
620606
610606
618606
60C606
60C606
604606
600606
600606
60FE06
600C06
600806
7FFFFE
600006
600004
ENDCHAR
STARTCHAR C233f
ENCODING 9023
SWIDTH 400 0
DWIDTH 24 0
BBX 24 24 0 -2
BITMAP
000300
1E0300
1C0300
1C0300
1C0300
1C0300
1C0300
1F8300
7F8300
1C0318
1C03FC
1C0300
1C0300
1C0300
1C0300
1C8300
1F8300
3E0300
F80300
E00300
000300
000306
01FFFF
000000
ENDCHAR
STARTCHAR C2340
ENCODING 9024
SWIDTH 400 0
DWIDTH 24 0
BBX 24 24 0 -2
BITMAP
001800
001800
001800
003800
003007
FFFFFF
006600
00C300
0181E0
0300FC
06003F
1C101F
F01C0C
001800
001800
001818
3FFFFC
001800
001800
001800
001800
001806
FFFFFF
000000
ENDCHAR
STARTCHAR C2341
ENCODING 9025
SWIDTH 400 0
DWIDTH 24 0
BBX 24 24 0 -2
BITMAP
0001C0
03C1C0
0FC1C0
7C01C0
0C01C0
0C01C0
0C01C0
0C01C0
0C81C0
FFC1CC
0C1FFE
0C01C0
0C01C0
0C01C0
0C01C0
1C01C0
1801C0
1801C0
1801C0
3001C0
3001C0
6001C6
C03FFF
800000
ENDCHAR
STARTCHAR C2342
ENCODING 9026
SWIDTH 400 0
DWIDTH 24 0
BBX 24 24 0 -2
BITMAP
000038
1E01FC
1C0FC0
1C3DC0
1C01C0
1C01C0
1C01C0
1F81C0
7F81C6
1C7FFF
1C01C0
1C01C0
1C01C0
1C01C0
1C01C0
1C81C0
1F81C0
3E01C0
F801C0
E001C0
0001C0
0001C0
0001C0
000180
ENDCHAR
STARTCHAR C2343
ENCODING 9027
SWIDTH 400 0
DWIDTH 24 0
BBX 24 24 0 -2
BITMAP
0381C0
0381C0
0301C0
6301C0
3301C0
1B01C0
1F01C0
0F01C0
0301C0
0301C6
037FFF
0301C0
0301C0
0301C0
0301C0
0F01C0
3B01C0
F301C0
E301C0
4301C0
0301C0
0301C6
033FFE
030000
ENDCHAR
STARTCHAR C2344
ENCODING 9028
SWIDTH 400 0
DWIDTH 24 0
BBX 24 24 0 -2
BITMAP
01C000
01C000
0380E0
03FFE0
0781C0
0C4380
183F00
303E00
00F780
03C1FF
07107F
3C1C1C
E01800
0C3860
0FFFE0
0C1800
0C1800
0C1820
0FFFF0
0C3800
001800
001800
001800
001000
ENDCHAR
STARTCHAR C2345
ENCODING 9029
SWIDTH 400 0
DWIDTH 24 0
BBX 24 24 0 -2
BITMAP
0003C0
000FE0
01FE00
073000
003000
00700C
3FFFFE
00C300
018180
030060
06003C
1C001F
F1C38C
01C380
018300
018300
018300
018300
018300
018300
038300
030300
060300
0C0300
ENDCHAR
STARTCHAR C2346
ENCODING 9030
SWIDTH 400 0
DWIDTH 24 0
BBX 24 24 0 -2
BITMAP
003800
003800
00700C
3FFFFE
00E200
00C100
0180C0
038060
070038
0E001F
1C000F
3BC1C4
E38180
038180
03818E
7FFFFE
038180
038180
030180
030180
060180
060180
0C0180
180180
ENDCHAR
STARTCHAR C2347
ENCODING 9031
SWIDTH 400 0
DWIDTH 24 0
BBX 24 24 0 -2
BITMAP
060060
060060
060060
060060
060060
060060
064066
7FE7FE
060060
060060
060060
0C00E0
0F00F0
0D00F0
0D81F0
1CC198
18C198
186398
30630C
30730C
20360E
600C07
C01807
803000
ENDCHAR
STARTCHAR C2348
ENCODING 9032
SWIDTH 400 0
DWIDTH 24 0
BBX 24 24 0 -2
BITMAP
003800
003800
00300C
3FFFFE
006200
00C100
01C0C0
038060
070038
0E001F
1C000F
703804
C03800
003000
003006
FFFFFF
006400
006600
00C380
0181C0
0300F8
0E007F
1C001C
700008
ENDCHAR
STARTCHAR C2349
ENCODING 9033
SWIDTH 400 0
DWIDTH 24 0
BBX 24 24 0 -2
BITMAP
000020
380070
387FF8
300C30
320C30
330C30
FF8C30
FB0C30
330C30
330C30
330DB0
337FB0
730C30
660C30
660C30
E60C30
3C0C30
1E0C30
1F0C31
330C31
218C33
400C3F
800C3F
000C0E
ENDCHAR
STARTCHAR C234a
ENCODING 9034
SWIDTH 400 0
DWIDTH 24 0
BBX 24 24 0 -2
BITMAP
000380
380380
380320
300330
320318
330318
FF8300
FB0386
337FFE
330300
330300
330300
730180
660180
660180
E601C0
3C00C0
1E00E0
1F0061
330071
21803B
40001F
80000F
000007
ENDCHAR
STARTCHAR C234b
ENCODING 9035
SWIDTH 400 0
DWIDTH 24 0
BBX 24 24 0 -2
BITMAP
000E00
380E00
380C00
300C20
321C70
331FF8
FF9860
FB1860
333060
333060
3360C0
3340C0
7301C0
6601C0
6603C0
E60360
3C0320
1E0630
1F0C30
331818
21B01C
40600F
80C007
038000
ENDCHAR
STARTCHAR C234c
ENCODING 9036
SWIDTH 400 0
DWIDTH 24 0
BBX 24 24 0 -2
BITMAP
00C000
00C080
01C1C4
3FFFFE
038180
030380
060700
0FCE00
047F00
007BE0
03C078
1E003C
70800C
00E000
00C1C0
01C1C2
FFFFFF
030180
030300
07C600
007F00
007BE0
03C078
7E0038
ENDCHAR
STARTCHAR C234d
ENCODING 9037
SWIDTH 400 0
DWIDTH 24 0
BBX 24 24 0 -2
BITMAP
038300
038300
030300
630300
330300
1B0338
1F0338
0F073F
037FFF
030638
030638
030E38
030C30
030830
031830
0F1860
3B1F60
F301E0
E301F0
43039C
03070E
030E07
031803
03F001
ENDCHAR
STARTCHAR C234e
ENCODING 9038
SWIDTH 400 0
DWIDTH 24 0
BBX 24 24 0 -2
BITMAP
061860
061860
0C30C0
186180
0C30C0
061870
061830
000000
000180
07FFC0
000380
000600
000C00
001800
00180E
7FFFFE
001800
001800
001800
001800
001800
00F800
007800
003000
ENDCHAR
STARTCHAR C234f
ENCODING 9039
SWIDTH 400 0
DWIDTH 24 0
BBX 24 24 0 -2
BITMAP
006000
003000
203802
3FFFFF
600007
60E006
C0E00C
C0C000
00C380
01FFC0
018380
030300
060700
0C0600
180E00
000C00
001E00
003300
006380
00C1C0
0380F0
07007F
1C003F
70000C
ENDCHAR
STARTCHAR C2350
ENCODING 9040
SWIDTH 400 0
DWIDTH 24 0
BBX 24 24 0 -2
BITMAP
003000
001800
201802
3FFFFF
600007
600046
E3FFEC
C000E0
000060
000060
0600E0
07FFC0
060000
060030
0FFFF8
040038
000038
000038
000030
000030
000070
001FE0
0003C0
000180
ENDCHAR
STARTCHAR C2351
ENCODING 9041
SWIDTH 400 0
DWIDTH 24 0
BBX 24 24 0 -2
BITMAP
001000
001C00
001860
181870
0C1860
0618C0
0718C0
031980
031900
001818
3FFFFC
00000C
00000C
00000C
00000C
0FFFFC
00001C
00000C
00000C
00000C
00000C
3FFFFC
00001C
000008
ENDCHAR
STARTCHAR C2352
ENCODING 9042
SWIDTH 400 0
DWIDTH 24 0
BBX 24 24 0 -2
BITMAP
001000
001C00
001800
039900
0399C0
071860
0E1838
1C181C
38180C
701804
401800
001800
001000
000000
001C00
001800
001820
0FFFF0
001800
001800
001800
001800
003807
FFFFFF
ENDCHAR
STARTCHAR C2353
ENCODING 9043
SWIDTH 400 0
DWIDTH 24 0
BBX 24 24 0 -2
BITMAP
200000
30000C
3FFFFE
30000C
30000C
3FFFFC
30000C
300060
31FFF0
3000F0
3001C0
300300
300E00
300E00
300E0C
37FFFE
300E00
600E00
600E00
600E00
E00E00
C07E00
803C00
001800
ENDCHAR
STARTCHAR C2354
ENCODING 9044
SWIDTH 400 0
DWIDTH 24 0
BBX 24 24 0 -2
BITMAP
000020
040070
07FFF8
060030
060030
060030
060030
060030
07FFF0
060C20
060400
060600
0EC200
0C7300
0C3980
1C1CC0
180E60
38003C
30001F
20600E
403804
801C00
000C00
000600
ENDCHAR
STARTCHAR C2355
ENCODING 9045
SWIDTH 400 0
DWIDTH 24 0
BBX 24 24 0 -2
BITMAP
000000
0E0000
0C000C
0C1FFE
0C01C0
4C81C0
ECC1C0
ECC1C0
ECC1C0
ECC1C0
ECC1C0
ECC1C0
ECC1C0
ECC1C0
ECC1C0
ECC1C0
ECC1C0
ECC1C0
FFC1C0
0081C0
0001C2
003FFF
000000
000000
ENDCHAR
STARTCHAR C2356
ENCODING 9046
SWIDTH 400 0
DWIDTH 24 0
BBX 24 24 0 -2
BITMAP
000008
1E001C
1C1FFC
1C0038
1C0060
5D00C0
DD8180
DD8180
DD8180
DD8180
DD8186
DDFFFF
DD8180
DD8180
DD8180
DD8180
DD8180
DD8180
FF8180
010180
000180
001F80
000F00
000200
ENDCHAR
STARTCHAR C2357
ENCODING 9047
SWIDTH 400 0
DWIDTH 24 0
BBX 24 24 0 -2
BITMAP
000000
003800
003000
00600C
7FFFFE
00C300
01C180
0180C0
0300E0
060078
0C003C
18001F
30100C
C01C00
001800
101800
1C183C
181838
181838
181838
181838
181838
3FFFF8
100030
ENDCHAR
STARTCHAR C2358
ENCODING 9048
SWIDTH 400 0
DWIDTH 24 0
BBX 24 24 0 -2
BITMAP
000030
3FFFF0
000030
000030
000030
1FFFF0
180020
180004
180004
180004
1C000C
1FFFFC
0FFFF8
000000
001C00
001800
101810
1C1838
181838
181838
181838
181838
3FFFF8
100030
ENDCHAR
STARTCHAR C2359
ENCODING 9049
SWIDTH 400 0
DWIDTH 24 0
BBX 24 24 0 -2
BITMAP
000000
0E080C
0C0FFE
0C0C0E
0C0C0C
4C8C0C
ECCC0C
ECCC0C
ECCC0C
ECCC0C
ECCC0C
ECCFFC
ECCC0C
ECCC00
ECCC00
ECCC00
ECCC00
ECCC00
FFCC01
008C01
000C03
000FFF
000FFF
0003FE
ENDCHAR
STARTCHAR C235a
ENCODING 9050
SWIDTH 400 0
DWIDTH 24 0
BBX 24 24 0 -2
BITMAP
001800
001800
001800
30180C
30180C
30180C
30180C
30180C
30180C
7FFFFC
20001C
001008
001C00
001800
40180C
70180E
60180C
60180C
60180C
60180C
60180C
60180C
7FFFFC
00000C
ENDCHAR
STARTCHAR C235b
ENCODING 9051
SWIDTH 400 0
DWIDTH 24 0
BBX 24 24 0 -2
BITMAP
000000
1E0F00
1C0E00
1C0E00
1C0C00
1C1F00
1C19C0
1C30E0
1C6060
1DC020
1C0008
1FFFFC
081000
071CE0
0718C0
0618C0
0618C0
0618C0
0618C0
0C18C0
0C18C0
1818FE
30187F
60103F
ENDCHAR
STARTCHAR C235c
ENCODING 9052
SWIDTH 400 0
DWIDTH 24 0
BBX 24 24 0 -2
BITMAP
000000
070007
073FFF
0601C0
0601C0
4611CC
661FFE
3619CE
3619CC
3619CC
1619CC
0619CC
0619CC
0619CC
0619CC
0619CC
0619CC
0C19FC
0C19CC
1811C0
1801C0
3001C0
6001C0
000180
ENDCHAR
STARTCHAR C235d
ENCODING 9053
SWIDTH 400 0
DWIDTH 24 0
BBX 24 24 0 -2
BITMAP
1C0380
1C0380
1C0300
1C0300
1D8600
FFC470
DDCFF8
DD8C30
DD8C30
DD8C30
DD8C30
DD8C30
DD8C30
DD8C30
DD8C30
DF8C30
DF8C30
DF1830
1C1830
1C1831
1C3031
1C303F
1C603F
18C00E
ENDCHAR
STARTCHAR C235e
ENCODING 9054
SWIDTH 400 0
DWIDTH 24 0
BBX 24 24 0 -2
BITMAP
001800
000C00
300C06
3FFFFF
300000
303800
303800
303000
3030E0
307FE0
3060E0
30E0C0
30C1C0
308180
310380
300700
300700
300D80
3018C0
603060
606038
C1C01F
83800F
0E0006
ENDCHAR
STARTCHAR C235f
ENCODING 9055
SWIDTH 400 0
DWIDTH 24 0
BBX 24 24 0 -2
BITMAP
001800
000C00
300C06
3FFFFF
300000
300010
30FFF8
300600
300600
300600
300600
300604
33FFFE
300600
300600
300600
300600
300600
300600
600600
600600
C07E00
801E00
000C00
ENDCHAR
STARTCHAR C2360
ENCODING 9056
SWIDTH 400 0
DWIDTH 24 0
BBX 24 24 0 -2
BITMAP
001800
000C00
300C06
3FFFFF
300000
300060
3003F0
301F80
31FC00
300C00
300C00
300C00
300C04
300C0E
37FFFE
300C00
300C00
300C00
300C01
600C03
600C02
C00FFE
800FFE
0003FC
ENDCHAR
STARTCHAR C2361
ENCODING 9057
SWIDTH 400 0
DWIDTH 24 0
BBX 24 24 0 -2
BITMAP
000000
000000
040F77
7E0E66
0E0C66
0C0CCC
0C19CC
181998
181198
333330
3F6660
036730
033398
4319CC
660CCC
260E66
360666
1C0667
1C0222
1C0000
1F0000
33FFFF
60FFFC
007FF8
ENDCHAR
STARTCHAR C2362
ENCODING 9058
SWIDTH 400 0
DWIDTH 24 0
BBX 24 24 0 -2
BITMAP
000320
000338
00031C
00030C
000304
000302
FFFFFF
000300
000300
000300
003300
3FF180
000180
000180
0021C0
1FF0C0
0000C0
0000E0
000063
000863
7FFC32
00001E
00000E
000006
ENDCHAR
STARTCHAR C2363
ENCODING 9059
SWIDTH 400 0
DWIDTH 24 0
BBX 24 24 0 -2
BITMAP
020E00
070E00
FF8E00
030C00
030C04
031FFE
031806
7F1806
623006
602006
600606
E30306
FF8186
038186
0380C6
038006
038006
038006
03800E
03800C
03000C
7F01FC
1E0078
0C0030
ENDCHAR
STARTCHAR C2364
ENCODING 9060
SWIDTH 400 0
DWIDTH 24 0
BBX 24 24 0 -2
BITMAP
020000
07000C
FF9FFE
030000
030000
030000
030000
7F0007
627FFF
600300
600600
E30600
FF8E0C
038FFE
03800E
03800C
03800C
03800C
03800C
03800C
030018
7F03F8
1E00F0
0C0060
ENDCHAR
STARTCHAR C2365
ENCODING 9061
SWIDTH 400 0
DWIDTH 24 0
BBX 24 24 0 -2
BITMAP
000000
0000E0
0701C0
01C380
007700
003E00
003F00
00F3C0
01C1E0
070070
3C0030
200000
000000
020800
038C00
030600
23060C
230226
630027
630063
E380C3
C1FFE1
00FFC0
000000
ENDCHAR
STARTCHAR C2366
ENCODING 9062
SWIDTH 400 0
DWIDTH 24 0
BBX 24 24 0 -2
BITMAP
1C0000
1C000C
1C1FFC
1C0180
1C0180
1E0180
5F0180
5D8180
DD8180
DC8186
DC7FFF
9C0180
1C0180
1C0180
1C0180
1C0180
1C0180
1C0180
1C0180
1C0180
1C0180
1C0180
1C0180
180180
ENDCHAR
STARTCHAR C2367
ENCODING 9063
SWIDTH 400 0
DWIDTH 24 0
BBX 24 24 0 -2
BITMAP
1C01C0
1C01C0
181DC0
1819C0
1819C0
1819C0
5C19C6
5E19FE
DB1FC6
D979C6
D839CC
9819CC
1819CC
1819CC
1819C8
1819D8
1819D0
1819C0
181981
181801
181803
181FFF
181FFF
180FFE
ENDCHAR
STARTCHAR C2368
ENCODING 9064
SWIDTH 400 0
DWIDTH 24 0
BBX 24 24 0 -2
BITMAP
1C0004
1C000E
187FFF
180606
180606
180606
5C0606
5E0606
DB4606
D93606
D81E06
980E06
180E06
180F06
180F86
180DC6
1818C6
181806
18380E
18300C
18600C
18C3FC
198078
1F0030
ENDCHAR
STARTCHAR C2369
ENCODING 9065
SWIDTH 400 0
DWIDTH 24 0
BBX 24 24 0 -2
BITMAP
1C0000
1C3060
183FF0
183060
183060
183060
5C3060
5E3060
DB3060
D93060
D83060
9837E0
183060
183060
183060
183060
183060
187060
186061
186061
18C063
18C07F
19807F
1B003C
ENDCHAR
STARTCHAR C236a
ENCODING 9066
SWIDTH 400 0
DWIDTH 24 0
BBX 24 24 0 -2
BITMAP
007200
007300
0061C0
0060C0
006008
3FFFFC
006000
006000
006030
1FFFF0
007000
007004
3FFFFE
003040
0038F0
0019E0
001F82
000E02
001E06
007B84
00E1EC
0380FC
0E003E
70000E
ENDCHAR
STARTCHAR C236b
ENCODING 9067
SWIDTH 400 0
DWIDTH 24 0
BBX 24 24 0 -2
BITMAP
000300
000320
00031C
01830C
7FC304
018300
018300
018707
43BFFF
238300
330300
1B031C
0F031C
0E0318
0601B0
0701F0
0F80E0
0DC0C1
18C1E1
18C371
30463B
600C1F
C0180F
80F003
ENDCHAR
STARTCHAR C236c
ENCODING 9068
SWIDTH 400 0
DWIDTH 24 0
BBX 24 24 0 -2
BITMAP
1C0000
1C000C
1C3FFE
1C0000
1C0000
1D0000
7F0000
1C0007
1C7FFF
1C0300
1C0600
1F0600
1C0E0C
FC0FFE
FC000E
5C000C
1C000C
1C000C
1C000C
1C000C
1C0018
7C03F8
3800F0
180060
ENDCHAR
STARTCHAR C236d
ENCODING 9069
SWIDTH 400 0
DWIDTH 24 0
BBX 24 24 0 -2
BITMAP
1C0000
1C0038
1C3FF8
1C0E38
1C0E38
1D0E38
7F0E38
1C0E38
1C0E38
1C0E38
1C0E78
1F7FF8
1C0E38
FC0E38
FC0E38
5C0E18
1C0E18
1C0E19
1C0E19
1C0E0D
1C0E0F
7C0E0F
380E07
180C03
ENDCHAR
STARTCHAR C236e
ENCODING 9070
SWIDTH 400 0
DWIDTH 24 0
BBX 24 24 0 -2
BITMAP
1C0E00
1C0E00
1C0E00
1C0E00
1C0E00
1D0E20
7F7FF0
1C0E30
1C0E30
1C0E30
1C2E30
1F3E30
1C1E30
FC0E30
FC0F30
5C0FB0
1C0DB0
1C1830
1C1831
1C3031
1C3033
7C603F
38C03F
19800C
ENDCHAR
STARTCHAR C236f
ENCODING 9071
SWIDTH 400 0
DWIDTH 24 0
BBX 24 24 0 -2
BITMAP
1C01C0
1C01C0
1C0180
1C0180
1C0180
1D0180
7F0180
1C0180
1C018C
1C3FFE
1C0180
1F0180
1C0180
FC0180
FC0180
5C0180
1C0180
1C0180
1C0180
1C0180
1C0180
7C0186
38FFFF
180000
ENDCHAR
STARTCHAR C2370
ENCODING 9072
SWIDTH 400 0
DWIDTH 24 0
BBX 24 24 0 -2
BITMAP
003000
001800
00181C
3FFFFC
0301C0
01C380
00EE00
007C00
00FF80
03C3FF
1E007F
F1011C
03C1C0
038180
038180
038180
038180
030180
030180
060180
060180
0E0180
1C0180
300180
ENDCHAR
STARTCHAR C2371
ENCODING 9073
SWIDTH 400 0
DWIDTH 24 0
BBX 24 24 0 -2
BITMAP
3001C0
1801C0
1C0180
080180
00C180
FFC180
180180
180180
180180
1F8180
1B83C0
1B83C0
1383C0
338340
338360
338760
338620
238E30
638C38
639C18
63181E
DF300F
8E6006
0CC000
ENDCHAR
STARTCHAR C2372
ENCODING 9074
SWIDTH 400 0
DWIDTH 24 0
BBX 24 24 0 -2
BITMAP
000000
000006
413FFF
FF8307
E38307
E38307
E38307
E38307
E38307
E38307
E38307
FF8307
E38307
E38307
E38607
E38607
E38607
E38C07
FF8C06
C1180E
00300C
0061FC
00C078
018030
ENDCHAR
STARTCHAR C2373
ENCODING 9075
SWIDTH 400 0
DWIDTH 24 0
BBX 24 24 0 -2
BITMAP
0001C0
0001C0
4101C0
FF81C0
E381C0
E381C0
E381C0
E381C0
E381C2
E3BFFF
E381C0
FF81C0
E381C0
E381C0
E381C0
E381C0
E381C0
E381C0
FF81C0
C101C0
0001C0
0001C0
0001C0
000180
ENDCHAR
STARTCHAR C2374
ENCODING 9076
SWIDTH 400 0
DWIDTH 24 0
BBX 24 24 0 -2
BITMAP
001800
001800
001800
001800
103838
1FFFF8
181838
181838
181838
1FFFF8
181838
181838
181838
1FFFF8
183C30
107400
006600
00E300
00C380
0181C0
0300F8
06007F
1C000E
700004
ENDCHAR
STARTCHAR C2375
ENCODING 9077
SWIDTH 400 0
DWIDTH 24 0
BBX 24 24 0 -2
BITMAP
0E0000
0E0006
0C3FFF
0C0307
0C0307
0D8307
FFC307
0C0307
1C0307
1E0307
1F0307
3D8307
3D8307
3C0307
6C0607
6C0607
CC0607
8C0C07
0C0C06
0C180E
0C300C
0C61FC
0CC078
0D8030
ENDCHAR
STARTCHAR C2376
ENCODING 9078
SWIDTH 400 0
DWIDTH 24 0
BBX 24 24 0 -2
BITMAP
0E0020
0E0070
0C3FF8
0C0E30
0C0E30
0D8E70
7FCE60
0C0E60
1C0E64
1E0CFE
1F0C46
3D8C06
3D8C06
3C1806
6C1806
6C1806
CC1806
8C3006
0C300E
0C600C
0C600C
0CC1FC
0C8078
0D0030
ENDCHAR
STARTCHAR C2377
ENCODING 9079
SWIDTH 400 0
DWIDTH 24 0
BBX 24 24 0 -2
BITMAP
0E0380
0E0380
0C0300
0C0300
0C0300
0D8300
7FC300
0C0300
1C0300
1E0380
1F0380
3D8380
3D83C0
3C0240
6C0640
6C0660
CC0E60
8C0C30
0C0C30
0C1818
0C181E
0C300F
0C6006
0CC000
ENDCHAR
STARTCHAR C2378
ENCODING 9080
SWIDTH 400 0
DWIDTH 24 0
BBX 24 24 0 -2
BITMAP
000100
000380
1FFFC0
00C180
00C300
00C20C
0187FE
01800C
03000C
03000C
06000C
0C03F8
380070
601020
001C00
001806
FFFFFF
001800
031880
071860
0E1838
18181C
30180C
401004
ENDCHAR
STARTCHAR C2379
ENCODING 9081
SWIDTH 400 0
DWIDTH 24 0
BBX 24 24 0 -2
BITMAP
000E00
000E00
000E00
030C00
7F8C00
039C0E
039FFF
03198C
433188
632190
330180
160180
1E03C0
0E03C0
0E0340
0F0360
0F0660
1B8630
198C38
30CC1C
30181E
60300F
C06007
818000
ENDCHAR
STARTCHAR C237a
ENCODING 9082
SWIDTH 400 0
DWIDTH 24 0
BBX 24 24 0 -2
BITMAP
060000
060000
060008
0FFFFC
0C0000
180000
180000
360060
67FFF0
061860
061860
061860
061862
FFFFFF
061860
061860
061860
0C1860
0FFFFE
0C00C0
0000C0
001FC0
000780
000300
ENDCHAR
STARTCHAR C237b
ENCODING 9083
SWIDTH 400 0
DWIDTH 24 0
BBX 24 24 0 -2
BITMAP
000000
078020
1FBFF0
7C0E30
1C0E30
1C0E60
1C0E60
1D8E64
7F8EFE
1C0C46
1C0C06
1C0C06
1C0C06
1D9806
FF980E
1C180C
1C300C
1C301C
1C61F9
1CC031
1C0023
0FFFFF
07FFFF
03FFFE
ENDCHAR
STARTCHAR C237c
ENCODING 9084
SWIDTH 400 0
DWIDTH 24 0
BBX 24 24 0 -2
BITMAP
000070
1801F8
1C1FC0
0C3B00
040300
010300
810300
E20300
720306
36FFFF
360300
040300
0C0300
080300
180300
180300
300300
F00300
300300
300300
380300
380300
380300
100300
ENDCHAR
STARTCHAR C237d
ENCODING 9085
SWIDTH 400 0
DWIDTH 24 0
BBX 24 24 0 -2
BITMAP
000010
180078
0C01F8
0C0F80
003F00
010300
810300
E20300
720300
360300
060306
04FFFE
0C0300
080300
180300
180300
300300
F00300
300301
300301
380303
3803FF
3803FF
1001FE
ENDCHAR
STARTCHAR C237e
ENCODING 9086
SWIDTH 400 0
DWIDTH 24 0
BBX 24 24 0 -2
BITMAP
000000
180F00
0C0E00
0C0C00
000C08
011FFC
81181C
E21818
723C18
366C38
064438
048630
0C0630
080260
180360
1803E0
3001C0
F003C0
300360
300670
380C3C
38181F
38700E
11C004
ENDCHAR
STARTCHAR C2421
ENCODING 9249
SWIDTH 400 0
DWIDTH 24 0
BBX 24 24 0 -2
BITMAP
001800
001800
001820
019870
3FF8E0
01DE00
039B00
0319C0
0618F8
1C383F
31F80C
E07000
002000
001000
001C00
001800
003800
003400
006600
00C380
0381F0
07007F
1C003F
70000E
ENDCHAR
STARTCHAR C2422
ENCODING 9250
SWIDTH 400 0
DWIDTH 24 0
BBX 24 24 0 -2
BITMAP
070380
070380
060300
060300
0C0300
0C0308
1C031C
1C1318
3DFBB0
7C1BE0
7C1BC0
DC33C0
1C3340
1C3360
1C7320
1C6330
1C6318
1CC31C
1CC30E
1D830F
1D0307
1E1F02
1C0F00
180600
ENDCHAR
STARTCHAR C2423
ENCODING 9251
SWIDTH 400 0
DWIDTH 24 0
BBX 24 24 0 -2
BITMAP
000000
180018
0C3FFC
0C0300
000300
010600
810600
E30607
72FFFF
360E00
060C00
040C08
0C0FFC
08081C
18000C
18000C
30000C
F0000C
30001C
300018
380038
3803F0
3801E0
100040
ENDCHAR
STARTCHAR C2424
ENCODING 9252
SWIDTH 400 0
DWIDTH 24 0
BBX 24 24 0 -2
BITMAP
000000
180018
0C3FFC
0C001C
000018
010018
810018
E20018
720018
360018
067018
047FF8
0C7010
087000
187000
187000
307000
F07001
307001
307001
387003
387FFF
383FFF
101FFC
ENDCHAR
STARTCHAR C2425
ENCODING 9253
SWIDTH 400 0
DWIDTH 24 0
BBX 24 24 0 -2
BITMAP
000008
18001C
0C3FFC
0C0038
000060
0100C0
810180
E20180
720180
360180
060186
05FFFF
0C0180
080180
180180
180180
300180
F00180
300180
300180
380180
381F80
380F00
100200
ENDCHAR
STARTCHAR C2426
ENCODING 9254
SWIDTH 400 0
DWIDTH 24 0
BBX 24 24 0 -2
BITMAP
000000
1E0006
1C3FFF
1C01C0
1C01C0
9DC1C0
DF81C0
5F01C0
7E01C0
7C01C0
3C01C0
1C01C0
1C01C0
1C01C0
1801C0
1C01C0
1E01C0
3B01C0
3381C0
3181C0
2181C0
600FC0
C00780
800300
ENDCHAR
STARTCHAR C2427
ENCODING 9255
SWIDTH 400 0
DWIDTH 24 0
BBX 24 24 0 -2
BITMAP
07000E
07000E
06000C
06000C
067B8C
66738C
36630C
36C30C
16C30C
17830C
06030C
06030C
06030C
06030C
06030C
07030C
0C830C
0CC00C
1C600C
18700C
38300C
3031FC
60003C
C00018
ENDCHAR
STARTCHAR C2428
ENCODING 9256
SWIDTH 400 0
DWIDTH 24 0
BBX 24 24 0 -2
BITMAP
001800
081870
0E1870
0718E0
031980
033800
003400
007600
00E300
01C1C0
0380F8
0E007F
380018
E18300
01C380
018300
018300
018300
030301
030303
060302
0C03FE
3801FE
6000FC
ENDCHAR
STARTCHAR C2429
ENCODING 9257
SWIDTH 400 0
DWIDTH 24 0
BBX 24 24 0 -2
BITMAP
000000
300007
3FFFFF
300000
300F00
300E00
300E00
300E3C
310E38
308E30
30CE60
306E40
306E80
300E00
300F00
300F00
201900
601980
6030C0
607060
C0E03C
C1C01F
83000C
0C0000
ENDCHAR
STARTCHAR C242a
ENCODING 9258
SWIDTH 400 0
DWIDTH 24 0
BBX 24 24 0 -2
BITMAP
000020
300070
3FFFF8
300030
303830
303030
303130
3631B0
3333B0
33B330
31B230
31B430
303030
303030
307830
306830
306831
30CC39
31C639
218319
63039F
C601EF
9C00C7
100043
ENDCHAR
STARTCHAR C242b
ENCODING 9259
SWIDTH 400 0
DWIDTH 24 0
BBX 24 24 0 -2
BITMAP
038000
038000
070002
07FFFF
060007
0C0007
183807
303807
603087
4431E7
0631C7
033387
03B306
013206
00780E
0068FC
006C78
00C630
01C700
038380
0701E0
0E00FC
180078
600010
ENDCHAR
STARTCHAR C242c
ENCODING 9260
SWIDTH 400 0
DWIDTH 24 0
BBX 24 24 0 -2
BITMAP
040E00
860E00
4C0C00
380C00
380C00
380C60
4C7FF0
8C0C70
0C0C60
0E0C60
0E4C60
1E3C60
1E1C60
360E60
661F60
C61B60
061B60
061960
063061
063061
0E6063
7C407F
3C803F
19001C
ENDCHAR
STARTCHAR C242d
ENCODING 9261
SWIDTH 400 0
DWIDTH 24 0
BBX 24 24 0 -2
BITMAP
040060
860060
4C0060
380060
380060
380060
4C0066
8C3FFF
0C00E0
0E00E0
0E01E0
1E01E0
1E0360
360360
660660
C60C60
060C60
061860
063060
066060
0E0060
7C07E0
3C03C0
180180
ENDCHAR
STARTCHAR C242e
ENCODING 9262
SWIDTH 400 0
DWIDTH 24 0
BBX 24 24 0 -2
BITMAP
000000
000100
0101C0
FF8180
1C0180
1C0180
1C0300
1C0300
1C0300
1C0300
7F0300
1C0600
1C0600
1C0660
1C0E30
1C0C18
1C0C0C
1F980C
FE1806
F03007
607FFF
007F03
003001
001000
ENDCHAR
STARTCHAR C242f
ENCODING 9263
SWIDTH 400 0
DWIDTH 24 0
BBX 24 24 0 -2
BITMAP
000300
000300
010300
FF8300
1C0300
1C0304
1C3FFE
1C0706
1C0306
1C0306
7F0306
1C0306
1C0306
1C0606
1C0606
1C0E06
1C0C06
1F8C06
FE180C
F0180C
60300C
0061FC
00C078
018030
ENDCHAR
STARTCHAR C2430
ENCODING 9264
SWIDTH 400 0
DWIDTH 24 0
BBX 24 24 0 -2
BITMAP
000380
000380
018300
7FC300
0C0300
0C0300
0C0300
0C0380
0C03E0
0C0370
7F8338
0C031C
0C030E
0C030E
0C0306
0C0302
0C0300
0F8300
7E0300
700300
600300
000300
000300
000300
ENDCHAR
STARTCHAR C2431
ENCODING 9265
SWIDTH 400 0
DWIDTH 24 0
BBX 24 24 0 -2
BITMAP
00000E
00000E
00C00C
7FE30C
06030C
06030C
06030C
06030C
06030C
06030C
7FC30C
06030C
06030C
06030C
06030C
06030C
06030C
07C20C
FE000C
F0000C
60000C
00007C
00003C
000018
ENDCHAR
STARTCHAR C2432
ENCODING 9266
SWIDTH 400 0
DWIDTH 24 0
BBX 24 24 0 -2
BITMAP
000004
00000E
7FFFFE
001800
001800
003600
006380
00C0E0
018070
030038
060018
3C0008
F00020
0FFFF0
0C0030
0C0030
0C0030
0C0030
0C0030
0C0030
0C0030
0FFFF0
0C0030
0C0020
ENDCHAR
STARTCHAR C2433
ENCODING 9267
SWIDTH 400 0
DWIDTH 24 0
BBX 24 24 0 -2
BITMAP
180700
0C0700
0C0600
040600
038600
7FC600
038600
030600
060600
0E0600
0C0600
1F0600
3D8600
2D8600
4C8600
8C0600
0C0600
0C0601
0C0601
0C0603
0C0603
0C07FF
0C03FF
0C01FC
ENDCHAR
STARTCHAR C2434
ENCODING 9268
SWIDTH 400 0
DWIDTH 24 0
BBX 24 24 0 -2
BITMAP
003000
001800
001800
001818
3FFFFC
000000
000030
060070
030060
0380C0
018180
008302
FFFFFF
003800
001800
001800
001800
001800
001800
001800
001800
001800
001800
001000
ENDCHAR
STARTCHAR C2435
ENCODING 9269
SWIDTH 400 0
DWIDTH 24 0
BBX 24 24 0 -2
BITMAP
000700
238700
3F8600
338600
338600
338620
33BFF0
3F8630
378630
338630
338630
338630
338630
378630
3F8E30
6B8E30
638C30
638C30
638830
639831
C39031
DFB03F
8F603F
06C00E
ENDCHAR
STARTCHAR C2436
ENCODING 9270
SWIDTH 400 0
DWIDTH 24 0
BBX 24 24 0 -2
BITMAP
000000
200006
3FFFFF
600007
E00004
E00008
4600C0
07FFE0
0600C0
0600C0
06E0C0
063CC0
060EC0
0600C0
0600C0
060FC0
067CC0
06F0C0
06C0C0
0C00C0
0C00C0
180FC0
3003C0
600180
ENDCHAR
STARTCHAR C2437
ENCODING 9271
SWIDTH 400 0
DWIDTH 24 0
BBX 24 24 0 -2
BITMAP
0700E0
0700E0
0660C2
FFE7FF
0600C0
0600C0
000000
00000C
3FFFFC
018000
030000
030020
07FFF0
060030
000030
000030
000030
000030
000070
000060
000060
000FE0
0003C0
000180
ENDCHAR
STARTCHAR C2438
ENCODING 9272
SWIDTH 400 0
DWIDTH 24 0
BBX 24 24 0 -2
BITMAP
0700E0
0700E0
0660C2
FFE7FF
0600C0
0600C0
003800
003800
003000
003000
003038
1FFFFC
003018
003018
007018
007018
006018
00E018
00C038
00C038
018030
0307F0
0C01E0
3000C0
ENDCHAR
STARTCHAR C2439
ENCODING 9273
SWIDTH 400 0
DWIDTH 24 0
BBX 24 24 0 -2
BITMAP
0700E0
0700E0
0660C2
FFE7FF
0600C0
0600C0
000000
000800
000C00
000600
01C600
018600
018200
038300
030300
030180
0601C0
0600E0
0E0070
0C0078
18003E
30001F
60000E
000004
ENDCHAR
STARTCHAR C243a
ENCODING 9274
SWIDTH 400 0
DWIDTH 24 0
BBX 24 24 0 -2
BITMAP
001800
001800
001810
1FFFF8
003800
001800
001800
001804
7FFFFE
000000
0000C0
1C01E0
070380
030700
038E00
013800
007000
00E000
038000
060000
3F0000
39FFFF
107FFC
001FF0
ENDCHAR
STARTCHAR C243b
ENCODING 9275
SWIDTH 400 0
DWIDTH 24 0
BBX 24 24 0 -2
BITMAP
000200
000380
700300
380300
1C030C
007FFE
00030E
00030C
0C030C
FE060C
1C060C
180E0C
300C0C
3E0C0C
7F180C
46181C
0C3018
0C63F8
18C0F0
398060
7F0000
E7FFFF
007FFC
001FF8
ENDCHAR
STARTCHAR C243c
ENCODING 9276
SWIDTH 400 0
DWIDTH 24 0
BBX 24 24 0 -2
BITMAP
000100
07018C
0701FE
06018C
06018C
462198
767190
6671B0
6671B0
667198
66718C
667184
667186
667186
667187
667187
667187
6671FE
7FF19C
002188
000180
000180
000180
000180
ENDCHAR
STARTCHAR C243d
ENCODING 9277
SWIDTH 400 0
DWIDTH 24 0
BBX 24 24 0 -2
BITMAP
000100
0E018C
0C01FE
0C718C
0C718C
0C7198
FFFD90
FC71B0
7C71B0
1C7198
1C618C
186184
186186
18C186
30C187
3DC187
378187
03C1FE
07E19E
06718C
0C3980
181980
600180
800180
ENDCHAR
STARTCHAR C243e
ENCODING 9278
SWIDTH 400 0
DWIDTH 24 0
BBX 24 24 0 -2
BITMAP
000008
E6001C
FF1FFC
E60038
E60060
E400C0
EC0180
E80180
E80180
EC0180
E60186
E6FFFF
E70180
E30180
E30180
E30180
E70180
FE0180
E60180
E00180
E00180
E01F80
E00F00
C00200
ENDCHAR
STARTCHAR C243f
ENCODING 9279
SWIDTH 400 0
DWIDTH 24 0
BBX 24 24 0 -2
BITMAP
000004
00000E
7FFFFE
018300
018300
41830C
7FFFFE
61838E
61830C
61830C
61830C
61830C
63C38C
63638C
63764C
63364C
66146C
660C7C
6C083C
68100C
60000C
6000FC
60003C
600018
ENDCHAR
STARTCHAR C2440
ENCODING 9280
SWIDTH 400 0
DWIDTH 24 0
BBX 24 24 0 -2
BITMAP
00E380
03E380
1F8300
7E0300
060300
060300
060300
077300
FFF300
060300
060300
060300
060300
677300
7FF300
607300
607300
607301
607301
607303
607303
7FF3FF
6021FF
0000FC
ENDCHAR
STARTCHAR C2441
ENCODING 9281
SWIDTH 400 0
DWIDTH 24 0
BBX 24 24 0 -2
BITMAP
004008
00601C
007FFC
00600C
02600C
FF600C
00600C
00600C
00600C
00600C
007FFC
006EC8
000EC0
000EC0
000EC0
FF0CC0
000CC0
001CC1
0018C1
0018C1
0030C3
0060FF
00C07F
07003E
ENDCHAR
STARTCHAR C2442
ENCODING 9282
SWIDTH 400 0
DWIDTH 24 0
BBX 24 24 0 -2
BITMAP
000008
00001C
3FFFFC
00C300
00C300
00C300
00C300
31C738
3FFFFC
30C318
30C318
30C318
30C318
30C318
30C318
3FFFF8
30C318
00C300
00C300
00C300
00C300
00C306
FFFFFF
000000
ENDCHAR
STARTCHAR C2443
ENCODING 9283
SWIDTH 400 0
DWIDTH 24 0
BBX 24 24 0 -2
BITMAP
070380
070380
060300
060300
0C03B8
0C7FF8
1C0300
1C0300
3C0300
7C0300
7C038C
DCFFFC
1C0780
1C0780
1C0FC0
1C0F60
1C1B30
1C1338
1C331F
1C630F
1CC306
1F8300
1C0300
180300
ENDCHAR
STARTCHAR C2444
ENCODING 9284
SWIDTH 400 0
DWIDTH 24 0
BBX 24 24 0 -2
BITMAP
0701C0
0701C0
0601C0
0601C0
0C21C6
0C7FFF
1C71C7
1C71C4
3C71C8
7C71C0
7C71C8
DC7FFC
1C741C
1C7418
1C7238
1C6330
1C6160
1CE1E0
1CC1C0
1CC1E0
1C8338
1D861F
1D0C0F
183004
ENDCHAR
STARTCHAR C2445
ENCODING 9285
SWIDTH 400 0
DWIDTH 24 0
BBX 24 24 0 -2
BITMAP
038000
039030
071FF8
061838
061838
0C1838
1C1838
1C1838
3C1838
3C1FF8
7C1838
5C1838
9C1838
1C1838
1C1838
1C1FF8
1C1838
1C1838
1C1838
1C1838
1C1838
1C183A
1DFFFF
180000
ENDCHAR
STARTCHAR C2446
ENCODING 9286
SWIDTH 400 0
DWIDTH 24 0
BBX 24 24 0 -2
BITMAP
0381C0
0381C0
070180
060180
060180
0C0180
1C6186
1C7FFE
3C6186
3C6186
7C6186
5C6186
9C6186
1C6186
1C7FFE
1C6186
1C6186
1C6186
1C6186
1C6186
1C6186
1C7FFE
1C6006
186004
ENDCHAR
STARTCHAR C2447
ENCODING 9287
SWIDTH 400 0
DWIDTH 24 0
BBX 24 24 0 -2
BITMAP
0700E0
0720E0
0670C0
0660C0
0C60C0
0CC0C2
18C3FF
1998C7
399CC7
7B18C7
7BB8C7
D8F0C7
1860C7
1860C7
18D1C7
18D9C7
198D87
1BFD87
1BC706
190306
18060E
180CFC
181878
183030
ENDCHAR
STARTCHAR C2448
ENCODING 9288
SWIDTH 400 0
DWIDTH 24 0
BBX 24 24 0 -2
BITMAP
070000
07300C
063FFE
06300C
0C300C
0C300C
1C300C
1C3FFC
3C300C
7C3200
7C3380
DC3300
1C3300
1C330C
1C33FE
1C7300
1C7300
1C6300
1C6301
1CC301
1CC303
1CC3FF
1D83FF
1801FE
ENDCHAR
STARTCHAR C2449
ENCODING 9289
SWIDTH 400 0
DWIDTH 24 0
BBX 24 24 0 -2
BITMAP
070000
070004
067FFE
0601C0
0C01C0
0C01C0
1C01C0
1C01C0
3C11C0
7C1DC0
7C19C4
DC19FE
1C19C0
1C19C0
1C19C0
1C19C0
1C19C0
1C19C0
1C19C0
1C19C0
1C19C0
1C19C6
1CFFFF
180000
ENDCHAR
STARTCHAR C244a
ENCODING 9290
SWIDTH 400 0
DWIDTH 24 0
BBX 24 24 0 -2
BITMAP
070000
070007
067FFF
060180
0C0180
0C0180
1C6186
1C7FFE
3C6186
7C6186
7C63C6
DC6366
1C6336
1C6636
1C663E
1C6C1E
1C7806
1C7006
1C6006
1C6006
1C6006
1C607E
1C603C
186008
ENDCHAR
STARTCHAR C244b
ENCODING 9291
SWIDTH 400 0
DWIDTH 24 0
BBX 24 24 0 -2
BITMAP
071020
071C38
061830
061830
0C1830
0C1836
1DFFFF
1C1830
3C1830
7C1830
7C1830
DC1830
1C1830
1C1FF0
1C1830
1C1830
1C1830
1C1830
1C1830
1C1830
1C1830
1C1FF0
1C1820
181000
ENDCHAR
STARTCHAR C244c
ENCODING 9292
SWIDTH 400 0
DWIDTH 24 0
BBX 24 24 0 -2
BITMAP
070004
07000E
067FFF
060306
0C0306
0C0606
1C0606
1C0606
3C0C0E
7C0C7C
7C183C
DC3018
1C6000
1CF00C
1D9FFE
1C180C
1C180C
1C180C
1C180C
1C180C
1C180C
1C1FFC
1C180C
181000
ENDCHAR
STARTCHAR C244d
ENCODING 9293
SWIDTH 400 0
DWIDTH 24 0
BBX 24 24 0 -2
BITMAP
070000
077038
067FF8
067038
0C7638
0C7338
1C71B8
1C71B8
3C7038
7C703A
7DFFFF
DC6038
1C6038
1C6638
1C6338
1C61B8
1C61B8
1C6038
1C7FFE
1C4030
1C0030
1C03E0
1C01E0
1800C0
ENDCHAR
STARTCHAR C244e
ENCODING 9294
SWIDTH 400 0
DWIDTH 24 0
BBX 24 24 0 -2
BITMAP
070000
071008
061FFC
06180C
0C180C
0C180C
1C180C
1C180C
3C180C
7C1FFC
7C1808
DC1800
1C1804
1C180E
1C1FFF
1C1806
1C1806
1C1806
1C1806
1C1806
1C1806
1C1FFE
1C1804
181000
ENDCHAR
STARTCHAR C244f
ENCODING 9295
SWIDTH 400 0
DWIDTH 24 0
BBX 24 24 0 -2
BITMAP
070000
070006
067FFF
066667
0C6667
0C6667
1C6667
1C6667
3C6667
7C6667
7C6667
DC6667
1C6E77
1C6C7F
1C7C3F
1C7807
1C6007
1C6007
1C6007
1C6007
1C6007
1C7FFF
1C6002
184000
ENDCHAR
STARTCHAR C2450
ENCODING 9296
SWIDTH 400 0
DWIDTH 24 0
BBX 24 24 0 -2
BITMAP
070700
070700
060600
060F00
0C0D80
0C1CC0
1C1860
1C3038
3C621F
7CC38F
7D8304
DE0300
1C0300
1C7B60
1C7330
1C6318
1C630C
1CC30C
1CC30E
1D8306
1F0300
1C3F00
1C1E00
180C00
ENDCHAR
STARTCHAR C2451
ENCODING 9297
SWIDTH 400 0
DWIDTH 24 0
BBX 24 24 0 -2
BITMAP
0401C0
0601C0
030380
018300
00C600
000440
07FFE0
0600E0
060060
060060
060060
060060
060060
0600E0
07FFC0
04C600
00C600
00C601
01C601
038601
070603
0E07FF
1803FF
6001FE
ENDCHAR
STARTCHAR C2452
ENCODING 9298
SWIDTH 400 0
DWIDTH 24 0
BBX 24 24 0 -2
BITMAP
000000
0001C0
0FFFE0
0180C0
0300C0
0301C0
060F80
0C0300
1FFFF0
3C1830
0C1830
0C1830
0C1830
0C3830
0FFFF0
083700
003600
006601
006601
00C601
018603
0707FF
1C03FF
7001FC
ENDCHAR
STARTCHAR C2453
ENCODING 9299
SWIDTH 400 0
DWIDTH 24 0
BBX 24 24 0 -2
BITMAP
000000
0E1838
0C1FFC
0C1818
0C1818
0C1818
0C1FF8
0C1C18
0C1818
0C1818
0C1818
0C1818
0C1FF8
0C1818
010300
01C380
018300
018300
018301
030301
070303
0E03FF
1801FF
6000FE
ENDCHAR
STARTCHAR C2454
ENCODING 9300
SWIDTH 400 0
DWIDTH 24 0
BBX 24 24 0 -2
BITMAP
000100
0007C0
007FC0
07F800
001800
001800
101800
183838
1FFFF8
181838
181838
181838
181838
1FFFF0
183E00
107E00
006E60
00EE30
00CE39
018E19
030E03
060FFF
1C07FF
7003FC
ENDCHAR
STARTCHAR C2455
ENCODING 9301
SWIDTH 400 0
DWIDTH 24 0
BBX 24 24 0 -2
BITMAP
000000
000004
7FFFFE
601806
601806
641906
661986
621886
6318C6
6318C6
6318C6
6799E6
6799E6
659926
6CDB36
68FE36
70DC36
601806
601806
601806
601806
60187E
60183C
601008
ENDCHAR
STARTCHAR C2456
ENCODING 9302
SWIDTH 400 0
DWIDTH 24 0
BBX 24 24 0 -2
BITMAP
000000
080038
1FFFF8
1C1038
1C1C38
1C1838
1C1838
1C3838
1C3438
1C7638
1C6338
1CE1B8
1DC1F8
1F80B8
1E003A
FFFFFF
000000
020000
0380C0
070070
0E001C
1C000E
300006
600000
ENDCHAR
STARTCHAR C2457
ENCODING 9303
SWIDTH 400 0
DWIDTH 24 0
BBX 24 24 0 -2
BITMAP
000000
200006
3FFFFF
600007
E00004
E00008
420180
03FFC0
0301C0
0301C0
0301C0
0301C0
03FFC0
0301C0
0301C0
0301C0
0301C0
03FFC0
0301C0
0301C0
0301C0
0301C6
7FFFFE
000000
ENDCHAR
STARTCHAR C2458
ENCODING 9304
SWIDTH 400 0
DWIDTH 24 0
BBX 24 24 0 -2
BITMAP
000000
000006
71FFFF
380600
180600
0C0600
020E00
020C00
060C00
060C00
04180C
0C1FFE
18380E
18380C
38780C
F0780C
F0D80C
70980C
31180C
30180C
38180C
381FFC
10180C
000000
ENDCHAR
STARTCHAR C2459
ENCODING 9305
SWIDTH 400 0
DWIDTH 24 0
BBX 24 24 0 -2
BITMAP
004008
00601C
607FFC
30600C
38600C
18600C
02600C
06600C
04600C
0C7FFC
0C6EDC
184EC8
180EC0
100CC0
300CC0
F00CC0
F018C0
6018C1
3038C1
3030C1
3060E3
30C0FF
33807F
020000
ENDCHAR
STARTCHAR C245a
ENCODING 9306
SWIDTH 400 0
DWIDTH 24 0
BBX 24 24 0 -2
BITMAP
000380
000380
60C30E
30631C
383318
183B38
021B30
061B60
04030C
0CFFFE
0C0300
180300
180300
100300
300306
F1FFFF
F00300
600300
300300
300300
300300
300300
300300
000300
ENDCHAR
STARTCHAR C245b
ENCODING 9307
SWIDTH 400 0
DWIDTH 24 0
BBX 24 24 0 -2
BITMAP
100030
1FFFF0
180030
180030
180330
1BFFB0
180030
180030
190730
19FF30
198330
198330
198330
198330
19FF30
198330
198330
318339
318339
318719
61FF1F
41020F
800007
000003
ENDCHAR
STARTCHAR C245c
ENCODING 9308
SWIDTH 400 0
DWIDTH 24 0
BBX 24 24 0 -2
BITMAP
070007
070007
060006
0C00E6
0C00E6
1840C6
1820C6
3010C6
2018C6
61FCC6
FF0CC6
F80CC6
6004C6
0030C6
3FF8C6
3038C6
3030C6
3030C6
303006
303006
303006
3FF07E
30303C
200008
ENDCHAR
STARTCHAR C245d
ENCODING 9309
SWIDTH 400 0
DWIDTH 24 0
BBX 24 24 0 -2
BITMAP
060000
060006
061FFF
060187
0EC187
3FC187
060187
060187
060187
060187
0E7187
FFF187
0C0187
0C0307
188307
18C307
306307
307306
7FF606
7C360E
700C1C
0008FC
001038
002000
ENDCHAR
STARTCHAR C245e
ENCODING 9310
SWIDTH 400 0
DWIDTH 24 0
BBX 24 24 0 -2
BITMAP
038007
038007
030006
0300E6
0300E6
0330C6
7FF8C6
0300C6
0300C6
0300C6
0300C6
0318C6
FFFCC6
0600C6
0600C6
0E00C6
0C00C6
1C60C6
183006
303806
67F806
FE1C7E
700C3C
200008
ENDCHAR
STARTCHAR C245f
ENCODING 9311
SWIDTH 400 0
DWIDTH 24 0
BBX 24 24 0 -2
BITMAP
001007
003807
7FF806
0C18E6
0C18E6
0C18C6
1C18C6
1818C6
1838C6
3030C6
33F0C6
60E0C6
C0C0C6
8070C6
7FF8C6
6030C6
6030C6
6030C6
603006
603006
603006
7FF07E
60303C
000008
ENDCHAR
STARTCHAR C2460
ENCODING 9312
SWIDTH 400 0
DWIDTH 24 0
BBX 24 24 0 -2
BITMAP
000007
207007
3FF806
3030E6
3030E6
3030C6
3030C6
3030C6
3FF0C6
3620C6
0600C6
0610C6
7FF8C6
0E38C6
0618C6
0E18C6
0C18C6
0C18C6
181806
183806
303006
33E07E
63C03C
008008
ENDCHAR
STARTCHAR C2461
ENCODING 9313
SWIDTH 400 0
DWIDTH 24 0
BBX 24 24 0 -2
BITMAP
000007
264E07
3F7E06
366E66
366E66
366E66
366E66
366E66
366E66
366E66
366E66
FFFF66
366E66
366E66
366E66
366E66
366E66
366E46
366E06
366E06
366E06
366E7E
3E7E3C
266C08
ENDCHAR
STARTCHAR C2462
ENCODING 9314
SWIDTH 400 0
DWIDTH 24 0
BBX 24 24 0 -2
BITMAP
004038
107038
0C3830
061860
061C60
020CC0
000180
200007
7FFFFF
E04006
C0700C
C06008
006020
006070
1FFFF8
006030
00C030
00C030
01C030
018060
030060
061FE0
1C03C0
700180
ENDCHAR
STARTCHAR C2463
ENCODING 9315
SWIDTH 400 0
DWIDTH 24 0
BBX 24 24 0 -2
BITMAP
0700E0
0700E0
0600C2
FFFFFF
0600C0
0600C0
000000
200007
7FFFFF
E04006
C0700C
C06008
006020
006070
1FFFF8
006030
00C030
00C030
01C030
018060
030060
061FE0
1C03C0
700180
ENDCHAR
STARTCHAR C2464
ENCODING 9316
SWIDTH 400 0
DWIDTH 24 0
BBX 24 24 0 -2
BITMAP
0601C0
0601C0
0601C0
66C1C0
66C1C0
66C1C0
66C1C6
66DFFF
66C1C7
7FC1C7
6EC1C7
0601C7
0641C7
E661C7
E66187
E66187
E66307
E66307
E66306
EE6606
FFE60E
004C7C
001838
007030
ENDCHAR
STARTCHAR C2465
ENCODING 9317
SWIDTH 400 0
DWIDTH 24 0
BBX 24 24 0 -2
BITMAP
000004
60000E
7FFFFE
601800
601800
603080
606060
60C030
63FFF8
63E018
614108
606180
606180
60618C
67FFFC
606180
60C180
60C180
60C180
618180
610180
620106
7FFFFF
000000
ENDCHAR
STARTCHAR C2466
ENCODING 9318
SWIDTH 400 0
DWIDTH 24 0
BBX 24 24 0 -2
BITMAP
000004
00000E
FFFFFE
60C000
60C000
60C030
61FFF0
618E00
630E00
660E00
600E08
67FFFC
600C00
601B00
601980
6038E0
607070
60E038
61C018
660000
700000
3FFFFF
1FFFFF
000000
ENDCHAR
STARTCHAR C2467
ENCODING 9319
SWIDTH 400 0
DWIDTH 24 0
BBX 24 24 0 -2
BITMAP
030000
030106
0301FF
030187
030187
032187
3FF187
030187
030187
030187
030187
031987
FFFD87
060187
060187
0E0187
0C0186
1C41BE
18618C
303180
37F980
7E1980
301980
000180
ENDCHAR
STARTCHAR C2468
ENCODING 9320
SWIDTH 400 0
DWIDTH 24 0
BBX 24 24 0 -2
BITMAP
000000
300007
3FFFFF
301000
301800
300C00
300E00
300638
33FFF8
300000
300070
310070
308060
30C060
3060C0
3060C0
2071C0
603180
603180
601300
C01200
C00006
87FFFF
000000
ENDCHAR
STARTCHAR C2469
ENCODING 9321
SWIDTH 400 0
DWIDTH 24 0
BBX 24 24 0 -2
BITMAP
000000
300007
3FFFFF
300000
300700
300600
300600
300600
30060C
37FFFE
300600
300600
300600
308630
30FFF8
30C038
20C038
60C038
60C038
60C038
C0C038
C0FFF8
80C010
008000
ENDCHAR
STARTCHAR C246a
ENCODING 9322
SWIDTH 400 0
DWIDTH 24 0
BBX 24 24 0 -2
BITMAP
000000
300007
3FFFFF
300008
33801C
33FFFC
33860C
33860C
33860C
33FFFC
33860C
33860C
33860C
33FFFC
330608
300600
200600
600600
600600
600600
C00600
C00600
800600
000000
ENDCHAR
STARTCHAR C246b
ENCODING 9323
SWIDTH 400 0
DWIDTH 24 0
BBX 24 24 0 -2
BITMAP
000C00
000600
000300
C30300
FF0100
E30006
E3FFFF
E30E00
E30E00
E30E00
E30E38
E30FFC
E30C18
E30C18
E31C18
FF1818
E31818
E31818
403038
003038
006030
00C3F0
0181E0
0300C0
ENDCHAR
STARTCHAR C246c
ENCODING 9324
SWIDTH 400 0
DWIDTH 24 0
BBX 24 24 0 -2
BITMAP
0001C0
0001C0
0001C0
C301D8
FF01FC
E307E0
E31DC0
E301C0
E301C0
E301C4
E33FFE
E301C0
E301C0
E301C0
E301C2
FF7FFF
E301C0
E301C0
4001C0
0001C0
0001C0
0001C0
0001C0
000180
ENDCHAR
STARTCHAR C246d
ENCODING 9325
SWIDTH 400 0
DWIDTH 24 0
BBX 24 24 0 -2
BITMAP
000000
000000
00001C
C31FFC
FF0000
E30000
E30000
E30000
E30002
E37FFF
E30380
E30300
E30300
E30600
E30600
E30C00
FF0C00
E31818
C0180C
00103E
003FE7
003C07
001802
000000
ENDCHAR
STARTCHAR C246e
ENCODING 9326
SWIDTH 400 0
DWIDTH 24 0
BBX 24 24 0 -2
BITMAP
0001C0
0001C0
000180
C60180
FF0180
E70184
E67FFE
E60180
E60380
E603C0
E603C0
E607E0
E60FB0
E60DB0
E61D98
E6199C
FE318E
E63187
C06183
00C180
000180
000180
000180
000180
ENDCHAR
STARTCHAR C246f
ENCODING 9327
SWIDTH 400 0
DWIDTH 24 0
BBX 24 24 0 -2
BITMAP
000380
000380
000330
C6031C
FF030C
E70304
E60300
E6FFFE
E60300
E60300
E60300
E60380
E603E0
E607C0
E607C0
E60FC0
FE0DC0
E60DC0
C019C1
0019C1
0031C3
0061FF
00C0FF
03807E
ENDCHAR
STARTCHAR C2470
ENCODING 9328
SWIDTH 400 0
DWIDTH 24 0
BBX 24 24 0 -2
BITMAP
000820
000C70
000FF8
C60C30
FF0C30
E70C30
E61830
E6183E
E6301F
E62000
E64000
E61FF8
E60838
E60830
E60C30
E60460
FE0660
E603C0
C003C0
0003E0
00067C
000C3F
00380E
01E004
ENDCHAR
STARTCHAR C2471
ENCODING 9329
SWIDTH 400 0
DWIDTH 24 0
BBX 24 24 0 -2
BITMAP
000080
0000C0
000040
C60860
FF0E20
E70C30
E61C30
E61818
E61818
E6301C
E6338C
E6638E
E66307
E64307
E68600
E60600
FE0C00
E60C30
C01818
00180C
0030FC
007F86
003806
001000
ENDCHAR
STARTCHAR C2472
ENCODING 9330
SWIDTH 400 0
DWIDTH 24 0
BBX 24 24 0 -2
BITMAP
006000
003000
003800
201818
3FFFFC
30380C
303C0C
30760C
30E70C
31C3CC
3381FC
3700FC
3FFF6C
3B818C
33818C
33818C
33818C
33818C
33FF8C
33818C
33010C
3000FC
300078
200030
ENDCHAR
STARTCHAR C2473
ENCODING 9331
SWIDTH 400 0
DWIDTH 24 0
BBX 24 24 0 -2
BITMAP
0000C0
7FFFE0
0381C0
030180
03038C
0703FE
06000C
06000C
0C101C
181CF8
301830
601820
801808
3FFFFC
001800
001800
001820
1FFFF0
1C0030
1C0030
1C0030
1C0030
1FFFF0
180030
ENDCHAR
STARTCHAR C2474
ENCODING 9332
SWIDTH 400 0
DWIDTH 24 0
BBX 24 24 0 -2
BITMAP
000038
000038
000C30
C30630
FF0330
E30330
E30130
E30030
E31030
E31C30
E30E30
E30630
E30630
E30032
E3003F
FF7FF0
E30030
E30030
400030
000030
000030
000030
000030
000030
ENDCHAR
STARTCHAR C2475
ENCODING 9333
SWIDTH 400 0
DWIDTH 24 0
BBX 24 24 0 -2
BITMAP
000000
000200
000100
C60180
FF00C0
E700E0
E60E60
E60E60
E60E00
E60E00
E60E00
E62E00
E62E00
E62E08
E66E0C
E66E06
FE6E07
E6EE03
C0CE0B
00CE19
008E10
0007F8
0003F0
000000
ENDCHAR
STARTCHAR C2476
ENCODING 9334
SWIDTH 400 0
DWIDTH 24 0
BBX 24 24 0 -2
BITMAP
000000
000038
007FF8
0C0638
FE0638
E60638
E60638
E6063F
E6FFFF
E60638
E60638
E60638
E60638
E60638
E67FF8
FE0E10
EE0C00
E40C00
401800
001800
003000
006000
00C000
018000
ENDCHAR
STARTCHAR C2477
ENCODING 9335
SWIDTH 400 0
DWIDTH 24 0
BBX 24 24 0 -2
BITMAP
000007
0001C7
003FC6
C601C6
FF01C6
E701C6
E601C6
E621C6
E67FC6
E67086
E67006
E66006
E66186
E6FFC6
E641C6
FE01C6
E601C6
E001C6
4001C6
000186
000386
003F06
000F06
000606
ENDCHAR
STARTCHAR C2478
ENCODING 9336
SWIDTH 400 0
DWIDTH 24 0
BBX 24 24 0 -2
BITMAP
000380
000380
000300
C60300
FF0300
E7030C
E67FFC
E60300
E60300
E60300
E60300
E6030E
E6FFFE
E60380
E606C0
E60640
FE0C60
E60C60
C01830
001838
00301C
00600F
00C006
038000
ENDCHAR
STARTCHAR C2479
ENCODING 9337
SWIDTH 400 0
DWIDTH 24 0
BBX 24 24 0 -2
BITMAP
000060
007860
007060
C67060
FF7060
E77060
E67060
E67060
E67060
E67E7E
E67060
E67060
E67060
E67060
E67060
E67060
FE7060
E67060
C07061
007361
007E63
00787F
00707F
00303E
ENDCHAR
STARTCHAR C247a
ENCODING 9338
SWIDTH 400 0
DWIDTH 24 0
BBX 24 24 0 -2
BITMAP
000004
004007
007076
C66076
FF6866
E76C66
E66666
E662C6
E663C6
E663C6
E66186
E661C6
E663C6
E663E6
E66266
FE6676
E66436
E66C36
407806
006006
006006
007FFE
004006
000004
ENDCHAR
STARTCHAR C247b
ENCODING 9339
SWIDTH 400 0
DWIDTH 24 0
BBX 24 24 0 -2
BITMAP
000020
0C0070
0FFFF8
0C0030
0C0030
0C0030
0FFFF0
0C0020
000000
000018
3FFFFC
001800
001800
001800
001806
FFFFFF
003400
007600
006300
00C1C0
0180E0
07007F
1C003F
70000C
ENDCHAR
STARTCHAR C247c
ENCODING 9340
SWIDTH 400 0
DWIDTH 24 0
BBX 24 24 0 -2
BITMAP
000040
0600E0
07FFE0
060060
060060
060060
07FFE0
078040
018000
038000
030000
060070
0FFFF8
000030
000060
000060
0000C7
FFFFFF
038000
0380C0
070070
0E0038
18001C
60000C
ENDCHAR
STARTCHAR C247d
ENCODING 9341
SWIDTH 400 0
DWIDTH 24 0
BBX 24 24 0 -2
BITMAP
0000E0
0000E0
0000C0
C600C0
FF70C7
E77FFF
E671C7
E671C7
E671C7
E671C7
E67367
E67327
E67337
E6763F
E6761F
E67C1F
FE7807
E67007
C07007
007007
007007
00703F
00701E
00600C
ENDCHAR
STARTCHAR C247e
ENCODING 9342
SWIDTH 400 0
DWIDTH 24 0
BBX 24 24 0 -2
BITMAP
000000
001800
070C00
170E18
36060C
36022E
760027
660067
6700C3
C3FFE0
01FFC0
000000
000000
040060
07FFF0
060070
060060
060060
060060
060060
060060
07FFE0
060060
040000
ENDCHAR
STARTCHAR C2521
ENCODING 9505
SWIDTH 400 0
DWIDTH 24 0
BBX 24 24 0 -2
BITMAP
001800
001800
0E1800
0E1800
0C1830
1FFFF8
181800
301800
601800
401804
00380E
7FFFFE
001800
001800
081820
1FFFF0
1C0030
1C0030
1C0030
1C0030
1C0030
1C0030
1FFFF0
180030
ENDCHAR
STARTCHAR C2522
ENCODING 9506
SWIDTH 400 0
DWIDTH 24 0
BBX 24 24 0 -2
BITMAP
0001C0
0007E0
01FFE0
0FD800
001800
003000
003000
007007
FFFFFF
00E600
00C300
0181C0
0300E0
06007C
0C001F
37FFEE
C700E0
060060
060060
060060
060060
060060
07FFE0
060040
ENDCHAR
STARTCHAR C2523
ENCODING 9507
SWIDTH 400 0
DWIDTH 24 0
BBX 24 24 0 -2
BITMAP
001C00
001C00
001800
C61800
FF1800
E7100E
E63FFE
E63830
E67830
E66830
E6C860
E60C60
E60460
E60660
E602C0
E603C0
FE0380
E603C0
C007C0
000E60
001C3C
00381F
00600C
018000
ENDCHAR
STARTCHAR C2524
ENCODING 9508
SWIDTH 400 0
DWIDTH 24 0
BBX 24 24 0 -2
BITMAP
0000F8
000FFC
1FFC00
180004
18000E
1FFFFF
180006
180006
180006
1FFFFE
180006
180004
180000
198018
19FFFC
19801C
198018
318018
318018
318018
618018
61FFF8
C18018
818000
ENDCHAR
STARTCHAR C2525
ENCODING 9509
SWIDTH 400 0
DWIDTH 24 0
BBX 24 24 0 -2
BITMAP
000000
00000C
00FFFE
C60600
FF0600
E70600
E60600
E60600
E60E00
E60E00
E60E30
E6FFF8
E60C38
E60C38
E60C38
E60C38
FE1838
E61838
401838
001838
001838
001838
00383F
01FFFF
ENDCHAR
STARTCHAR C2526
ENCODING 9510
SWIDTH 400 0
DWIDTH 24 0
BBX 24 24 0 -2
BITMAP
200004
30000E
3FFFFF
300006
3001C6
30FFC6
300006
300006
300026
37FFF6
303006
303006
307006
306006
30E186
30C0C6
3180C6
31BFE6
33F066
338066
300026
3FFFFE
300006
200004
ENDCHAR
STARTCHAR C2527
ENCODING 9511
SWIDTH 400 0
DWIDTH 24 0
BBX 24 24 0 -2
BITMAP
000000
60000C
7FFFFE
60800C
60C38C
60C30C
60C30C
61C3EC
67FFEC
60C30C
60C30C
60C30C
60C32C
6FFFFC
60C30C
61C30C
61830C
63830C
63030C
66030C
64030C
7FFFFC
60000C
600000
ENDCHAR
STARTCHAR C2528
ENCODING 9512
SWIDTH 400 0
DWIDTH 24 0
BBX 24 24 0 -2
BITMAP
000000
60000C
7FFFFE
60310C
6199CC
60CD8C
64658C
62630C
63030C
61870C
60C60C
606E0C
607C0C
60380C
603C0C
606E0C
60C70C
6183FC
6301FC
66004C
68000C
7FFFFC
60000C
600000
ENDCHAR
STARTCHAR C2529
ENCODING 9513
SWIDTH 400 0
DWIDTH 24 0
BBX 24 24 0 -2
BITMAP
000000
60000C
7FFFFE
60000C
60004C
67FFEC
60180C
60180C
60180C
60180C
60190C
63FF8C
60180C
60180C
60180C
60180C
60180C
60184C
67FFEC
60000C
60000C
7FFFFC
60000C
600000
ENDCHAR
STARTCHAR C252a
ENCODING 9514
SWIDTH 400 0
DWIDTH 24 0
BBX 24 24 0 -2
BITMAP
000000
60000C
7FFFFE
60000C
60010C
61FF8C
60000C
60000C
60000C
60004C
67FFEC
60CE0C
60CE0C
60CE0C
60CE0C
61CE2C
618E2C
638E6C
6307EC
6603EC
60000C
7FFFFC
60000C
600000
ENDCHAR
STARTCHAR C252b
ENCODING 9515
SWIDTH 400 0
DWIDTH 24 0
BBX 24 24 0 -2
BITMAP
200008
30001C
3FFFFC
31830C
31830C
31830C
31830C
31830C
31FF0C
31830C
31830C
31830C
31830C
31830C
31830C
31FF0C
31830C
31830C
31830C
31830C
31830C
3FFFFC
30001C
200008
ENDCHAR
STARTCHAR C252c
ENCODING 9516
SWIDTH 400 0
DWIDTH 24 0
BBX 24 24 0 -2
BITMAP
000000
60000C
7FFFFE
60100C
601C0C
60180C
60186C
6018EC
61D8CC
6FFD8C
60DD0C
619E0C
619A0C
619B0C
63998C
6319CC
6618FC
64187C
69F82C
60300C
60000C
7FFFFC
60000C
600000
ENDCHAR
STARTCHAR C252d
ENCODING 9517
SWIDTH 400 0
DWIDTH 24 0
BBX 24 24 0 -2
BITMAP
100000
1C0000
184006
187FFF
18C006
18C00C
18C848
1A0E70
7E0C60
180C60
180C60
180C60
180C60
180C60
181C60
1A1860
1E1860
381860
F03861
E03061
007063
00607F
00C07F
03803E
ENDCHAR
STARTCHAR C252e
ENCODING 9518
SWIDTH 400 0
DWIDTH 24 0
BBX 24 24 0 -2
BITMAP
000000
1E0038
1C1FFC
1C0030
1C0060
1C0640
1C0380
1F8380
7F8186
1C7FFF
1C0186
1C018C
1C0188
1C0180
1C0180
1C8180
1F8180
3E0180
F80180
E00180
000180
001F80
000F00
000200
ENDCHAR
STARTCHAR C252f
ENCODING 9519
SWIDTH 400 0
DWIDTH 24 0
BBX 24 24 0 -2
BITMAP
000820
1E0C70
1C0FF8
1C0C30
1C0C30
1C0C30
1C1830
1F983E
7FB01F
1C2000
1C4030
1C1FF8
1C0838
1C0830
1C0C30
1C8660
1F8260
3E03C0
F801C0
E003E0
000678
000C3F
00380E
00E004
ENDCHAR
STARTCHAR C2530
ENCODING 9520
SWIDTH 400 0
DWIDTH 24 0
BBX 24 24 0 -2
BITMAP
000180
1E0180
1C0380
1C0340
1C0760
1C0630
1C0C38
1F981C
7FB00F
1C6827
1CCC32
1C8C30
1C0C30
1C0C30
1C0C30
1C8C30
1F9830
3E1830
F81830
E01030
003030
006030
00C030
018030
ENDCHAR
STARTCHAR C2531
ENCODING 9521
SWIDTH 400 0
DWIDTH 24 0
BBX 24 24 0 -2
BITMAP
000000
0C0060
0FFFF0
0C0070
0C0060
0C0060
0FFFE0
0C0060
0C0060
0C0060
0FFFE0
0C0060
001800
001800
001800
001820
003870
0FFFF0
001800
001800
001800
001800
003807
FFFFFF
ENDCHAR
STARTCHAR C2532
ENCODING 9522
SWIDTH 400 0
DWIDTH 24 0
BBX 24 24 0 -2
BITMAP
01C300
01C300
018300
1FFFF8
018380
018300
018300
018304
7FFFFE
038300
030300
030300
060300
0C0300
301800
001800
001820
0FFFF0
001800
001800
001800
001800
003807
FFFFFF
ENDCHAR
STARTCHAR C2533
ENCODING 9523
SWIDTH 400 0
DWIDTH 24 0
BBX 24 24 0 -2
BITMAP
000040
0000E0
07FFE0
000000
000000
00000C
7FFFFE
00C300
00C300
018300
018302
030306
0603FE
1C03FE
701DF8
001800
001820
0FFFF0
001800
001800
001800
001800
003807
FFFFFF
ENDCHAR
STARTCHAR C2534
ENCODING 9524
SWIDTH 400 0
DWIDTH 24 0
BBX 24 24 0 -2
BITMAP
000038
1E0038
1C0830
1C0630
1C0330
1C0330
1C0030
1F0030
7F1030
1C1C30
1C0C30
1C0630
1C0030
1C0032
1C003F
1CBFF0
1F0030
3C0030
F00030
E00030
000030
000030
000030
000030
ENDCHAR
STARTCHAR C2535
ENCODING 9525
SWIDTH 400 0
DWIDTH 24 0
BBX 24 24 0 -2
BITMAP
100600
1C0300
180300
180304
18010E
187FFE
181038
1A1030
7E1830
181830
180860
180C60
180CE0
1806C0
1807C0
1A0380
1E0380
3807C0
F00CE0
E01870
00303C
00601F
00C00E
038004
ENDCHAR
STARTCHAR C2536
ENCODING 9526
SWIDTH 400 0
DWIDTH 24 0
BBX 24 24 0 -2
BITMAP
100000
1C0008
183FFC
180000
180000
180000
180000
1A0000
7E0006
18FFFE
180C60
180C60
180C60
180C60
180C60
1A0C60
1E1860
381860
F03861
E03061
006063
00C07F
01807F
06003E
ENDCHAR
STARTCHAR C2537
ENCODING 9527
SWIDTH 400 0
DWIDTH 24 0
BBX 24 24 0 -2
BITMAP
100000
1C000C
18FFFC
180C00
180C00
180C00
181820
1A1C70
7E1FF8
181830
181830
181830
183830
183060
183060
1A3FE0
1E30E0
380060
F00060
E000C0
0000C0
0000C6
01FFFF
000000
ENDCHAR
STARTCHAR C2538
ENCODING 9528
SWIDTH 400 0
DWIDTH 24 0
BBX 24 24 0 -2
BITMAP
100700
1C0700
180600
180600
180630
187FF8
180638
1A0638
7E0638
180638
180638
18063A
18FFFF
180E00
180E00
1A0CC0
1E0C60
381C30
F01818
E0180C
00300E
00600E
00C006
070000
ENDCHAR
STARTCHAR C2539
ENCODING 9529
SWIDTH 400 0
DWIDTH 24 0
BBX 24 24 0 -2
BITMAP
107060
1C7060
187060
187060
187060
187060
187060
1A7060
7E7060
187E7E
187060
187060
187060
187060
187060
1A7060
1E7060
387060
F07061
E07261
007C63
00787F
00707F
00303E
ENDCHAR
STARTCHAR C253a
ENCODING 9530
SWIDTH 400 0
DWIDTH 24 0
BBX 24 24 0 -2
BITMAP
000000
1E0038
1C01F8
1C1F80
1C0300
1C0300
1C0300
1F8300
7F830C
1C3FFC
1C0300
1C0300
1C0300
1C0304
1CFFFE
1C0300
1C0300
1F8300
FE0301
F00301
600303
0003FF
0001FF
0000FE
ENDCHAR
STARTCHAR C253b
ENCODING 9531
SWIDTH 400 0
DWIDTH 24 0
BBX 24 24 0 -2
BITMAP
101C00
1C1C00
181800
181806
181FFF
183000
187380
1A6380
7EC300
188300
18030C
183FFE
18030E
18030C
18030C
1A070C
1E060C
38060C
F00C0C
E00C0C
00180C
0031F8
006078
018030
ENDCHAR
STARTCHAR C253c
ENCODING 9532
SWIDTH 400 0
DWIDTH 24 0
BBX 24 24 0 -2
BITMAP
001C00
1E1C00
1C1800
1C1800
1C1800
1C180E
1C3FFE
1F3838
7F3838
1C6830
1C4830
1C8C60
1C0660
1C0660
1C03C0
1D03C0
1E0380
3C03C0
F007C0
E00E60
001C3C
00381F
00600C
018000
ENDCHAR
STARTCHAR C253d
ENCODING 9533
SWIDTH 400 0
DWIDTH 24 0
BBX 24 24 0 -2
BITMAP
000E00
1E0E00
1C0C00
1C1C00
1C1C07
1C1FFF
1C3007
1F3607
7F6707
1CC607
1C0E07
1C0C07
1C0CC7
1C1867
1C31E7
1D7F67
1E3027
3C1007
F00006
E00006
00000E
0001FC
000078
000030
ENDCHAR
STARTCHAR C253e
ENCODING 9534
SWIDTH 400 0
DWIDTH 24 0
BBX 24 24 0 -2
BITMAP
101800
1C1800
181800
183800
183004
183FFE
186666
1A6666
7E4666
18CE66
188C66
190C66
180CC6
1818C6
1819C6
1A3186
1E3306
386306
F0C70E
E00E0C
001C0C
0039FC
000078
000030
ENDCHAR
STARTCHAR C253f
ENCODING 9535
SWIDTH 400 0
DWIDTH 24 0
BBX 24 24 0 -2
BITMAP
100000
1C1800
181C02
1819FF
181807
183007
183007
1A6007
7E6707
18C707
18C607
18EC07
183C07
181807
181807
1A3807
1E3407
387606
F06206
E0C70C
00FFFC
00E338
004010
000000
ENDCHAR
STARTCHAR C2540
ENCODING 9536
SWIDTH 400 0
DWIDTH 24 0
BBX 24 24 0 -2
BITMAP
100000
1C200C
187FFE
187000
187000
187000
187000
1A7038
7E7FFC
187418
187418
187638
187230
187230
186370
1A6160
1E61E0
38C1C0
F0C1E0
E0C330
01863C
010C1F
02180E
007000
ENDCHAR
STARTCHAR C2541
ENCODING 9537
SWIDTH 400 0
DWIDTH 24 0
BBX 24 24 0 -2
BITMAP
001800
001800
001820
019870
3FF8E0
01DF80
019B00
031980
0618E0
0C187E
30383E
E0F810
003000
000000
001000
001C00
001800
001818
3FFFFC
001800
001800
001800
003807
FFFFFF
ENDCHAR
STARTCHAR C2542
ENCODING 9538
SWIDTH 400 0
DWIDTH 24 0
BBX 24 24 0 -2
BITMAP
0003F8
0C7FFC
0FF840
0C1840
0C1840
0C1860
0C1860
1C1830
181838
18181C
30180F
601807
C01002
000000
001000
001C00
001800
00181C
3FFFFC
001800
001800
001800
003807
FFFFFF
ENDCHAR
STARTCHAR C2543
ENCODING 9539
SWIDTH 400 0
DWIDTH 24 0
BBX 24 24 0 -2
BITMAP
001800
001800
001804
7FFFFE
003800
001800
001830
3FFFF0
000000
200006
7FFFFF
610007
C1C006
C180CC
0183E0
018F00
01B800
01C000
018008
018018
018010
01FFF0
00FFF0
007FE0
ENDCHAR
STARTCHAR C2544
ENCODING 9540
SWIDTH 400 0
DWIDTH 24 0
BBX 24 24 0 -2
BITMAP
001800
001800
001804
7FFFFE
003800
001800
001830
3FFFF0
000000
200006
7FFFFF
600007
E00006
C1C38C
018380
018300
018300
018300
038301
030303
060302
0C03FE
1801FE
6000FC
ENDCHAR
STARTCHAR C2545
ENCODING 9541
SWIDTH 400 0
DWIDTH 24 0
BBX 24 24 0 -2
BITMAP
001C00
001C00
001800
001806
7FFFFE
001800
001800
001C30
1FFFF0
000008
10001C
1FFFFC
18180C
18180C
1FFFFC
18000C
180000
180000
300000
300000
200000
600000
400000
000000
ENDCHAR
STARTCHAR C2546
ENCODING 9542
SWIDTH 400 0
DWIDTH 24 0
BBX 24 24 0 -2
BITMAP
01C000
01C000
0300C0
060060
0C0038
1FFFF8
1FC318
08C300
018300
0303F8
0601FC
38E000
01C000
018060
1BFFF0
0700E0
0781C0
0CE380
303F00
003E00
007F80
03E3FF
0F00FF
7C0038
ENDCHAR
STARTCHAR C2547
ENCODING 9543
SWIDTH 400 0
DWIDTH 24 0
BBX 24 24 0 -2
BITMAP
001800
001800
001818
3FFFFC
001800
001810
0FFFF0
001800
00180C
7FFFFE
000000
00E000
00E040
00C0E0
11FFE0
0F01C0
078380
0CE700
383C00
007E00
00EFC0
0783FF
1E007F
70003C
ENDCHAR
STARTCHAR C2548
ENCODING 9544
SWIDTH 400 0
DWIDTH 24 0
BBX 24 24 0 -2
BITMAP
00E000
00E000
00C000
218008
33001C
3FFFFC
30700C
30700C
30E18C
30FFCC
30C1CC
31C1CC
33318C
361B0C
340F0C
30060C
300C0C
30180C
30700C
30C00C
37000C
3FFFFC
30001C
200008
ENDCHAR
STARTCHAR C2549
ENCODING 9545
SWIDTH 400 0
DWIDTH 24 0
BBX 24 24 0 -2
BITMAP
003800
003800
003000
007006
FFFFFF
00E100
01C0C0
038070
07003F
0C000F
300024
EFFFF0
000000
000000
000008
3FFFFC
006000
00E300
00C180
0180C0
030060
0FFFF0
0F8038
060018
ENDCHAR
STARTCHAR C254a
ENCODING 9546
SWIDTH 400 0
DWIDTH 24 0
BBX 24 24 0 -2
BITMAP
003800
003800
003000
007006
FFFFFF
00E100
01C0C0
038070
07003F
0C000F
301004
E01C00
001800
001806
FFFFFF
001800
021800
0718E0
061830
0C1818
18180C
30180C
601800
001000
ENDCHAR
STARTCHAR C254b
ENCODING 9547
SWIDTH 400 0
DWIDTH 24 0
BBX 24 24 0 -2
BITMAP
000600
380300
380380
300184
32018E
337FFE
FF8000
FB0000
331860
331FF0
331860
331860
661860
661860
E61860
7E1860
1C1860
1E1860
1F3061
33B061
607063
C0607F
00C03F
01801E
ENDCHAR
STARTCHAR C254c
ENCODING 9548
SWIDTH 400 0
DWIDTH 24 0
BBX 24 24 0 -2
BITMAP
000020
380F38
380E30
300E30
320E30
330E30
FFBFFE
FB0E30
330E30
330E30
330E30
330E30
660E30
660E37
E67FFF
7E0E30
1C0C30
1E0C30
1F1830
339830
603030
C06030
00C030
018030
ENDCHAR
STARTCHAR C254d
ENCODING 9549
SWIDTH 400 0
DWIDTH 24 0
BBX 24 24 0 -2
BITMAP
000180
380180
3801B0
300198
32018C
330180
FF8182
FB3FFF
330180
330180
330180
330380
6603E0
6603C0
E603C0
7E07C0
1C06C0
1E0EC0
1F0CC1
3398C1
6030C3
C060FF
00C07F
01803E
ENDCHAR
STARTCHAR C254e
ENCODING 9550
SWIDTH 400 0
DWIDTH 24 0
BBX 24 24 0 -2
BITMAP
000700
380700
380600
300600
320630
333FF8
FF8638
FB0638
330638
330638
330638
33063A
66FFFF
660E00
E60E00
7E0CC0
1C0C60
1E1C30
1F1818
33980C
60300E
C0600E
00C006
070000
ENDCHAR
STARTCHAR C254f
ENCODING 9551
SWIDTH 400 0
DWIDTH 24 0
BBX 24 24 0 -2
BITMAP
000E00
380E00
380E00
300C06
320FFE
331806
FF9806
FB3006
332006
334FC6
330006
330006
660006
660006
E60006
7E0FC6
1C0006
1E0006
1F000E
33800C
60000C
C001FC
000078
000030
ENDCHAR
STARTCHAR C2550
ENCODING 9552
SWIDTH 400 0
DWIDTH 24 0
BBX 24 24 0 -2
BITMAP
000000
300060
30FFF0
301860
341860
361860
FF1860
FE18C0
3618D8
361FFC
261C18
263618
6E3238
4C3230
CC7330
7C6360
1C61E0
1EE1C0
36C1C0
33C3E0
61873C
C30E1F
02180E
04F004
ENDCHAR
STARTCHAR C2551
ENCODING 9553
SWIDTH 400 0
DWIDTH 24 0
BBX 24 24 0 -2
BITMAP
000000
0C0060
0FFFF0
0C0060
0C0060
0FFFE0
0C0060
0C0060
0C0060
0FFFE0
0C0000
00E000
00C1C0
00C1C6
FFFFFF
018180
030300
070300
07C600
00FE00
003FC0
00E0F0
078070
7E0018
ENDCHAR
STARTCHAR C2552
ENCODING 9554
SWIDTH 400 0
DWIDTH 24 0
BBX 24 24 0 -2
BITMAP
000000
381838
381FF8
301838
321838
331838
FF9838
FB1C3F
337FFF
331838
331838
331838
661838
661C3F
667FFF
7E1838
1C1838
1E1838
1B3838
31B038
603038
C061F8
004070
008060
ENDCHAR
STARTCHAR C2553
ENCODING 9555
SWIDTH 400 0
DWIDTH 24 0
BBX 24 24 0 -2
BITMAP
001800
001800
1C183C
181838
181838
181838
3FFFF0
001800
001804
3FFFFE
000000
008000
00E000
00C1E0
0181C6
FFFFFF
030180
070380
060700
07FE00
007F80
007BE0
01C070
1F0038
ENDCHAR
STARTCHAR C2554
ENCODING 9556
SWIDTH 400 0
DWIDTH 24 0
BBX 24 24 0 -2
BITMAP
000000
380000
381006
303FFF
323006
33600C
FF6068
FB0FF0
330E70
330E60
330E60
330E60
660E60
660E60
E60E60
7E0C60
1C0C60
1E1860
1F1861
339861
603063
C0607F
00C03F
01801E
ENDCHAR
STARTCHAR C2555
ENCODING 9557
SWIDTH 400 0
DWIDTH 24 0
BBX 24 24 0 -2
BITMAP
000380
380380
380300
300300
322300
33230E
FFFFFF
FB630C
33E308
33C300
330300
330380
6607E0
6607C0
E607C0
7E0FC0
1C0DC0
1E1DC0
1F19C1
3399C1
6031C3
C061FF
00C0FF
07007E
ENDCHAR
STARTCHAR C2556
ENCODING 9558
SWIDTH 400 0
DWIDTH 24 0
BBX 24 24 0 -2
BITMAP
000000
1E0007
1C3FFF
1C00E0
1C00C0
1D81C0
FFC1C0
F983C0
1983D0
1987D8
1987CC
318DC6
3399C7
3391C3
3321C3
3F41C1
0E01C0
0F01C0
0D81C0
18C1C0
3001C0
6001C0
8001C0
000180
ENDCHAR
STARTCHAR C2557
ENCODING 9559
SWIDTH 400 0
DWIDTH 24 0
BBX 24 24 0 -2
BITMAP
000000
1E0038
1C00F8
1C1F80
1C0300
1D8300
FFC300
F98300
19830C
19BFFC
198300
318300
338300
338304
337FFE
3F0300
0E0300
0F0300
0D8301
18C301
300303
6003FF
8001FF
0000FE
ENDCHAR
STARTCHAR C2558
ENCODING 9560
SWIDTH 400 0
DWIDTH 24 0
BBX 24 24 0 -2
BITMAP
003000
001800
00180E
7FFFFE
0301C0
01C380
00FF00
003C00
00FF80
03C3FF
0E00FF
F800B8
03FFC0
0001C0
000300
000600
001800
00180E
7FFFFE
001800
001800
00F800
007800
001000
ENDCHAR
STARTCHAR C2559
ENCODING 9561
SWIDTH 400 0
DWIDTH 24 0
BBX 24 24 0 -2
BITMAP
003000
001800
201802
3FFFFF
600007
E02006
C0300C
001800
001800
001830
0FFFF0
000070
0000E0
0001C0
000380
000700
000E00
001C00
007000
01C000
1FC000
1EFFFF
081FFC
000FF8
ENDCHAR
STARTCHAR C255a
ENCODING 9562
SWIDTH 400 0
DWIDTH 24 0
BBX 24 24 0 -2
BITMAP
003000
001800
201802
3FFFFF
600007
E00006
C0200C
001000
001800
001800
000004
7FFFFE
000000
000000
010000
03C180
0380C0
070060
060030
0C0018
18001C
10000E
200006
400000
ENDCHAR
STARTCHAR C255b
ENCODING 9563
SWIDTH 400 0
DWIDTH 24 0
BBX 24 24 0 -2
BITMAP
003000
001800
201802
3FFFFF
600007
600406
C0820C
80E108
01C180
01C0C0
038060
07203C
0E381F
1C300C
707000
006000
00C000
018180
0300C0
060060
0C1FF0
1FF838
0F0018
060000
ENDCHAR
STARTCHAR C255c
ENCODING 9564
SWIDTH 400 0
DWIDTH 24 0
BBX 24 24 0 -2
BITMAP
180038
0C0038
0E0030
060030
067030
FFF030
00C032
00DFFF
418030
218030
318030
1B8C30
1B0630
0F0330
0E0330
060130
070030
0F0030
1D8030
198030
30C030
30C3F0
6041E0
000040
ENDCHAR
STARTCHAR C255d
ENCODING 9565
SWIDTH 400 0
DWIDTH 24 0
BBX 24 24 0 -2
BITMAP
001800
001800
00180C
3FFFFC
001800
001810
1FFFF8
003000
003000
007002
FFFFFF
00E080
01C1E0
0381C0
0701C6
7FFFFE
1C01C0
70C1C0
C061C0
0031C0
0001C0
000FC0
000380
000180
ENDCHAR
STARTCHAR C255e
ENCODING 9566
SWIDTH 400 0
DWIDTH 24 0
BBX 24 24 0 -2
BITMAP
0003C0
000FE0
007E10
03C03C
0E3038
001870
060C60
030CC0
038000
010380
000380
000302
FFFFFF
000380
000300
060300
038300
01C300
00C300
000300
000300
007F00
001F00
000600
ENDCHAR
STARTCHAR C255f
ENCODING 9567
SWIDTH 400 0
DWIDTH 24 0
BBX 24 24 0 -2
BITMAP
000000
007000
FFF010
1B9FF8
1B8180
1B8180
1B8180
1B8180
1B8180
1B8180
1B81B8
1B8FF8
1B8180
1B8180
3B8180
338180
338180
33818C
33BFFD
638001
638003
C3FFFF
81FFFF
00FFFE
ENDCHAR
STARTCHAR C2560
ENCODING 9568
SWIDTH 400 0
DWIDTH 24 0
BBX 24 24 0 -2
BITMAP
0000E0
1E00E0
1C00C0
1C00C0
1C00C0
5D18C6
DDDFFF
DD98C7
DD98C7
DD98C7
DD98C7
DD98C7
DD98C7
DD98C7
DD9FFF
DD98C2
DD80C0
DD80C0
FF80C0
0180C0
0000C0
0000C0
0000C0
0000C0
ENDCHAR
STARTCHAR C2561
ENCODING 9569
SWIDTH 400 0
DWIDTH 24 0
BBX 24 24 0 -2
BITMAP
000004
0E0E0E
0C0FFF
0C0E06
0C0E06
4C8E06
ECCE06
ECCE06
ECCFFE
ECCE06
ECCE06
ECCE06
ECCE06
ECCE06
ECCFFE
ECCE06
ECCC06
ECCC06
FFCC06
009806
001806
00303E
00601C
00C008
ENDCHAR
STARTCHAR C2562
ENCODING 9570
SWIDTH 400 0
DWIDTH 24 0
BBX 24 24 0 -2
BITMAP
0000C0
1E0440
1C0E60
1C0E60
1C0C20
5D0C30
DD8818
DD9818
DD900C
DDB00F
DDB007
DDEFFE
DDC318
DD8318
DD8318
DD8618
DD8618
DD8E18
FF8C18
011838
001830
0033F0
0061E0
0080C0
ENDCHAR
STARTCHAR C2563
ENCODING 9571
SWIDTH 400 0
DWIDTH 24 0
BBX 24 24 0 -2
BITMAP
001800
101810
1C1838
181838
181838
181838
3FFFF0
000000
000010
1FFFF8
183838
181838
181838
181838
1FFFF8
180030
180000
180000
180001
180003
180002
1FFFFE
1FFFFE
07FFFC
ENDCHAR
STARTCHAR C2564
ENCODING 9572
SWIDTH 400 0
DWIDTH 24 0
BBX 24 24 0 -2
BITMAP
001800
101810
1C1838
181838
181838
181838
3FFFF8
004010
003000
001808
00181C
3FFFFC
0300C0
0101C0
018380
00C300
006600
003C00
003E00
007780
01E1F0
0780FF
1E003C
700008
ENDCHAR
STARTCHAR C2565
ENCODING 9573
SWIDTH 400 0
DWIDTH 24 0
BBX 24 24 0 -2
BITMAP
000600
1E0300
1C0180
1C0180
1C0087
5D7FFF
DD9018
DD9818
DD8838
DD8C30
DD8C30
DD8470
DD8660
DD8260
DD83C0
DD81C0
DD83C0
DD83E0
FF8670
010C38
00181E
00300F
006006
018000
ENDCHAR
STARTCHAR C2566
ENCODING 9574
SWIDTH 400 0
DWIDTH 24 0
BBX 24 24 0 -2
BITMAP
000000
1E300C
1C3FFE
1C3000
1C3000
5D3000
DDB000
DDB038
DDBFFC
DDB418
DDB618
DDB238
DDB230
DDB330
DDB370
DDB160
DDB1E0
FFF1C0
4161E0
006330
00C61C
018C0F
031806
027000
ENDCHAR
STARTCHAR C2567
ENCODING 9575
SWIDTH 400 0
DWIDTH 24 0
BBX 24 24 0 -2
BITMAP
0001E0
0007F0
19FF00
1FC000
180000
18000C
1FFFFE
180000
180000
180018
1BFFFC
1B8618
1B8618
1B8618
1B8618
1BFFF8
338018
338000
338001
338001
638003
C3FFFF
81FFFF
00FFFC
ENDCHAR
STARTCHAR C2568
ENCODING 9576
SWIDTH 400 0
DWIDTH 24 0
BBX 24 24 0 -2
BITMAP
1C0040
1C0660
1C0720
1C0630
1C0630
FF8E18
DD8C18
DD880C
DD980E
DD9807
DDB007
DDAFFF
DD830C
DD830C
DD830C
DD830C
DF830C
DF060C
1C0E1C
1C0C18
1C1C18
1C39F0
1C70E0
18C040
ENDCHAR
STARTCHAR C2569
ENCODING 9577
SWIDTH 400 0
DWIDTH 24 0
BBX 24 24 0 -2
BITMAP
1C01C0
1C01C0
1C0380
1C0340
1C0360
FF8630
DD8C38
DD981C
DDB00F
DDA006
DDCE70
DD8E60
DD8E60
DD8E60
DD8E60
DD8E60
DF0E60
DF0E60
1C0C60
1C0C60
1C1860
1C1860
1C3060
186060
ENDCHAR
STARTCHAR C256a
ENCODING 9578
SWIDTH 400 0
DWIDTH 24 0
BBX 24 24 0 -2
BITMAP
001800
001800
00180C
0018CE
0FFFFC
001838
001860
0019C6
FFFFFF
000E00
001C00
00FE00
03CC00
0F0C38
7BFFF8
C30C38
030C38
030C38
030C38
030CF8
030C30
020C20
000C00
000C00
ENDCHAR
STARTCHAR C256b
ENCODING 9579
SWIDTH 400 0
DWIDTH 24 0
BBX 24 24 0 -2
BITMAP
0003E0
007FF0
3FF800
301800
301808
3FFFFC
300C00
300608
300308
3FF1D8
3C00F8
301078
301C18
001800
181830
1FFFF8
1C1830
1C1830
1C1830
1C1830
1C19F0
181860
001800
001000
ENDCHAR
STARTCHAR C256c
ENCODING 9580
SWIDTH 400 0
DWIDTH 24 0
BBX 24 24 0 -2
BITMAP
001800
000C00
300606
3FFFFF
300800
300E80
300C60
300C30
300C18
300C00
37FFFE
300C00
300C1C
300E1C
300638
300670
3003E0
3003C0
300381
6007C3
601EF2
C0787E
80C01E
070006
ENDCHAR
STARTCHAR C256d
ENCODING 9581
SWIDTH 400 0
DWIDTH 24 0
BBX 24 24 0 -2
BITMAP
001800
000C00
300C06
3FFFFF
300000
300700
300700
300600
300600
300600
300608
33FFFC
300600
300600
300680
3006E0
300670
300638
300618
600600
600600
C00606
87FFFE
000000
ENDCHAR
STARTCHAR C256e
ENCODING 9582
SWIDTH 400 0
DWIDTH 24 0
BBX 24 24 0 -2
BITMAP
001800
000C00
300C06
3FFFFF
300000
30007C
30CFFE
30FE00
30C00C
30FFFE
30E00E
30C00C
30C00C
30E00C
30FFFC
30C00C
30C000
30C000
31C000
618000
618000
C30000
820000
040000
ENDCHAR
STARTCHAR C256f
ENCODING 9583
SWIDTH 400 0
DWIDTH 24 0
BBX 24 24 0 -2
BITMAP
006000
003000
001800
001806
7FFFFE
007000
006000
00C060
018030
070FF8
0FFC1C
0F800C
0601C0
01C1C0
018180
018186
FFFFFF
018180
038180
030180
070180
0E0180
1C0180
300180
ENDCHAR
STARTCHAR C2570
ENCODING 9584
SWIDTH 400 0
DWIDTH 24 0
BBX 24 24 0 -2
BITMAP
000380
060380
FF0300
060300
060300
060302
067FFF
7E0700
600300
600700
600670
E60670
FF0E60
060CC0
061CC0
061980
061980
063310
063318
06660C
06CE0E
FF8FFF
3C1F07
180C03
ENDCHAR
STARTCHAR C2571
ENCODING 9585
SWIDTH 400 0
DWIDTH 24 0
BBX 24 24 0 -2
BITMAP
020E00
070E00
7F8C00
031800
031800
03180C
233FFE
3F330C
337318
606310
60C300
E20380
FF0380
C30380
0306C0
030640
030660
030C60
060C30
061838
06301E
FC600F
3CC006
198000
ENDCHAR
STARTCHAR C2572
ENCODING 9586
SWIDTH 400 0
DWIDTH 24 0
BBX 24 24 0 -2
BITMAP
000000
18001C
0C0038
0E0070
0600E0
006180
FFE700
21800E
31801C
318038
138060
1300C0
1B0304
0F000E
0E001C
060038
0E0070
0F00C0
1B0300
198C00
30E000
707FFF
E01FFC
8007F8
ENDCHAR
STARTCHAR C2573
ENCODING 9587
SWIDTH 400 0
DWIDTH 24 0
BBX 24 24 0 -2
BITMAP
1C0200
1C0300
180180
1801C0
1800C0
1804E0
5C0E60
5E0E60
DB0E00
D90E00
D82E00
982E00
182E00
186E08
186E0C
186E06
186E06
18EE07
18CE03
18CE0B
188E19
1807F0
1803F0
1801E0
ENDCHAR
STARTCHAR C2574
ENCODING 9588
SWIDTH 400 0
DWIDTH 24 0
BBX 24 24 0 -2
BITMAP
1C0380
1C0380
180330
180318
18030C
180300
5C0306
5E7FFE
DB0300
D90300
D80300
980380
1803C0
1803C0
1807C0
1807C0
180DC0
180DC0
1819C1
1819C1
1831C3
1861FF
18C0FF
1B807C
ENDCHAR
STARTCHAR C2575
ENCODING 9589
SWIDTH 400 0
DWIDTH 24 0
BBX 24 24 0 -2
BITMAP
1C0E00
1C0E00
181C06
181FFE
181800
183000
5C3FFC
5E6000
DB4000
D90030
D81FF0
980070
1800E0
1801C0
180380
180700
180E00
181C00
181801
183001
183003
183FFF
181FFF
1807FE
ENDCHAR
STARTCHAR C2576
ENCODING 9590
SWIDTH 400 0
DWIDTH 24 0
BBX 24 24 0 -2
BITMAP
1C0180
1C0180
180380
180340
180760
180630
5C0C38
5E181C
DB300F
D96827
D8CC32
988C30
180C30
180C30
180C30
180C30
181830
181830
181830
181030
183030
186030
18C030
198030
ENDCHAR
STARTCHAR C2577
ENCODING 9591
SWIDTH 400 0
DWIDTH 24 0
BBX 24 24 0 -2
BITMAP
001800
000C00
300C06
3FFFFF
300000
300200
300380
3001C0
3000E0
301860
301860
301800
309800
309800
319818
31980C
33980E
331806
371807
661813
621830
C01FF0
800FF0
0007E0
ENDCHAR
STARTCHAR C2578
ENCODING 9592
SWIDTH 400 0
DWIDTH 24 0
BBX 24 24 0 -2
BITMAP
0003E0
001FF0
0FF800
001800
001800
00180E
7FFFFE
001800
001800
001800
001800
001800
001800
000000
003000
039C00
238C08
23060C
230026
630067
630043
C3FFC3
81FFE0
007FC0
ENDCHAR
STARTCHAR C2579
ENCODING 9593
SWIDTH 400 0
DWIDTH 24 0
BBX 24 24 0 -2
BITMAP
380C00
380600
300700
300300
300300
380006
7DFFFF
7E0E00
F60E00
F60E00
B00E38
B00FFC
300C18
300C18
300C18
301818
301818
301818
303038
303038
306030
30C3F0
3181E0
3700C0
ENDCHAR
STARTCHAR C257a
ENCODING 9594
SWIDTH 400 0
DWIDTH 24 0
BBX 24 24 0 -2
BITMAP
1C0600
1C0300
180300
180306
18FFFE
180000
5C0000
5E1860
DB1FF0
D91870
D81860
981860
181860
181860
181860
181860
181860
181860
183860
183061
187061
18607F
18C03F
1B801E
ENDCHAR
STARTCHAR C257b
ENCODING 9595
SWIDTH 400 0
DWIDTH 24 0
BBX 24 24 0 -2
BITMAP
1C0600
1C0300
180300
180304
18010E
187FFE
5C1038
5E1030
DB1830
D91830
D80860
980C60
180CE0
1806C0
1807C0
180380
180380
1807C0
180CE0
181870
18303C
18601F
18C00E
1B8004
ENDCHAR
STARTCHAR C257c
ENCODING 9596
SWIDTH 400 0
DWIDTH 24 0
BBX 24 24 0 -2
BITMAP
1C0000
1C0038
181FFC
180030
180060
180640
5C0380
5E0380
DB0186
D97FFF
D80186
98018C
180188
180180
180180
180180
180180
180180
180180
180180
180180
181F80
180F00
180200
ENDCHAR
STARTCHAR C257d
ENCODING 9597
SWIDTH 400 0
DWIDTH 24 0
BBX 24 24 0 -2
BITMAP
1C0000
1C0000
18001C
183FFC
180000
180000
5C0000
5E0000
DB0002
D97FFF
D80700
980300
180700
180600
180600
180C00
180C00
181818
18180C
18103E
183FE7
183C07
181802
180000
ENDCHAR
STARTCHAR C257e
ENCODING 9598
SWIDTH 400 0
DWIDTH 24 0
BBX 24 24 0 -2
BITMAP
1C0380
1C0380
180330
180318
18030C
180300
5C0306
5EFFFE
DB0300
D90300
D80300
980380
1803C0
1803C0
180640
180640
180C60
180C60
181830
181838
18301E
18600F
18C006
1B8000
ENDCHAR
STARTCHAR C2621
ENCODING 9761
SWIDTH 400 0
DWIDTH 24 0
BBX 24 24 0 -2
BITMAP
1C0380
1C0380
180300
180300
180300
180300
5C0306
5EFFFE
DB0300
D90300
D80300
980380
180380
180680
1806C0
180E40
180C60
180C60
181830
181E18
18331E
18618F
18C187
198000
ENDCHAR
STARTCHAR C2622
ENCODING 9762
SWIDTH 400 0
DWIDTH 24 0
BBX 24 24 0 -2
BITMAP
1C1C00
1C1C00
181800
181860
18FFF0
181870
5C1860
5E1861
DB1861
D93063
D83077
98603F
18C21E
198380
180300
180300
180707
19FFFF
180300
180300
180300
180300
180300
180200
ENDCHAR
STARTCHAR C2623
ENCODING 9763
SWIDTH 400 0
DWIDTH 24 0
BBX 24 24 0 -2
BITMAP
1C0000
1C0018
183FFC
180300
180300
180300
5C0300
5E0300
DB0300
D90300
D80306
99FFFF
180300
180300
180300
180300
180300
180300
180300
180300
180308
187FFC
180000
180000
ENDCHAR
STARTCHAR C2624
ENCODING 9764
SWIDTH 400 0
DWIDTH 24 0
BBX 24 24 0 -2
BITMAP
1C0080
1C08C0
180E40
180C60
181860
181820
5C1830
5E3018
DB301C
D9600F
D8600F
989FFE
180638
180638
180638
180E38
180C38
180C38
181838
181830
183070
1863E0
18C1C0
198180
ENDCHAR
STARTCHAR C2625
ENCODING 9765
SWIDTH 400 0
DWIDTH 24 0
BBX 24 24 0 -2
BITMAP
0006C0
000760
000630
000610
000607
FFFFFF
000600
000600
30461C
3FE61C
386318
306338
306330
306360
306360
3063E0
3061C0
3FE3C1
3067C1
300E61
001C33
00781E
00C00E
0F8006
ENDCHAR
STARTCHAR C2626
ENCODING 9766
SWIDTH 400 0
DWIDTH 24 0
BBX 24 24 0 -2
BITMAP
000600
000630
000638
000618
00060F
FFFFFF
040600
070600
0E0608
0C060C
188318
384318
306338
67F330
FC3370
601360
0001E0
0061C0
0FC3C1
FC07E3
E00C72
40383E
00E01E
078006
ENDCHAR
STARTCHAR C2627
ENCODING 9767
SWIDTH 400 0
DWIDTH 24 0
BBX 24 24 0 -2
BITMAP
000700
000720
000630
000618
00060A
3FFFFF
300600
300600
300600
300600
307618
3FF61C
318338
318330
318370
318360
3183C0
3181C1
3F81C1
6383E1
600673
C00C3F
80300F
01C007
ENDCHAR
STARTCHAR C2628
ENCODING 9768
SWIDTH 400 0
DWIDTH 24 0
BBX 24 24 0 -2
BITMAP
000060
0807F8
1FFFF8
1C0000
1C000C
1FFFFE
1C000E
1C000C
1C000C
1FFFFC
1C000C
1C0700
1C0700
1C0600
1C061C
1DFFFC
180D00
180D80
1818C0
301860
30303C
60601F
C1800C
860000
ENDCHAR
STARTCHAR C2629
ENCODING 9769
SWIDTH 400 0
DWIDTH 24 0
BBX 24 24 0 -2
BITMAP
000000
00C004
7FE3FE
00E300
00C300
00C300
20C30C
3FC3FE
30C30E
30C30C
30C30C
30C30C
30C30C
30C30C
30C30C
30C37C
7FC33C
20C318
018300
030300
060300
0C0300
100300
600200
ENDCHAR
STARTCHAR C262a
ENCODING 9770
SWIDTH 400 0
DWIDTH 24 0
BBX 24 24 0 -2
BITMAP
0E0000
0E0004
0C7FFE
0C0180
0C0180
0CC180
7FC180
0C0180
0C0180
0C0180
0C0180
0F818C
3E3FFC
FC0180
EC0180
4C0180
0C0180
0C0180
0C0180
0C0180
0C0182
7C7FFF
3C0000
180000
ENDCHAR
STARTCHAR C262b
ENCODING 9771
SWIDTH 400 0
DWIDTH 24 0
BBX 24 24 0 -2
BITMAP
1C0000
1C000C
1C1FFC
1C1860
1C1860
1D1860
7F1860
1C3060
1C3062
1C3FFF
1C30E0
1F01E0
1C01E0
FC03E0
FC0360
5C0660
1C0E60
1C0C60
1C1860
1C3060
1C6060
7CC7E0
3803C0
180180
ENDCHAR
STARTCHAR C262c
ENCODING 9772
SWIDTH 400 0
DWIDTH 24 0
BBX 24 24 0 -2
BITMAP
0E01C0
0E01C0
0C0198
0C018C
0C018C
0D8184
7FC180
0C0186
0C3FFE
0C0180
0C0180
0F83C0
3E03C0
FC0340
EC0340
4C0660
0C0660
0C0E30
0C0C30
0C1818
0C181C
3C300F
3C6006
19C000
ENDCHAR
STARTCHAR C262d
ENCODING 9773
SWIDTH 400 0
DWIDTH 24 0
BBX 24 24 0 -2
BITMAP
1C0070
1C01F8
1C3FC0
1C0300
1C0300
1D0300
7F0300
1C0308
1C7FFC
1C0300
1C0300
1F0300
1C0300
FC0304
FCFFFE
5C0300
1C0300
1C0300
1C0301
1C0301
1C0303
7C03FF
1801FF
1800FE
ENDCHAR
STARTCHAR C262e
ENCODING 9774
SWIDTH 400 0
DWIDTH 24 0
BBX 24 24 0 -2
BITMAP
0E1C0E
0E1C0E
0C180C
0C180C
0C180C
0C980C
7FD80C
0C1FFC
0C180C
0C1800
0C1800
0F9804
3E1FFE
FC1C06
EC1806
4C1806
0C1806
0C1806
0C3006
0C3006
0C3006
7C6006
3C4006
188006
ENDCHAR
STARTCHAR C262f
ENCODING 9775
SWIDTH 400 0
DWIDTH 24 0
BBX 24 24 0 -2
BITMAP
1C0200
1C0300
1C0180
1C01C0
1C00C0
1D04E0
7F0E60
1C0E60
1C0E00
1C0E00
1C2E00
1F2E00
1C2E00
FC6E08
FC6E0C
5C6E06
1C6E06
1CEE07
1CCE03
1CCE0B
1C8E19
7C07F0
3803F0
1801E0
ENDCHAR
STARTCHAR C2630
ENCODING 9776
SWIDTH 400 0
DWIDTH 24 0
BBX 24 24 0 -2
BITMAP
1C0400
1C0600
1C0300
1C0300
1C0100
1D0006
7F7FFF
1C0600
1C0600
1C0600
1C0638
1F07FC
1C0E18
FC0E18
FC0C18
5C0C18
1C1818
1C1818
1C3838
1C3038
1C6030
7C43F0
3881E0
1900C0
ENDCHAR
STARTCHAR C2631
ENCODING 9777
SWIDTH 400 0
DWIDTH 24 0
BBX 24 24 0 -2
BITMAP
1C1000
1C180C
1C1FFE
1C180C
1C180C
1D180C
7F980C
1C180C
1C180C
1C1FFC
1C198C
1F1900
1C1980
FC1880
FC30C0
5C3040
1C3060
1C3020
1C6030
1C6018
1CC01E
7CC00F
198007
1B0000
ENDCHAR
STARTCHAR C2632
ENCODING 9778
SWIDTH 400 0
DWIDTH 24 0
BBX 24 24 0 -2
BITMAP
0E0008
0E301C
0C3FFC
0C300C
0C300C
0DB00C
7FF01C
0C31FC
0C3038
0C3010
0C3000
0FBFFC
3E320C
FC320C
EC3318
4C3118
0C31B0
0C30F0
0C3060
0C30F0
0C30F8
7C319F
3C330F
183606
ENDCHAR
STARTCHAR C2633
ENCODING 9779
SWIDTH 400 0
DWIDTH 24 0
BBX 24 24 0 -2
BITMAP
1C6040
1C6070
1C4060
1C4060
1C4060
7F4C60
1CFE66
1C4FFE
1C4C66
1C4C66
1C4C66
1F4C66
FC4C66
FC4C66
7C4CC6
1C4CC6
1C4CCE
1C4DBC
1CCD9D
1CCF09
1C8C03
7D8FFF
3B0FFF
1E03FC
ENDCHAR
STARTCHAR C2634
ENCODING 9780
SWIDTH 400 0
DWIDTH 24 0
BBX 24 24 0 -2
BITMAP
1C0700
1C0700
1C0600
1C0600
1C0606
1D7FFF
7F0E00
1C0E00
1C0E00
1C0C18
1C0FFC
1F0E0C
1C0F1C
FC1918
FC1938
5C19B0
1C30E0
1C30E0
1C60E0
1CC1F0
1D83B8
7C071F
180C0F
183006
ENDCHAR
STARTCHAR C2635
ENCODING 9781
SWIDTH 400 0
DWIDTH 24 0
BBX 24 24 0 -2
BITMAP
1C0018
1C00FC
1C3FFC
1C0180
1C0180
1D0180
7F8180
1C018C
1C7FFC
1C0180
1C0180
1F0180
1C0182
FCFFFF
FC0180
5C0180
1C0180
1C0180
1C0180
1C0180
1C0180
7C1F80
180F00
180200
ENDCHAR
STARTCHAR C2636
ENCODING 9782
SWIDTH 400 0
DWIDTH 24 0
BBX 24 24 0 -2
BITMAP
1C0338
1C0FB8
1C3E38
1C0E38
1C0E38
1D0E38
7F0E38
1C0E38
1C0E38
1C0E38
1C7FFF
1F0E38
1C0E38
FC0C38
FC0C38
5C0C38
1C0838
1C1838
1C1838
1C1038
1C3038
7C6038
184038
188030
ENDCHAR
STARTCHAR C2637
ENCODING 9783
SWIDTH 400 0
DWIDTH 24 0
BBX 24 24 0 -2
BITMAP
1C0E00
1C0E00
1C0C00
1C1C00
1C1C07
1D1FFF
7F3007
1C3007
1C6407
1CC707
1C0607
1F0C07
1C08C7
FC1867
FC33E7
5C7E67
1C3027
1C1007
1C0006
1C0006
1C000E
7C01FC
380078
180030
ENDCHAR
STARTCHAR C2638
ENCODING 9784
SWIDTH 400 0
DWIDTH 24 0
BBX 24 24 0 -2
BITMAP
1C0000
1C0000
1C1800
1C1C00
1C1807
1D19FF
7F3007
1C6007
1C6407
1CC707
1CC607
1F6E07
1E3C07
FC1807
FC1807
5C3807
1C3007
1C6406
1C6606
1CC70C
1DFFFC
7DE338
38C010
180000
ENDCHAR
STARTCHAR C2639
ENCODING 9785
SWIDTH 400 0
DWIDTH 24 0
BBX 24 24 0 -2
BITMAP
1C0380
1C0380
1C0380
1C0380
1C06C0
1D0660
7F0C60
1C0C30
1C181C
1C381F
1C700F
1FE706
1C8380
FC01C0
FC00E0
5C0060
1C0000
1C0400
1C0600
1C0300
1C0180
7C00C0
1800C0
180040
ENDCHAR
STARTCHAR C263a
ENCODING 9786
SWIDTH 400 0
DWIDTH 24 0
BBX 24 24 0 -2
BITMAP
000E00
020E00
7F0C00
1C0C00
1C1800
1C1806
1C1FFF
1C1838
1C3838
1C6C30
FF4430
1C0630
1C0660
1C0260
1C0360
1C03C0
1C01C0
1C03C0
1C0360
1C0670
1C0C3C
7C181F
38700E
19C004
ENDCHAR
STARTCHAR C263b
ENCODING 9787
SWIDTH 400 0
DWIDTH 24 0
BBX 24 24 0 -2
BITMAP
003000
001800
00181C
3FFFFC
018180
00C300
003E00
007E00
00F780
03C1FF
0E107F
3C1C1C
E01800
003830
0FFFF0
001800
001800
00181C
3FFFFC
001800
001800
001800
001800
001000
ENDCHAR
STARTCHAR C263c
ENCODING 9788
SWIDTH 400 0
DWIDTH 24 0
BBX 24 24 0 -2
BITMAP
000E00
000E00
460E00
FF0C04
E71C0E
E61FFE
E63800
E63000
E66000
E6C030
E63FF0
FE0070
E600E0
E601C0
E60380
E60700
E60E00
E61C00
FE3801
C63001
007003
003FFF
001FFF
000FFE
ENDCHAR
STARTCHAR C263d
ENCODING 9789
SWIDTH 400 0
DWIDTH 24 0
BBX 24 24 0 -2
BITMAP
000038
000038
410030
FF8030
E38030
E38030
E38032
E3FFFF
E38030
E38030
E39030
FF8830
E38C30
E38630
E38630
E38230
E38030
E38030
FF8030
C10030
000030
0003F0
0001E0
000040
ENDCHAR
STARTCHAR C263e
ENCODING 9790
SWIDTH 400 0
DWIDTH 24 0
BBX 24 24 0 -2
BITMAP
040060
07FFF0
060070
060060
060060
07FFE0
060060
060060
07FFE0
060060
000000
00000C
3FFFFE
018380
018300
018300
018300
038300
030300
060300
0C0300
1803FE
3001FF
6000FF
ENDCHAR
STARTCHAR C263f
ENCODING 9791
SWIDTH 400 0
DWIDTH 24 0
BBX 24 24 0 -2
BITMAP
000000
0C0060
0FFFF0
0C0060
0C0060
0FFFE0
0C0060
0C0060
0C0060
0FFFE0
0C0060
002000
003800
003000
003000
003018
003FFC
003000
003000
003000
003000
003004
00300E
7FFFFE
ENDCHAR
STARTCHAR C2640
ENCODING 9792
SWIDTH 400 0
DWIDTH 24 0
BBX 24 24 0 -2
BITMAP
000000
0C0060
0FFFF0
0C0060
0FFFE0
0C0060
0FFFE0
0C0060
000000
000180
07FFC0
0003C0
000700
000800
001804
7FFFFE
003800
001800
001800
001800
001800
01F800
00F000
006000
ENDCHAR
STARTCHAR C2641
ENCODING 9793
SWIDTH 400 0
DWIDTH 24 0
BBX 24 24 0 -2
BITMAP
003900
0039C0
0030E0
003060
003000
3FFFF8
303038
303038
303038
3FFFF8
303038
303038
3FFFF8
303830
001820
001870
0018E0
000F80
000F01
001F01
007383
03C1FF
0E007F
78001F
ENDCHAR
STARTCHAR C2642
ENCODING 9794
SWIDTH 400 0
DWIDTH 24 0
BBX 24 24 0 -2
BITMAP
0E0008
0E001C
0C1FFC
0C000C
0C000C
0D800C
7FC80C
0C0FFC
1C0C08
1E0C00
1F1800
3D9804
3DBFFE
3C1006
6C0006
6C0006
CC0006
8C0006
0C000E
0C000C
0C001C
0C03F8
0C00F8
0C0030
ENDCHAR
STARTCHAR C2643
ENCODING 9795
SWIDTH 400 0
DWIDTH 24 0
BBX 24 24 0 -2
BITMAP
1C0000
1C01E0
1C01C0
1C01C0
1D01C0
FF81C0
1C01C0
1C01C0
1C1DD0
3E1DD8
3F19CC
3F99CC
7D19C6
7C31C6
5C31C3
DC61C3
9C41C0
1C81C0
1C01C0
1C01C0
1C01C0
1C1F80
1C0300
180000
ENDCHAR
STARTCHAR C2644
ENCODING 9796
SWIDTH 400 0
DWIDTH 24 0
BBX 24 24 0 -2
BITMAP
0E0010
0E0078
0C01F8
0C0F80
0C3F00
0D8300
7FC300
0C0300
1C0300
1E0300
1F0304
3DBFFE
3D8300
3C0300
6C0300
6C0300
CC0300
8C0300
0C0301
0C0301
0C0303
0C03FF
0C03FF
0C01FE
ENDCHAR
STARTCHAR C2645
ENCODING 9797
SWIDTH 400 0
DWIDTH 24 0
BBX 24 24 0 -2
BITMAP
1C0000
1C0007
1C1FFF
1C0187
1D0187
FF8187
1C0187
1C3187
1C1987
3E1D87
3F0D87
3F8F87
7D0707
7C0307
5C0307
DC0307
9C0607
1C0607
1C0C06
1C080E
1C180C
1C31FC
1C6078
188030
ENDCHAR
STARTCHAR C2646
ENCODING 9798
SWIDTH 400 0
DWIDTH 24 0
BBX 24 24 0 -2
BITMAP
0E0020
0E0070
0C3FF8
0C0E30
0C0E30
0D8E30
7FCE30
0C0E30
1C0E30
1E0E30
1F0FF0
3DFFF0
3D8E30
3C0E30
6C0E30
6C0E30
CC0E30
8C0E30
0C0E31
0C0E31
0C0E33
0C0E3F
0C0E1F
0C0C00
ENDCHAR
STARTCHAR C2647
ENCODING 9799
SWIDTH 400 0
DWIDTH 24 0
BBX 24 24 0 -2
BITMAP
000008
30001C
3FFFFC
30000C
30000C
30000C
3FFFFC
300008
300F00
300E00
300E00
300E0C
37FFFE
300E00
304E00
307EC0
30EE60
30CE30
31CE1C
638E0E
670E07
CE0E02
800E00
000C00
ENDCHAR
STARTCHAR C2648
ENCODING 9800
SWIDTH 400 0
DWIDTH 24 0
BBX 24 24 0 -2
BITMAP
1C0078
1C01FC
1C1FC0
1C3980
1C0180
7F0180
1C0180
1C0180
1C0186
3EFFFF
3F0180
3F8180
7D0180
5C0180
DC0180
9C0180
1C0180
1C0180
1C0180
1C0180
1C0180
1C0180
1C0180
180180
ENDCHAR
STARTCHAR C2649
ENCODING 9801
SWIDTH 400 0
DWIDTH 24 0
BBX 24 24 0 -2
BITMAP
1C1000
1C1C0E
1C188E
1C19CC
1D19CC
FF99CC
1C19CC
1C19CC
1C19CC
3E19CC
3F19CC
3F99CC
7D19CC
7C19CC
5C19CC
DC31CC
9C31CC
1C31CC
1C71CC
1C61CC
1C618C
1CC00C
1C800C
19000C
ENDCHAR
STARTCHAR C264a
ENCODING 9802
SWIDTH 400 0
DWIDTH 24 0
BBX 24 24 0 -2
BITMAP
00C000
00C000
018060
03FFF0
0780E0
0CC1C0
187700
303E00
007F80
01E1FE
07807E
3C1018
E01C00
001800
001806
FFFFFF
001800
031880
071860
061838
0C181C
38180C
601804
001000
ENDCHAR
STARTCHAR C264b
ENCODING 9803
SWIDTH 400 0
DWIDTH 24 0
BBX 24 24 0 -2
BITMAP
000070
180070
0C1860
0C0C60
000660
010660
810260
E20060
722060
363060
061860
040C60
0C0C60
080062
18007F
19FFE0
300060
F00060
300060
300060
380060
380060
380060
100060
ENDCHAR
STARTCHAR C264c
ENCODING 9804
SWIDTH 400 0
DWIDTH 24 0
BBX 24 24 0 -2
BITMAP
000000
180038
0C3FFC
0C0030
000060
010CC0
810780
E20300
720106
36FFFF
060306
04030C
0C0308
080300
180300
180300
300300
F00300
300300
300300
380300
381F00
380F00
100600
ENDCHAR
STARTCHAR C264d
ENCODING 9805
SWIDTH 400 0
DWIDTH 24 0
BBX 24 24 0 -2
BITMAP
000000
180020
0C7FF0
0C0C30
000C30
010C30
810C30
E20C30
720C30
360C30
060C34
05FFFE
0C1860
081860
181860
181860
301860
F01860
301860
301860
381860
381866
39FFFF
100000
ENDCHAR
STARTCHAR C264e
ENCODING 9806
SWIDTH 400 0
DWIDTH 24 0
BBX 24 24 0 -2
BITMAP
000000
180006
0CFFFF
0C0180
000180
010180
81618C
E27FFE
72718E
36718C
06718C
04718C
0C718C
08718C
18718C
18718C
30718C
F071FC
30719C
302198
380180
380180
380180
100180
ENDCHAR
STARTCHAR C264f
ENCODING 9807
SWIDTH 400 0
DWIDTH 24 0
BBX 24 24 0 -2
BITMAP
000700
180700
0C0640
0C0670
000630
010618
810600
E20607
727FFF
360600
060600
04060E
0C031C
080318
180338
180330
3001E0
F001C1
3001C1
3003E1
380633
381C1F
38700F
11C007
ENDCHAR
STARTCHAR C2650
ENCODING 9808
SWIDTH 400 0
DWIDTH 24 0
BBX 24 24 0 -2
BITMAP
000E00
180E00
0C0C00
0C1800
001804
011FFE
813006
E23006
726006
364006
068066
041FE6
0C0006
080006
180006
180006
300066
F01FE6
30000E
30000C
38000C
3801FC
380078
100030
ENDCHAR
STARTCHAR C2651
ENCODING 9809
SWIDTH 400 0
DWIDTH 24 0
BBX 24 24 0 -2
BITMAP
0001C0
1801C0
0C1D80
0C1980
001980
013188
813FFC
E23180
726180
366180
06C180
048180
0C0180
080187
18FFFF
180180
300180
F00180
300180
300180
380180
380180
380180
100180
ENDCHAR
STARTCHAR C2652
ENCODING 9810
SWIDTH 400 0
DWIDTH 24 0
BBX 24 24 0 -2
BITMAP
101C00
1C1C00
0E1800
061804
00180E
003FFF
01B006
616006
334406
320F06
020E06
061C06
061886
0C18C6
0C33E6
187E66
387066
780006
30000E
18000C
18000C
1C01FC
180078
000030
ENDCHAR
STARTCHAR C2653
ENCODING 9811
SWIDTH 400 0
DWIDTH 24 0
BBX 24 24 0 -2
BITMAP
200300
300300
180700
080780
000C80
020CC0
821860
E61830
643038
24601C
0C7FEF
0CC007
198002
1A0030
183FF8
300038
300030
F00030
300060
300060
3800C0
3800C0
380180
100180
ENDCHAR
STARTCHAR C2654
ENCODING 9812
SWIDTH 400 0
DWIDTH 24 0
BBX 24 24 0 -2
BITMAP
003000
001800
201802
3FFFFF
600007
E00006
C0180C
001800
001800
00181C
01983C
7FD870
01DCE0
019B80
031B00
0319C0
0618E0
0C1870
18183F
30181F
60180C
C1F800
00F000
006000
ENDCHAR
STARTCHAR C2655
ENCODING 9813
SWIDTH 400 0
DWIDTH 24 0
BBX 24 24 0 -2
BITMAP
001800
301818
38181C
301818
301818
301818
3FFFF8
000018
001C00
001800
001818
011818
3F9830
039C60
031EC0
031B00
061980
0618E0
0C1878
18183F
30180F
61F802
80F000
006000
ENDCHAR
STARTCHAR C2656
ENCODING 9814
SWIDTH 400 0
DWIDTH 24 0
BBX 24 24 0 -2
BITMAP
001000
18180C
0C1FFE
0C180C
00180C
01180C
81180C
E2180C
72180C
361FFC
06198C
041900
0C1980
081880
1830C0
183040
303060
F03020
306030
306018
38C01E
38C00F
398007
130000
ENDCHAR
STARTCHAR C2657
ENCODING 9815
SWIDTH 400 0
DWIDTH 24 0
BBX 24 24 0 -2
BITMAP
200000
300020
180038
0CD837
00CC27
00CE66
82C666
E2C346
76C3C6
36C3C6
04C1C6
04C3C6
0CC366
08C366
18C676
18CE36
30CC36
F0D806
30D006
30C006
38C006
38FFFE
38C006
100004
ENDCHAR
STARTCHAR C2658
ENCODING 9816
SWIDTH 400 0
DWIDTH 24 0
BBX 24 24 0 -2
BITMAP
001C00
181C00
0C1800
0C1800
001800
01100E
813FFE
E23030
727830
366830
06C860
048C60
0D0460
080660
1802C0
1803C0
300380
F003C0
3007C0
300E60
381C3C
38381F
38600C
118000
ENDCHAR
STARTCHAR C2659
ENCODING 9817
SWIDTH 400 0
DWIDTH 24 0
BBX 24 24 0 -2
BITMAP
001000
181860
0C1FF0
0C1860
001860
011860
813070
E2307F
72703F
366000
06C020
05BFF0
0C1030
081830
180860
180C60
3006C0
F003C0
300380
3007E0
380E78
381C3F
38700E
11C004
ENDCHAR
STARTCHAR C265a
ENCODING 9818
SWIDTH 400 0
DWIDTH 24 0
BBX 24 24 0 -2
BITMAP
000E00
180E00
0C0C00
0C0C00
001800
01180C
813FFE
E2330C
726318
364310
068300
040380
0C0380
080380
1806C0
180640
300660
F00C60
300C30
301838
38301E
38600F
38C006
138000
ENDCHAR
STARTCHAR C265b
ENCODING 9819
SWIDTH 400 0
DWIDTH 24 0
BBX 24 24 0 -2
BITMAP
000018
18007C
0C3FFC
0C3000
003004
013FFE
813006
E23006
723006
363006
063006
043FFE
0C3006
083000
183000
183000
303000
F07000
306000
306000
38C000
38C000
388000
110000
ENDCHAR
STARTCHAR C265c
ENCODING 9820
SWIDTH 400 0
DWIDTH 24 0
BBX 24 24 0 -2
BITMAP
000030
1800F8
0C67E0
0C7F20
007320
017320
817320
E27320
727320
367330
067330
047330
0C7330
087338
186318
186318
306318
F0631C
30C30C
30C30C
388306
398307
3B0303
160200
ENDCHAR
STARTCHAR C265d
ENCODING 9821
SWIDTH 400 0
DWIDTH 24 0
BBX 24 24 0 -2
BITMAP
000300
180180
0C00C0
0C08C0
000E60
011C60
811870
E21830
723038
363218
06639C
04630F
0CC70F
088606
180E00
180C00
300800
F01820
301830
303018
3861FC
38FF0C
38780C
103000
ENDCHAR
STARTCHAR C265e
ENCODING 9822
SWIDTH 400 0
DWIDTH 24 0
BBX 24 24 0 -2
BITMAP
000010
1E0078
1C01F8
1C0F80
1C3F00
9DC300
DF8300
5F0300
7E0300
7C0304
3C030E
1C7FFE
1C0300
1C0300
180300
1C0300
1E0300
3B0300
338301
318301
218303
6003FF
C003FF
8001FE
ENDCHAR
STARTCHAR C265f
ENCODING 9823
SWIDTH 400 0
DWIDTH 24 0
BBX 24 24 0 -2
BITMAP
001800
001800
081870
061860
0318C0
039980
013400
007300
00E1E0
01C078
07800C
3E0004
71C1C0
01C1C0
018180
018186
7FFFFE
018180
018180
030180
030180
060180
0C0180
380180
ENDCHAR
STARTCHAR C2660
ENCODING 9824
SWIDTH 400 0
DWIDTH 24 0
BBX 24 24 0 -2
BITMAP
003000
001800
201802
3FFFFF
600007
600006
C0180C
801800
001820
001838
0C1870
061860
0718C0
031980
01B900
003C00
003400
006600
00E300
01C1C0
0380F0
06007F
1C003C
700008
ENDCHAR
STARTCHAR C2661
ENCODING 9825
SWIDTH 400 0
DWIDTH 24 0
BBX 24 24 0 -2
BITMAP
000300
1E0300
1C0300
1C0700
1C0604
9D87FE
DFCE06
5F0C06
7E0C06
7C180C
3C180C
1C370C
1C238C
1C41D8
1800D8
1C0030
1E0030
3B0060
3380C0
318180
218300
600600
C01800
807000
ENDCHAR
STARTCHAR C2662
ENCODING 9826
SWIDTH 400 0
DWIDTH 24 0
BBX 24 24 0 -2
BITMAP
000020
000070
07FFF8
000030
000036
FFFFFF
000030
000030
000030
0FFFF0
000020
001C00
001800
001838
0C1870
0738E0
033880
007400
006600
00C380
0181F0
07007F
1C001E
700004
ENDCHAR
STARTCHAR C2663
ENCODING 9827
SWIDTH 400 0
DWIDTH 24 0
BBX 24 24 0 -2
BITMAP
001800
001800
001800
001860
0FFFF0
001800
001800
001800
00180E
7FFFFE
000000
001C00
001800
001838
0C1870
0738E0
033880
007400
006600
00C380
0181F0
07007F
1C001E
700004
ENDCHAR
STARTCHAR C2664
ENCODING 9828
SWIDTH 400 0
DWIDTH 24 0
BBX 24 24 0 -2
BITMAP
0E0000
0E0600
7C0300
6C0380
6C0180
6D01C2
7FBFFF
CC1C00
CC1800
8C1800
8C1800
0C1800
0F9800
3E1800
FC1800
6C1800
0C1800
0C1800
0C1800
0C1800
0C1C00
0C1FFE
0C0FFE
0C0000
ENDCHAR
STARTCHAR C2665
ENCODING 9829
SWIDTH 400 0
DWIDTH 24 0
BBX 24 24 0 -2
BITMAP
060008
06001C
761FFC
6601C0
6601C0
66C1C0
7FC1C0
C601C0
C601C0
8601C6
867FFF
0601C0
07C1C0
3E01C0
FE01C0
6601C0
0601C0
0601C0
0601C0
0601C0
0601C0
0601C0
0601C0
040180
ENDCHAR
STARTCHAR C2666
ENCODING 9830
SWIDTH 400 0
DWIDTH 24 0
BBX 24 24 0 -2
BITMAP
0001C0
4701C0
660180
3C0186
18FFFF
3C0180
6C0180
C63188
863FFC
06318C
06318C
0F318C
1B318C
13318C
23318C
43318C
83318C
03318C
0331BC
0731BC
063198
3E0180
3C0180
180180
ENDCHAR
STARTCHAR C2667
ENCODING 9831
SWIDTH 400 0
DWIDTH 24 0
BBX 24 24 0 -2
BITMAP
000000
8E0370
5CFFF0
380760
300660
780C60
D81860
0C1860
0C1860
0C1860
1C1860
1E1E60
36F860
27F860
46D860
861860
061860
061860
061861
0E1861
0C1863
FCF87F
38783F
30301E
ENDCHAR
STARTCHAR C2668
ENCODING 9832
SWIDTH 400 0
DWIDTH 24 0
BBX 24 24 0 -2
BITMAP
0401C0
8601C0
4C0180
380180
380180
380180
4C7FFE
8C0180
0C03C0
0E03C0
0E03E0
1E07E0
1E0FB0
360DB0
661D98
C6199C
06318E
063187
066183
06C180
0E8180
7C0180
3C0180
180180
ENDCHAR
STARTCHAR C2669
ENCODING 9833
SWIDTH 400 0
DWIDTH 24 0
BBX 24 24 0 -2
BITMAP
040380
860380
4C0330
380318
38030C
380300
4C0300
8C7FFE
0C0300
0E0300
0E0300
1E0380
1E07C0
3607C0
6607C0
C60FC0
060DC0
061DC0
0619C1
0639C1
0E31C3
7C61FF
3CC0FF
19807E
ENDCHAR
STARTCHAR C266a
ENCODING 9834
SWIDTH 400 0
DWIDTH 24 0
BBX 24 24 0 -2
BITMAP
0001C0
4701C0
660198
3C018C
18018C
3C0184
6C0180
C67FFE
860180
060180
060180
0F0380
1B03C0
1303C0
2303C0
430660
830660
030E70
030C30
071838
06181C
3E300F
3C6006
19C000
ENDCHAR
STARTCHAR C266b
ENCODING 9835
SWIDTH 400 0
DWIDTH 24 0
BBX 24 24 0 -2
BITMAP
0381C0
0381C0
030198
63018C
33018C
3B0184
1B0180
1B7FFE
030180
030180
030180
030380
0303C0
030340
030340
0F0760
3B0660
F30630
E30C30
430C18
03181E
03380F
037006
03C000
ENDCHAR
STARTCHAR C266c
ENCODING 9836
SWIDTH 400 0
DWIDTH 24 0
BBX 24 24 0 -2
BITMAP
040380
860380
4C0300
380304
38038E
38FFFE
4C0300
8C2318
0C731C
0E7318
0E7318
1E7318
1E7318
367318
667318
C67FF8
066398
060300
060301
060301
0E0303
7C03FF
3C01FF
1800FE
ENDCHAR
STARTCHAR C266d
ENCODING 9837
SWIDTH 400 0
DWIDTH 24 0
BBX 24 24 0 -2
BITMAP
040038
8601FC
4C3FC0
383000
383000
383000
4C3000
8C3006
0C3FFF
0E3060
0E3060
1E3060
1E3060
363060
663060
C67060
066060
066060
066060
06C060
0EC060
7CC060
3D8060
180040
ENDCHAR
STARTCHAR C266e
ENCODING 9838
SWIDTH 400 0
DWIDTH 24 0
BBX 24 24 0 -2
BITMAP
000008
00001C
011FFC
FF800C
1C000C
1C000C
1C000C
1C000C
1C000C
1C100C
7F1FFC
1C1808
1C1800
1C1800
1C1800
1C1800
1C1800
1F9801
FE1801
F01801
601803
001FFF
000FFF
000000
ENDCHAR
STARTCHAR C266f
ENCODING 9839
SWIDTH 400 0
DWIDTH 24 0
BBX 24 24 0 -2
BITMAP
000008
00001C
011FFC
FF8038
1C0060
1C00C0
1C0180
1C0180
1C0180
1C0180
7F0186
1CFFFF
1C0180
1C0180
1C0180
1C0180
1C0180
1F8180
FE0180
F00180
600180
001F80
000F00
000200
ENDCHAR
STARTCHAR C2670
ENCODING 9840
SWIDTH 400 0
DWIDTH 24 0
BBX 24 24 0 -2
BITMAP
000000
000008
013FFC
FF8000
1C0000
1C0000
1C0000
1C0007
1C7FFF
1C0E00
7F0C00
1C0C00
1C1818
1C1FFC
1C000C
1C000C
1C000C
1F800C
FE001C
F00018
600038
0003F0
0001E0
000040
ENDCHAR
STARTCHAR C2671
ENCODING 9841
SWIDTH 400 0
DWIDTH 24 0
BBX 24 24 0 -2
BITMAP
000000
000060
013FF0
FF8C70
1C0C60
1C0C60
1C0C60
1C0C60
1C3C60
1C1C60
7F0E60
1C0F60
1C0FE0
1C0DE0
1C0C60
1C0C60
1C1860
1F9861
FE1861
F03063
603073
00607F
00403F
008000
ENDCHAR
STARTCHAR C2672
ENCODING 9842
SWIDTH 400 0
DWIDTH 24 0
BBX 24 24 0 -2
BITMAP
000100
0001C0
000180
018180
FFC180
DD8180
DD8180
DD8180
DD8180
DD8180
DD8380
FF83C0
DD83C0
DD8340
DD8360
DD8660
DD8660
FF8E30
C18C30
401818
00181E
00300F
006007
01C000
ENDCHAR
STARTCHAR C2673
ENCODING 9843
SWIDTH 400 0
DWIDTH 24 0
BBX 24 24 0 -2
BITMAP
001800
000C00
180606
1FFFFF
1C0000
9C0000
DC0030
7DFFF0
7C1830
1C1860
1C1860
1C18CE
1C18FF
3C1806
FC1806
D83006
183006
187006
30600E
30600C
30C00C
61C1FC
638078
C60030
ENDCHAR
STARTCHAR C2674
ENCODING 9844
SWIDTH 400 0
DWIDTH 24 0
BBX 24 24 0 -2
BITMAP
00C000
00C000
008010
1FFFF8
180038
180038
180038
1FFFF8
180038
180038
180038
1FFFF8
140010
070000
0600E0
060FF0
067C00
07C000
060004
06000C
060008
07FFF8
07FFFC
03FFF8
ENDCHAR
STARTCHAR C2675
ENCODING 9845
SWIDTH 400 0
DWIDTH 24 0
BBX 24 24 0 -2
BITMAP
00E000
00E000
00C000
018030
1FFFF0
1C0030
1C0030
1C0030
1FFFF0
1C0030
1C0030
1FFFF0
180030
002000
007000
00E000
00C040
018030
030018
06001C
1C3FFC
3FE00C
1E000C
0C0004
ENDCHAR
STARTCHAR C2676
ENCODING 9846
SWIDTH 400 0
DWIDTH 24 0
BBX 24 24 0 -2
BITMAP
00E000
00E000
00C000
018030
1FFFF0
1C0030
1C0030
1C0030
1FFFF0
1C0030
1C0030
1C0030
1C0030
1FFFF0
18C330
00C300
00C300
018300
018301
030301
070303
0E03FF
1803FF
6001FE
ENDCHAR
STARTCHAR C2677
ENCODING 9847
SWIDTH 400 0
DWIDTH 24 0
BBX 24 24 0 -2
BITMAP
003800
003800
003000
003000
003000
003800
003600
003300
003180
0030C0
003060
003000
003000
003000
003000
002020
1C0070
1FFFF8
1CC630
1CC630
1CC630
1CC630
1CE637
FFFFFF
ENDCHAR
STARTCHAR C2678
ENCODING 9848
SWIDTH 400 0
DWIDTH 24 0
BBX 24 24 0 -2
BITMAP
000000
0001C0
1FFFC0
00C180
00C100
00C30C
0187FE
01800C
03800C
03000C
06000C
06001C
0C03F8
180030
300020
400020
080070
1FFFF8
1CC630
1CC630
1CC630
1CC630
1CE637
FFFFFF
ENDCHAR
STARTCHAR C2679
ENCODING 9849
SWIDTH 400 0
DWIDTH 24 0
BBX 24 24 0 -2
BITMAP
000000
060007
FF7FFF
E70300
E60300
E60600
E60600
E60C00
FE0C00
E6180C
E61FFE
E6000E
E6000C
FE000C
E6000C
E6000C
E6000C
E6000C
E6000C
FE000C
E60018
4003F8
0000F0
000060
ENDCHAR
STARTCHAR C267a
ENCODING 9850
SWIDTH 400 0
DWIDTH 24 0
BBX 24 24 0 -2
BITMAP
000000
00CF00
FFEE00
1C0E00
1C0E00
180E00
180E00
180E0C
310E1E
3F8EF0
39CF80
718E00
718E00
F18E00
B18E00
318E00
318E00
318E00
3F8E01
398E01
318E03
300FFF
0007FF
0003FE
ENDCHAR
STARTCHAR C267b
ENCODING 9851
SWIDTH 400 0
DWIDTH 24 0
BBX 24 24 0 -2
BITMAP
000000
010000
7F8006
183FFF
1800C0
3000C0
3000C0
3000C0
3100C0
7F80C0
7380C0
7380C0
F380C0
F380C0
3380C0
3380C0
3380C0
3380C0
3F80C0
3380C0
3300C0
200FC0
0003C0
000180
ENDCHAR
STARTCHAR C267c
ENCODING 9852
SWIDTH 400 0
DWIDTH 24 0
BBX 24 24 0 -2
BITMAP
000007
001007
FFF806
0601C6
0601C6
0C01C6
0C01C6
1C01C6
1821C6
1FF1C6
3839C6
3831C6
7831C6
D831C6
9831C6
1831C6
1831C6
183186
1FF006
183006
180006
10007E
00003C
000008
ENDCHAR
STARTCHAR C267d
ENCODING 9853
SWIDTH 400 0
DWIDTH 24 0
BBX 24 24 0 -2
BITMAP
030000
0F8038
3C3FF8
4C0E38
0C0E30
0C0E30
7F8E30
0C0E60
0C0E62
1C0EFF
1E0C47
1F0C07
3D8C07
3C9807
2C1807
6C1807
4C1807
CC3007
8C3006
0C6006
0C600E
0CC1FC
0C8078
0D0030
ENDCHAR
STARTCHAR C267e
ENCODING 9854
SWIDTH 400 0
DWIDTH 24 0
BBX 24 24 0 -2
BITMAP
000000
201820
301FF0
181830
181830
011830
FF9830
021830
031830
C31830
431830
661830
661830
261830
361830
341830
3C1830
0F9830
FE3031
F03031
607033
00603F
00C03F
03800E
ENDCHAR
STARTCHAR C2721
ENCODING 10017
SWIDTH 400 0
DWIDTH 24 0
BBX 24 24 0 -2
BITMAP
0001C0
2001C0
3001C0
1801C0
1801C0
0101C0
FF81C0
0201C0
0301C2
C37FFF
4301C0
6601C0
6601C0
2601C0
3601C0
3401C0
3C01C0
0F81C0
FE01C0
F001C0
6001C0
0001C0
0001C0
000180
ENDCHAR
STARTCHAR C2722
ENCODING 10018
SWIDTH 400 0
DWIDTH 24 0
BBX 24 24 0 -2
BITMAP
000700
1E0700
1C0600
180600
300600
238600
630600
660600
760600
1C0600
1C0600
190600
318600
21C600
7FC600
70C600
210600
098601
2CC601
64C603
664603
C607FF
C003FF
8001FC
ENDCHAR
STARTCHAR C2723
ENCODING 10019
SWIDTH 400 0
DWIDTH 24 0
BBX 24 24 0 -2
BITMAP
200000
338008
3FBFFC
338000
338000
338000
338000
3F8007
37BFFF
338600
338600
338E00
338C18
379FFC
3F880C
6B800C
63800C
63800C
63801C
E38018
C38038
CF83F0
8701E0
030040
ENDCHAR
STARTCHAR C2724
ENCODING 10020
SWIDTH 400 0
DWIDTH 24 0
BBX 24 24 0 -2
BITMAP
000E00
238E00
3F8E00
338C00
338C04
339FFE
339806
3F9806
37B006
33A006
338606
338306
338186
3780C6
3F80C6
6B8046
638006
638006
63800E
E3800C
C3800C
DF81FC
870078
060030
ENDCHAR
STARTCHAR C2725
ENCODING 10021
SWIDTH 400 0
DWIDTH 24 0
BBX 24 24 0 -2
BITMAP
000200
238380
3F8300
338300
338300
338638
338638
3F863F
37FFFF
338E38
338C30
338C30
338830
379860
3F9860
6BB860
638EC0
6383C0
6381E0
E38370
C38638
DF8C1C
87180C
067004
ENDCHAR
STARTCHAR C2726
ENCODING 10022
SWIDTH 400 0
DWIDTH 24 0
BBX 24 24 0 -2
BITMAP
0000E0
2380E0
3F9CC0
339CC0
3398C0
3398C0
3398C6
3F9CFF
37FFC7
3398C6
3398C6
3398CC
3398CC
3798CC
3F98C8
6B98C8
6398C0
6398C0
639801
C39801
C39803
DF9FFF
870FFF
0607FE
ENDCHAR
STARTCHAR C2727
ENCODING 10023
SWIDTH 400 0
DWIDTH 24 0
BBX 24 24 0 -2
BITMAP
0700E0
0700E0
0600C2
FFE7FF
0700C0
0600C0
0600C0
001000
001C00
001800
001800
041800
0718C0
0E1860
0C1830
181818
18180C
30180E
601806
801806
001800
03F800
00F000
006000
ENDCHAR
STARTCHAR C2728
ENCODING 10024
SWIDTH 400 0
DWIDTH 24 0
BBX 24 24 0 -2
BITMAP
0700E0
0700E0
0660C2
FFE7FF
0600C0
0600C0
004000
007000
0039E0
0219C0
0201C0
010180
018180
00C300
004300
006600
003E00
001C00
003F00
0073C0
01C1F8
07007F
1C001E
700004
ENDCHAR
STARTCHAR C2729
ENCODING 10025
SWIDTH 400 0
DWIDTH 24 0
BBX 24 24 0 -2
BITMAP
0700E0
0700E0
0660C2
FFE7FF
0600C0
0600C0
000000
000020
07FFE0
000000
000000
00000E
7FFFFE
018000
018020
03FFF0
030030
000030
000030
000070
000060
000FE0
0003C0
000180
ENDCHAR
STARTCHAR C272a
ENCODING 10026
SWIDTH 400 0
DWIDTH 24 0
BBX 24 24 0 -2
BITMAP
0700E0
0700E0
0660C2
FFE7FF
0600C0
0600C0
000000
000060
07FFF0
000060
000060
070060
060060
060060
07FFE0
060060
060000
060001
060003
060002
060006
07FFFF
07FFFE
03FFF8
ENDCHAR
STARTCHAR C272b
ENCODING 10027
SWIDTH 400 0
DWIDTH 24 0
BBX 24 24 0 -2
BITMAP
0700E0
0700E0
0660C2
FFE7FF
0600C0
0600C0
000000
00E000
00E000
00C030
01FFF0
018070
030060
0780E0
0C60C0
183180
301B00
000E00
000C00
001800
007000
01C000
070000
3C0000
ENDCHAR
STARTCHAR C272c
ENCODING 10028
SWIDTH 400 0
DWIDTH 24 0
BBX 24 24 0 -2
BITMAP
0700E0
0700E0
0660C2
FFE7FF
0600C0
0600C0
000000
03C000
038000
030000
030060
07FFF0
0700E0
0680C0
0CC1C0
186380
303700
001E00
003F00
0073C0
01E1F8
07807F
1E003C
780008
ENDCHAR
STARTCHAR C272d
ENCODING 10029
SWIDTH 400 0
DWIDTH 24 0
BBX 24 24 0 -2
BITMAP
0E0700
0E0700
0C0600
0C0600
0C0600
4CC600
FFC600
ECC600
ECC600
ECC600
ECC600
ECC600
ECC600
FFC600
CC8600
0C0600
0C0600
0D0601
0C8601
0FC603
FCC603
F047FF
4003FF
0001FC
ENDCHAR
STARTCHAR C272e
ENCODING 10030
SWIDTH 400 0
DWIDTH 24 0
BBX 24 24 0 -2
BITMAP
0000C0
0003E0
003FE0
07F800
001800
001800
001800
001820
1FFFF0
1C1830
1C1830
1C1830
1C1830
1C3830
1FFFF0
081800
001800
001820
001818
00181C
00FFFE
3FF00E
3E0006
1C0000
ENDCHAR
STARTCHAR C272f
ENCODING 10031
SWIDTH 400 0
DWIDTH 24 0
BBX 24 24 0 -2
BITMAP
0003C0
000FE0
00FE00
0FC070
0003F0
003F00
03F870
1E01F8
001FC0
03FC00
3E1800
001800
001800
021818
039FFC
031800
061800
071800
0F1800
0C9800
18F800
307FFF
601FFF
000FFC
ENDCHAR
STARTCHAR C2730
ENCODING 10032
SWIDTH 400 0
DWIDTH 24 0
BBX 24 24 0 -2
BITMAP
000000
000380
700380
380300
1C0300
00030E
00FFFE
000300
0C0380
FE0380
1C06C0
1806C0
300E40
3E0C60
7E1C70
461838
0C301C
0C601F
18C00C
398000
7E0000
E7FFFF
C0FFFC
001FF8
ENDCHAR
STARTCHAR C2731
ENCODING 10033
SWIDTH 400 0
DWIDTH 24 0
BBX 24 24 0 -2
BITMAP
000000
000070
700070
380060
1C0060
000064
00FFFE
000070
0C0060
FE3060
1C1860
180C60
300E60
3E0660
7F0060
460060
0C0060
0C0060
1807E0
3800C0
7F0000
E7FFFF
407FFC
001FF8
ENDCHAR
STARTCHAR C2732
ENCODING 10034
SWIDTH 400 0
DWIDTH 24 0
BBX 24 24 0 -2
BITMAP
000000
000008
701FFC
38001C
1C0030
000060
000180
000180
0C0180
FEFFFE
1C0180
180180
300180
3E0180
7F0180
460180
0C0180
0C0380
181F80
380700
7F0200
E7FFFF
407FFC
001FF8
ENDCHAR
STARTCHAR C2733
ENCODING 10035
SWIDTH 400 0
DWIDTH 24 0
BBX 24 24 0 -2
BITMAP
000010
000078
7003F8
383F80
1C0180
000180
000180
000180
0C018E
FEFFFE
1C0180
180180
300180
3E0180
7F0180
460180
0C0180
0C0180
180180
380180
7F0100
E7FFFF
007FFC
001FF8
ENDCHAR
STARTCHAR C2734
ENCODING 10036
SWIDTH 400 0
DWIDTH 24 0
BBX 24 24 0 -2
BITMAP
038100
03818C
0301FE
03018C
03118C
431988
633198
333190
1B61B0
1B4198
03018C
030184
030186
030186
070187
068187
064187
0661FE
0C319E
0C398C
181980
301980
600180
000180
ENDCHAR
STARTCHAR C2735
ENCODING 10037
SWIDTH 400 0
DWIDTH 24 0
BBX 24 24 0 -2
BITMAP
006100
01F18C
3F81FE
30018C
30018C
300188
300198
300990
3FFDB0
30C198
30C18C
30C184
30C186
30C186
30C187
30C187
30C187
30C1FE
70C19E
60C18C
60C180
C0C180
80C180
008180
ENDCHAR
STARTCHAR C2736
ENCODING 10038
SWIDTH 400 0
DWIDTH 24 0
BBX 24 24 0 -2
BITMAP
000004
0001CE
0061FF
3FF1C6
0001CC
0001CC
0001D8
0001D0
0019D0
FFFDC8
0701C4
0601C6
0601C7
0C01C3
0C01C3
1801C3
1801C3
3061FF
3031DE
21F9CC
7F99C0
7819C0
3009C0
000180
ENDCHAR
STARTCHAR C2737
ENCODING 10039
SWIDTH 400 0
DWIDTH 24 0
BBX 24 24 0 -2
BITMAP
038100
03818C
0381FE
03818C
03818C
039988
7FF998
038190
0781B0
07C198
07E18C
0FB184
0FB186
1B9986
1B9987
339987
338187
6381BE
C3819E
03818C
038180
038180
038180
030180
ENDCHAR
STARTCHAR C2738
ENCODING 10040
SWIDTH 400 0
DWIDTH 24 0
BBX 24 24 0 -2
BITMAP
000000
3071CC
3FF9FE
3031CC
3431CC
3331C8
33B1D8
31B1D0
31B1F0
3031D8
383FCC
FFFFC4
3031C6
3031C6
3031C7
3031C7
3031C7
3031FE
3031DE
6031CC
6031C0
C3F1C0
80F1C0
006180
ENDCHAR
STARTCHAR C2739
ENCODING 10041
SWIDTH 400 0
DWIDTH 24 0
BBX 24 24 0 -2
BITMAP
038100
03818C
0301FE
03198C
FFFD8C
030188
030198
233190
3331B0
333198
33318C
333184
333186
333186
333187
7FF187
233187
0301BE
03019E
03198C
03F180
03C180
030180
000180
ENDCHAR
STARTCHAR C273a
ENCODING 10042
SWIDTH 400 0
DWIDTH 24 0
BBX 24 24 0 -2
BITMAP
000070
E60070
FF0C60
E60660
E60760
E40360
EC0360
E80060
E82060
EC1860
E60C60
E60E60
E70660
E30066
E3007F
E37FE0
E70060
FE0060
E60060
E00060
E00060
E00060
E00060
C00060
ENDCHAR
STARTCHAR C273b
ENCODING 10043
SWIDTH 400 0
DWIDTH 24 0
BBX 24 24 0 -2
BITMAP
000300
E60300
FF0300
E60300
E60308
E4830E
ECC31C
E86318
EC7330
E43320
E63340
E61700
E30700
E30780
E30F80
E30CC0
E70CC0
FE1860
E61870
E03038
E0603C
E0C01F
E1800E
C70004
ENDCHAR
STARTCHAR C273c
ENCODING 10044
SWIDTH 400 0
DWIDTH 24 0
BBX 24 24 0 -2
BITMAP
000000
E60007
FF3FFF
E600E0
E600C0
E401C0
EC01C0
E803C0
E803D0
EC07D8
E607CC
E60DC6
E719C7
E311C3
E321C3
E341C1
E701C0
FE01C0
E601C0
E001C0
E001C0
E001C0
E001C0
C00180
ENDCHAR
STARTCHAR C273d
ENCODING 10045
SWIDTH 400 0
DWIDTH 24 0
BBX 24 24 0 -2
BITMAP
040000
EE0000
FE600C
E67FFE
EC700C
EC700C
F8700C
F0700C
F0700C
E8700C
EC700C
E67FFC
E6700C
E6700C
E6700C
E6700C
E6700C
FE700C
EC700C
E0700C
E07FFC
E0700C
E02000
C00000
ENDCHAR
STARTCHAR C273e
ENCODING 10046
SWIDTH 400 0
DWIDTH 24 0
BBX 24 24 0 -2
BITMAP
001000
E6180C
FF1FFE
E6180C
E6180C
E4180C
EC180C
E8180C
E81FFC
EC180C
E6180C
E6180C
E7180C
E3180C
E31FFC
E3180C
E7180C
FE300C
E6300C
E0600C
E0600C
E0C07C
E0803C
C10018
ENDCHAR
STARTCHAR C273f
ENCODING 10047
SWIDTH 400 0
DWIDTH 24 0
BBX 24 24 0 -2
BITMAP
000638
E61F38
FF7C30
E60C30
E60C30
E40C30
EC0C30
E80C30
E80C30
EC0C32
E6FFFF
E60C30
E70C30
E30C30
E31830
E31830
E71830
FF1830
E63030
E03030
E06030
E06030
E0C030
C18030
ENDCHAR
STARTCHAR C2740
ENCODING 10048
SWIDTH 400 0
DWIDTH 24 0
BBX 24 24 0 -2
BITMAP
000000
004006
FFE7FF
000000
000000
000000
60C60C
7FE7FE
60E60E
60C60C
60C60C
68C68C
6CC6CC
66C66C
66C66C
62C62C
60C60C
60C60C
60C60C
60C60C
60C60C
67C67C
63C63C
618618
ENDCHAR
STARTCHAR C2741
ENCODING 10049
SWIDTH 400 0
DWIDTH 24 0
BBX 24 24 0 -2
BITMAP
008008
01C01C
7FC7FC
038018
030030
360330
1C01E0
0C00C0
0CE0C6
FFFFFF
0C60C7
0CC0C6
0C80CC
0C00C0
0C00C0
0C00C0
0C00C0
0C00C0
0C00C0
0C00C0
0C00C0
7C07C0
3C03C0
180180
ENDCHAR
STARTCHAR C2742
ENCODING 10050
SWIDTH 400 0
DWIDTH 24 0
BBX 24 24 0 -2
BITMAP
006000
00E000
00C180
0180C0
070FE0
0FF830
060018
000048
0E0060
1C00C0
188198
30430C
73E7FE
7E67C6
703306
300000
000000
000030
3FFFF8
000000
000000
000000
000007
FFFFFF
ENDCHAR
STARTCHAR C2743
ENCODING 10051
SWIDTH 400 0
DWIDTH 24 0
BBX 24 24 0 -2
BITMAP
038300
038300
070310
067FF8
060738
0C0338
1C033A
1DFFFF
3C0338
3C0338
7C0738
5C7FF0
9C0300
1C0308
1CFFFC
1C0300
1C0300
1C0306
1DFFFF
1C0300
1C0300
1C0300
1C0300
180200
ENDCHAR
STARTCHAR C2744
ENCODING 10052
SWIDTH 400 0
DWIDTH 24 0
BBX 24 24 0 -2
BITMAP
070380
070380
06430E
06631C
0C3318
0C3B18
1C1B30
1C1B20
3C0300
7C0306
7CFFFE
DC0C60
1C0C60
1C0C60
1C0C60
1C0C60
1C1860
1C1860
1C3861
1C3061
1C7063
1C607F
1CC07F
1B803E
ENDCHAR
STARTCHAR C2745
ENCODING 10053
SWIDTH 400 0
DWIDTH 24 0
BBX 24 24 0 -2
BITMAP
038180
038180
070190
0601F8
060F80
0C3D80
1C0180
1C018C
3C7FFC
3C0180
7C0180
5C018E
9CFFFE
1C0380
1C07C0
1C07E0
1C0DB0
1C1DB8
1C399F
1C718F
1CE186
1DC180
1C0180
180180
ENDCHAR
STARTCHAR C2746
ENCODING 10054
SWIDTH 400 0
DWIDTH 24 0
BBX 24 24 0 -2
BITMAP
0E0030
0EFFF8
0CC038
1CC038
18C038
18DFF8
30C638
30C638
70C638
70CEB8
F0CFF8
B0CDF8
30CDF8
30D9B8
30D9B8
30F798
30C318
30C319
31C319
31860D
31860F
330C0F
321807
341003
ENDCHAR
STARTCHAR C2747
ENCODING 10055
SWIDTH 400 0
DWIDTH 24 0
BBX 24 24 0 -2
BITMAP
070E00
070E00
061C30
061FF8
0C3870
0C3CE0
1C67C0
1CC380
3C87E0
7C0C7F
7C3B3F
DCE38C
1D8300
1C2398
1C7FF8
1C7300
1C7300
1C730C
1C7FFE
1C6380
1C0300
1C0300
1C0300
180300
ENDCHAR
STARTCHAR C2748
ENCODING 10056
SWIDTH 400 0
DWIDTH 24 0
BBX 24 24 0 -2
BITMAP
0701C0
0701C0
062188
06318E
0C199C
0C1998
180DB0
180DA0
380182
787FFF
780180
D80180
180180
181D90
181998
18398C
183186
186187
18C183
188183
190181
180180
180180
180180
ENDCHAR
STARTCHAR C2749
ENCODING 10057
SWIDTH 400 0
DWIDTH 24 0
BBX 24 24 0 -2
BITMAP
070300
070300
060300
060300
0C070C
0CFFFC
180300
19831C
38C318
786330
787320
D83340
180306
19FFFE
180780
180680
180CC0
180C60
181870
181838
18301C
18600F
18C006
1F0000
ENDCHAR
STARTCHAR C274a
ENCODING 10058
SWIDTH 400 0
DWIDTH 24 0
BBX 24 24 0 -2
BITMAP
070008
07001C
067FFC
060300
0C0300
0C2318
187FFC
187318
387318
787318
78739B
D8FFFF
187318
187318
187318
187318
19FFFF
187018
187018
187018
187018
1870F8
187078
186030
ENDCHAR
STARTCHAR C274b
ENCODING 10059
SWIDTH 400 0
DWIDTH 24 0
BBX 24 24 0 -2
BITMAP
070000
070006
06FFFF
060EC0
0C0EC0
0C0EC0
1C0EC0
1C0ECC
3CFFFE
7CCECE
7CCECC
DCCECC
1CCECC
1CCECC
1CCECC
1CCECC
1CCECC
1CCECC
1CCECC
1CCECC
1CCECC
1CFFFC
1CC00C
180000
ENDCHAR
STARTCHAR C274c
ENCODING 10060
SWIDTH 400 0
DWIDTH 24 0
BBX 24 24 0 -2
BITMAP
070700
070700
060602
06FFFF
0C0E00
0C0E00
1C0C00
1C0C0C
3C1FFE
7C181C
7C3018
DC3030
1C7060
1CF060
1CB062
1D3FFF
1C3060
1C3060
1C3060
1C3060
1C3060
1C33E0
1C31E0
183040
ENDCHAR
STARTCHAR C274d
ENCODING 10061
SWIDTH 400 0
DWIDTH 24 0
BBX 24 24 0 -2
BITMAP
039008
03981C
071FFC
06180C
06180C
0C180C
1C180C
1C180C
3C180C
3C1FFC
7C1008
5C0000
9C0004
1C700E
1C7FFF
1C7006
1C7006
1C7006
1C7006
1C7006
1C7006
1C7FFE
1C7006
186004
ENDCHAR
STARTCHAR C274e
ENCODING 10062
SWIDTH 400 0
DWIDTH 24 0
BBX 24 24 0 -2
BITMAP
038000
03B00C
073FFE
06300C
06300C
0C300C
1C300C
1C300C
3C300C
3C300C
7C3FFC
5C300C
9C0000
1C10C2
1C38C7
1C3186
1C618C
1CE318
1CC618
1C630C
1C3186
1C38C7
1C1863
180863
ENDCHAR
STARTCHAR C274f
ENCODING 10063
SWIDTH 400 0
DWIDTH 24 0
BBX 24 24 0 -2
BITMAP
038E00
038E00
070E0C
060FFE
061C1E
0C181C
1C381C
1C3838
3C6C70
3C46E0
7C83C0
5C0180
9C0300
1C0604
1C0FFE
1C1C06
1C3C06
1CEC06
1DCC06
1C0C06
1C0C06
1C0FFE
1C0C06
180C04
ENDCHAR
STARTCHAR C2750
ENCODING 10064
SWIDTH 400 0
DWIDTH 24 0
BBX 24 24 0 -2
BITMAP
038300
038300
07020C
063FFE
06300E
0C300C
1C300C
1C300C
3C300C
3C3FFC
6C300C
4C300C
8C300C
0C300C
0C300C
0C3FFC
0C300C
0C300C
0C300C
0C300C
0C300C
0C3FFC
0C300C
0C3000
ENDCHAR
STARTCHAR C2751
ENCODING 10065
SWIDTH 400 0
DWIDTH 24 0
BBX 24 24 0 -2
BITMAP
001800
003800
003400
006300
01C1C0
07FFFF
1E001F
7001C6
C3FFC0
000180
000300
000630
0FFFF0
000000
00000C
3FFFFE
007000
00F000
01C0C0
038060
060FF0
1FF838
0F0018
060000
ENDCHAR
STARTCHAR C2752
ENCODING 10066
SWIDTH 400 0
DWIDTH 24 0
BBX 24 24 0 -2
BITMAP
006000
003000
001804
7FFFFE
018180
0380E0
030070
067038
0C601C
38C30C
6181C0
0300E0
07FFF0
0FE770
06C330
00C300
00C300
018300
018301
018303
030302
0603FE
1C03FE
7001FC
ENDCHAR
STARTCHAR C2753
ENCODING 10067
SWIDTH 400 0
DWIDTH 24 0
BBX 24 24 0 -2
BITMAP
000000
0001C0
1FFFE0
00C0C0
0180C0
0181C0
031F80
060700
0C0270
1FFFF8
3C1830
0C1830
0C1830
0C3830
0FFFF0
083E00
003E60
006E30
006E39
00CE13
018E02
070FFE
1C07FE
7001FC
ENDCHAR
STARTCHAR C2754
ENCODING 10068
SWIDTH 400 0
DWIDTH 24 0
BBX 24 24 0 -2
BITMAP
000000
040060
07FFF0
060060
060060
07FFE0
060060
060060
060060
07FFE0
060060
060060
060060
07FFE0
040060
000000
000007
FFFFFF
000100
03C0C0
078070
0E0018
1C000C
700004
ENDCHAR
STARTCHAR C2755
ENCODING 10069
SWIDTH 400 0
DWIDTH 24 0
BBX 24 24 0 -2
BITMAP
000000
0C0038
0FFFF8
0C0038
0C0038
0FFFF8
0C0038
0C0038
0FFFF0
080000
000060
07FFF0
060070
060060
07FFE0
060060
060060
07FFE0
060060
060060
0C0060
0C07E0
1801E0
7000C0
ENDCHAR
STARTCHAR C2756
ENCODING 10070
SWIDTH 400 0
DWIDTH 24 0
BBX 24 24 0 -2
BITMAP
001040
001C70
601860
301860
381860
181864
02FFFE
0638E0
041860
0C1860
0C1860
181860
181860
101866
33FFFF
F00000
F03000
603820
307018
30601C
30C00E
31C007
338007
060000
ENDCHAR
STARTCHAR C2757
ENCODING 10071
SWIDTH 400 0
DWIDTH 24 0
BBX 24 24 0 -2
BITMAP
000004
00C00E
60FFFF
30C006
38C006
18C026
02DFF6
06C006
04C006
0CC866
0CCFF6
18CC76
18CC66
10CC66
30CC66
F0CFE6
F0CC66
60CC06
30C006
30C006
30C006
30C03E
30C01C
00C008
ENDCHAR
STARTCHAR C2758
ENCODING 10072
SWIDTH 400 0
DWIDTH 24 0
BBX 24 24 0 -2
BITMAP
000600
000300
600700
300F80
380CC0
181CE0
021870
063038
04301E
0C600F
0CC036
19BFF0
180300
100300
300300
F00300
F00738
607FF8
300300
300300
300300
300300
30070C
00FFFC
ENDCHAR
STARTCHAR C2759
ENCODING 10073
SWIDTH 400 0
DWIDTH 24 0
BBX 24 24 0 -2
BITMAP
070000
070038
067FF8
0E0300
1C0300
3C0306
3DFFFE
6C0300
CC0300
0C0318
0C7FFC
0C0000
080100
010380
03FFC0
038180
038180
038180
030181
030181
060183
0C01FF
1801FF
60007E
ENDCHAR
STARTCHAR C275a
ENCODING 10074
SWIDTH 400 0
DWIDTH 24 0
BBX 24 24 0 -2
BITMAP
000000
0001C0
03FFE0
000380
000600
000C00
60180E
60186E
601BEC
67986C
65D86C
649E4C
649BCC
6499CC
6499CC
64996C
679B3C
649A3C
60FC0C
60780C
60300C
60000C
7FFFFC
60000C
ENDCHAR
STARTCHAR C275b
ENCODING 10075
SWIDTH 400 0
DWIDTH 24 0
BBX 24 24 0 -2
BITMAP
001007
003807
3FF806
000006
0001E6
3061C6
3FF1C6
3071C6
3071C6
3071C6
3071C6
3FF1C6
3071C6
3071C6
3071C6
3071C6
3871C6
3FE1C6
300086
000006
03F806
7F007E
70003C
600008
ENDCHAR
STARTCHAR C275c
ENCODING 10076
SWIDTH 400 0
DWIDTH 24 0
BBX 24 24 0 -2
BITMAP
000007
060C07
3E7C06
183006
1830E6
1830C6
1830C6
1830C6
1830C6
1830C6
1E36C6
FEFEC6
1830C6
1830C6
1830C6
1830C6
1830C6
3030C6
303006
303006
203006
60307E
C0303C
803008
ENDCHAR
STARTCHAR C275d
ENCODING 10077
SWIDTH 400 0
DWIDTH 24 0
BBX 24 24 0 -2
BITMAP
040000
070008
061FFC
06030C
06030C
06C30C
7FC30C
06030C
06130C
061B0C
064B0C
FFEF0C
0C070C
0C030C
1C038C
1983CC
30C37C
20C63C
43E61F
FE6C1F
F06C38
4019F0
0031E0
006040
ENDCHAR
STARTCHAR C275e
ENCODING 10078
SWIDTH 400 0
DWIDTH 24 0
BBX 24 24 0 -2
BITMAP
000007
007007
3FF006
0C60E6
0C40E6
0CFCC6
1CCCC6
180CC6
380CC6
30F8C6
6078C6
4130C6
83C0C6
0380C6
0398C6
7FFCC6
0380C6
1FC0C6
1BB006
339806
639C06
438C7E
83803C
030008
ENDCHAR
STARTCHAR C275f
ENCODING 10079
SWIDTH 400 0
DWIDTH 24 0
BBX 24 24 0 -2
BITMAP
003007
307007
0EE006
07C0E6
07E0E6
0E38C6
1818C6
6108C6
8380C6
0380C6
0388C6
7FFCC6
0380C6
13B0C6
1FB8C6
1BB0C6
1BB0C6
3BB0C6
33B006
33B806
63BF06
439F7E
83803C
030008
ENDCHAR
STARTCHAR C2760
ENCODING 10080
SWIDTH 400 0
DWIDTH 24 0
BBX 24 24 0 -2
BITMAP
0001C0
0C01C0
0601C0
0601C0
0211C0
FFF9C0
0001C6
318FFF
38E1C7
3071C7
3031C7
60D1C7
E0C1C7
99C1C7
0D8187
078187
070187
078307
0FC306
0CC306
18660E
306C7C
601878
003030
ENDCHAR
STARTCHAR C2761
ENCODING 10081
SWIDTH 400 0
DWIDTH 24 0
BBX 24 24 0 -2
BITMAP
001800
001860
0E1870
0718E0
0398C0
001998
3FFFFC
003000
003000
006006
FFFFFF
00C180
0180C0
037870
06703F
1870CF
67FFE6
806060
00C060
00C060
0180C0
031FC0
060F80
380300
ENDCHAR
STARTCHAR C2762
ENCODING 10082
SWIDTH 400 0
DWIDTH 24 0
BBX 24 24 0 -2
BITMAP
060300
060300
060310
7F9FF8
0E0738
061B38
0FCF38
7E0739
6607B9
060DFB
0E189F
3E301F
0C7000
007000
007010
3FFFF8
00601C
00E018
00C018
018018
030038
0603F0
1C01E0
700040
ENDCHAR
STARTCHAR C2763
ENCODING 10083
SWIDTH 400 0
DWIDTH 24 0
BBX 24 24 0 -2
BITMAP
0400E0
0600E0
0381C0
01C180
00C300
180630
1FFFF8
181838
181838
181838
1FFFF8
181838
181838
181838
1FFFF8
181810
001800
001806
FFFFFF
001800
001800
001800
001800
001000
ENDCHAR
STARTCHAR C2764
ENCODING 10084
SWIDTH 400 0
DWIDTH 24 0
BBX 24 24 0 -2
BITMAP
001800
001800
001804
001FFE
001800
001800
201808
30381C
3FFFFC
30000C
30000C
31038C
33FFCC
33818C
33818C
33818C
33818C
33818C
33FF8C
31010C
30000C
3FFFFC
30001C
200008
ENDCHAR
STARTCHAR C2765
ENCODING 10085
SWIDTH 400 0
DWIDTH 24 0
BBX 24 24 0 -2
BITMAP
060004
06030E
0C23FF
0FF306
1C3B06
387306
7C6306
46C306
038306
030306
060306
3F0306
F31306
073B06
0FFB06
183B06
3C3306
23637E
01C31C
018308
030300
060300
1C0300
700300
ENDCHAR
STARTCHAR C2766
ENCODING 10086
SWIDTH 400 0
DWIDTH 24 0
BBX 24 24 0 -2
BITMAP
000060
07FFF0
0001E0
000700
00DC18
1FF838
00FA60
01D9C0
0398E0
0E187F
38F83F
E0380C
001000
7FFFFE
000000
07FFE0
0600E0
060060
0603E4
0600CC
060008
07FFF8
07FFFC
03FFF8
ENDCHAR
STARTCHAR C2767
ENCODING 10087
SWIDTH 400 0
DWIDTH 24 0
BBX 24 24 0 -2
BITMAP
100000
180007
1FFFFF
180600
180600
180610
18FFF8
180600
180600
180600
18060C
1BFFFE
180000
180600
180600
180600
380608
31FFFC
300600
300600
600600
C00600
800607
07FFFF
ENDCHAR
STARTCHAR C2768
ENCODING 10088
SWIDTH 400 0
DWIDTH 24 0
BBX 24 24 0 -2
BITMAP
000000
300007
3FFFFF
301000
301800
300E00
300604
30020E
33FFFE
300C00
301E00
301A0C
30321C
306338
30E160
31E180
33E0C0
3760C0
6C6060
606070
60673C
C07C1F
80700E
006004
ENDCHAR
STARTCHAR C2769
ENCODING 10089
SWIDTH 400 0
DWIDTH 24 0
BBX 24 24 0 -2
BITMAP
006000
00E040
01C030
030038
0E1FF8
1FF018
061000
001C00
00180C
7FFFFE
007400
00E700
01C3E0
03807F
0E00BF
3BFF8C
E00000
000020
07FFF0
000000
000000
000006
7FFFFE
000000
ENDCHAR
STARTCHAR C276a
ENCODING 10090
SWIDTH 400 0
DWIDTH 24 0
BBX 24 24 0 -2
BITMAP
007000
00F0C0
01C060
070030
1C3FF8
1FF038
0C1810
001800
00180C
7FFFFE
007400
00E700
01CBC0
039C78
0E383F
F8E18C
038380
1E1E00
00F830
03C0F8
3E07C0
007F00
03F000
3F8000
ENDCHAR
STARTCHAR C276b
ENCODING 10091
SWIDTH 400 0
DWIDTH 24 0
BBX 24 24 0 -2
BITMAP
004008
00E01C
3FF7FC
10621C
1CC198
0780F0
038070
07C078
0C60DC
18318E
300606
404808
3FE7FC
00661C
30E218
18C218
0CC130
0781F0
0380E0
07C0E0
0CE1B8
18631F
300E0F
603806
ENDCHAR
STARTCHAR C276c
ENCODING 10092
SWIDTH 400 0
DWIDTH 24 0
BBX 24 24 0 -2
BITMAP
006000
003000
003800
001800
000038
1FFFF8
0C01E0
0601C0
030180
018180
018300
008206
FFFFFF
000000
080040
0FFFE0
0C00E0
0C0060
0C0060
0C0060
0C0060
0C0060
0FFFE0
0C0040
ENDCHAR
STARTCHAR C276d
ENCODING 10093
SWIDTH 400 0
DWIDTH 24 0
BBX 24 24 0 -2
BITMAP
000000
000200
000300
C60380
FF0184
E77FFE
E60000
E6001C
E60018
E60018
E63018
E61038
E61830
E61830
E61830
E61820
FE0C60
E60C60
C60C60
000C40
000040
000006
01FFFF
000000
ENDCHAR
STARTCHAR C276e
ENCODING 10094
SWIDTH 400 0
DWIDTH 24 0
BBX 24 24 0 -2
BITMAP
000600
000300
000180
C60180
FF0087
E77FFF
E60380
E60300
E60600
E60C38
E60C78
E61870
E638E0
E60FC0
E60780
E60300
FE0700
E60610
C60C18
00181C
0033FE
007F8E
007006
001000
ENDCHAR
STARTCHAR C276f
ENCODING 10095
SWIDTH 400 0
DWIDTH 24 0
BBX 24 24 0 -2
BITMAP
000004
00000E
007FFE
C61800
FF1800
E71800
E61818
E61FFC
E61818
E61818
E61818
E61F18
E61B98
E61998
E619D8
E630F8
FE3038
E63038
C63038
003039
0033F9
007E3F
00F01F
00600E
ENDCHAR
STARTCHAR C2770
ENCODING 10096
SWIDTH 400 0
DWIDTH 24 0
BBX 24 24 0 -2
BITMAP
000380
000380
000300
C60300
FF0300
E76318
E67FFC
E67318
E67318
E67318
E67318
E67318
E67318
E67318
E6FFFF
E60300
FE0300
E60660
C60E30
000C18
00180C
00300E
006006
018006
ENDCHAR
STARTCHAR C2771
ENCODING 10097
SWIDTH 400 0
DWIDTH 24 0
BBX 24 24 0 -2
BITMAP
000380
000380
002300
C63B00
FF3300
E73318
E67FFC
E66300
E6C300
E78300
E60300
E60304
E6FFFE
E60780
E60680
E606C0
FE0640
E60C60
C60C70
001838
00301C
00600F
00C006
038000
ENDCHAR
STARTCHAR C2772
ENCODING 10098
SWIDTH 400 0
DWIDTH 24 0
BBX 24 24 0 -2
BITMAP
0400C0
07FFE0
060060
060060
060060
060060
07FFE0
063840
041800
001830
1FFFF0
1C1830
1C1830
1C3830
1FFFF0
1C1830
1C1830
1FFFF1
181821
001801
001803
001FFF
001FFF
000FFE
ENDCHAR
STARTCHAR C2773
ENCODING 10099
SWIDTH 400 0
DWIDTH 24 0
BBX 24 24 0 -2
BITMAP
000600
000300
000180
C60080
FF0000
E70380
E67FC0
E60180
E6018E
E6019C
E619B8
E6FDE0
E619C0
E619E0
E619A0
E639B0
FE3198
E6719C
C6618E
00C18F
018187
030F82
000700
000200
ENDCHAR
STARTCHAR C2774
ENCODING 10100
SWIDTH 400 0
DWIDTH 24 0
BBX 24 24 0 -2
BITMAP
000000
00000C
000FFC
C30000
FF0000
E30000
E30000
E30002
E37FFF
E301C0
E301C0
E301C0
E319C0
E319C8
E319CC
E319CE
FF31C6
E331C7
C261C3
0041C3
0081C3
0101C0
0001C0
000180
ENDCHAR
STARTCHAR C2775
ENCODING 10101
SWIDTH 400 0
DWIDTH 24 0
BBX 24 24 0 -2
BITMAP
0003B8
0003B8
003B38
063B38
FF3338
E73338
E63338
E6333A
E6FFFF
E63338
E63338
E63338
E63338
E63338
E63338
E63338
E633F8
E63330
FE3000
C63000
003000
003006
003FFF
000000
ENDCHAR
STARTCHAR C2776
ENCODING 10102
SWIDTH 400 0
DWIDTH 24 0
BBX 24 24 0 -2
BITMAP
004000
08E238
1FF3FC
1C6318
1C6318
1C6318
1FE3F8
1C4318
000200
000000
00000C
3FFFFC
018000
018000
038070
03FFF8
000030
000030
000030
000070
000060
001FE0
0003C0
000180
ENDCHAR
STARTCHAR C2777
ENCODING 10103
SWIDTH 400 0
DWIDTH 24 0
BBX 24 24 0 -2
BITMAP
000200
000380
000300
C60300
FF030C
E703FC
E60300
E60300
E60306
E6FFFF
E60300
E60300
E603C0
E60360
E60330
E60318
FE030C
E60300
C60300
000300
000300
000300
000300
000200
ENDCHAR
STARTCHAR C2778
ENCODING 10104
SWIDTH 400 0
DWIDTH 24 0
BBX 24 24 0 -2
BITMAP
000000
00700C
007FFE
C6700C
FF700C
E7700C
E6700C
E6700C
E6700C
E6700C
E67FFC
E6666C
E60660
E60660
E60660
E60E60
FE0C60
E60C60
C01861
001861
003063
00607F
00C07F
03803E
ENDCHAR
STARTCHAR C2779
ENCODING 10105
SWIDTH 400 0
DWIDTH 24 0
BBX 24 24 0 -2
BITMAP
000030
0001F8
000FC0
C63980
FF0180
E70180
E60184
E6018E
E67FFE
E60380
E603C0
E607C0
E607E0
E60DA0
E60DB0
E61998
FE199C
E6318F
C06187
00C182
018180
000180
000180
000180
ENDCHAR
STARTCHAR C277a
ENCODING 10106
SWIDTH 400 0
DWIDTH 24 0
BBX 24 24 0 -2
BITMAP
0001C0
0001C0
000180
C30300
FF1204
E31FFE
E31806
E31806
E31806
E31806
E31806
E31806
E31806
E31FFE
E31806
E31806
FF1806
E31806
C01806
001806
001806
001FFE
001806
001004
ENDCHAR
STARTCHAR C277b
ENCODING 10107
SWIDTH 400 0
DWIDTH 24 0
BBX 24 24 0 -2
BITMAP
000000
60000C
7FFFFE
60000C
6000CC
67FFCC
60180C
60180C
60180C
60180C
60190C
63FF8C
60180C
601E0C
601B0C
601B8C
60198C
60180C
60184C
6FFFEC
60000C
7FFFFC
60000C
600000
ENDCHAR
STARTCHAR C277c
ENCODING 10108
SWIDTH 400 0
DWIDTH 24 0
BBX 24 24 0 -2
BITMAP
000000
60000C
7FFFFE
60000C
6601CC
67FFCC
6601CC
6601CC
67FFCC
66188C
66180C
66186C
67FFEC
660C0C
660E0C
66062C
661B2C
67E1EC
6780EC
67006C
62000C
7FFFFC
60000C
600000
ENDCHAR
STARTCHAR C277d
ENCODING 10109
SWIDTH 400 0
DWIDTH 24 0
BBX 24 24 0 -2
BITMAP
000000
60000C
7FFFFE
60000C
60004C
67FFEC
60180C
60180C
60180C
60180C
63D80C
63980C
639FCC
639C0C
63980C
63980C
63980C
63980C
63982C
6FFFFC
60000C
7FFFFC
60000C
600000
ENDCHAR
STARTCHAR C277e
ENCODING 10110
SWIDTH 400 0
DWIDTH 24 0
BBX 24 24 0 -2
BITMAP
000000
60000C
7FFFFE
60000C
6601CC
67FFEC
6618CC
6618CC
67FFCC
6618CC
6618CC
6618CC
67FFCC
6618CC
60180C
60180C
60180C
60180C
60180C
60180C
60100C
7FFFFC
60000C
600000
ENDCHAR
STARTCHAR C2821
ENCODING 10273
SWIDTH 400 0
DWIDTH 24 0
BBX 24 24 0 -2
BITMAP
000000
60000C
7FFFFE
60300C
60300C
60600C
60C10C
61818C
6300CC
67FFEC
67806C
62006C
60010C
61038C
63FFCC
63818C
63818C
63818C
63818C
63FF8C
60010C
7FFFFC
60000C
600000
ENDCHAR
STARTCHAR C2822
ENCODING 10274
SWIDTH 400 0
DWIDTH 24 0
BBX 24 24 0 -2
BITMAP
000000
60000C
7FFFFE
60C30C
60C30C
61830C
61830C
63030C
6703FC
6E11FC
701C0C
60180C
60198C
63FF8C
60180C
60180C
60180C
60184C
67FFEC
60000C
60000C
7FFFFC
60000C
600000
ENDCHAR
STARTCHAR C2823
ENCODING 10275
SWIDTH 400 0
DWIDTH 24 0
BBX 24 24 0 -2
BITMAP
000000
1E1030
1C1FF8
1C1838
1C1838
1C1838
1C1838
1F9838
7F9838
1C1FF8
1C1838
1C1838
1C1838
1C1838
1C1838
1C9FF8
1F9838
3E1838
F81838
E01838
001838
00183A
01FFFF
000000
ENDCHAR
STARTCHAR C2824
ENCODING 10276
SWIDTH 400 0
DWIDTH 24 0
BBX 24 24 0 -2
BITMAP
000000
1E1C00
1C1C00
1C180C
1C1FFE
1C11C0
1C31C0
1F21C0
7F61C0
1CC1C0
1C01C0
1C01C6
1CFFFF
1C0180
1C0380
1C8300
1F8330
3E0618
F8060C
E00C0E
001C07
003803
007003
01C001
ENDCHAR
STARTCHAR C2825
ENCODING 10277
SWIDTH 400 0
DWIDTH 24 0
BBX 24 24 0 -2
BITMAP
001000
001C00
081870
041870
061860
0318C0
211986
7FFFFF
600007
C01006
C01C0C
801800
001800
001800
001830
1FFFF8
001800
001800
001800
001800
001800
001806
7FFFFE
000000
ENDCHAR
STARTCHAR C2826
ENCODING 10278
SWIDTH 400 0
DWIDTH 24 0
BBX 24 24 0 -2
BITMAP
100000
1C0006
187FFF
180300
180300
180600
180600
1A0600
7E0E00
180C00
180C00
181C0C
181FFE
181C0C
183C0C
1A6C0C
1E4C0C
38CC0C
F08C0C
E00C0C
000C0C
000FFC
000C0C
000800
ENDCHAR
STARTCHAR C2827
ENCODING 10279
SWIDTH 400 0
DWIDTH 24 0
BBX 24 24 0 -2
BITMAP
1001C0
1C01C0
180180
180180
183188
183FFC
18318C
1A318C
7E318C
18318C
18FFFE
18318C
18318C
18318C
18318C
1A7FFF
1E301C
38300C
F0300C
E0300C
00300C
00307C
003038
003030
ENDCHAR
STARTCHAR C2828
ENCODING 10280
SWIDTH 400 0
DWIDTH 24 0
BBX 24 24 0 -2
BITMAP
100380
1C0380
180300
180700
180600
180E10
180C18
1A180C
7E3006
18607F
18FFE7
187E03
182001
180008
181FFC
1A180C
1E180C
38180C
F0180C
E0180C
00180C
001FFC
00181C
001008
ENDCHAR
STARTCHAR C2829
ENCODING 10281
SWIDTH 400 0
DWIDTH 24 0
BBX 24 24 0 -2
BITMAP
101C00
1C1C00
181800
181804
18180E
183FFF
187006
1A6006
7EC086
189FC6
1818E6
1818C6
1818C6
1818C6
1818C6
1A1FC6
1E18C6
381006
F0000E
E0000C
00000C
0001FC
000078
000030
ENDCHAR
STARTCHAR C282a
ENCODING 10282
SWIDTH 400 0
DWIDTH 24 0
BBX 24 24 0 -2
BITMAP
101C1C
1C1C1C
181818
181818
181818
183018
18301A
1A7FFF
7E7018
187018
18F218
18F318
197198
1871D8
1870D8
187018
1B7018
3C7018
F07018
E07018
007018
0071F8
007078
006030
ENDCHAR
STARTCHAR C282b
ENCODING 10283
SWIDTH 400 0
DWIDTH 24 0
BBX 24 24 0 -2
BITMAP
01C300
01C300
018300
018300
01830C
7F83FC
018300
018300
018303
018302
078306
7D83FF
7101FE
201000
001C00
001800
001820
0FFFF0
001800
001800
001800
001806
FFFFFF
000000
ENDCHAR
STARTCHAR C282c
ENCODING 10284
SWIDTH 400 0
DWIDTH 24 0
BBX 24 24 0 -2
BITMAP
001000
001C00
001800
219838
3FD838
319870
319860
319860
319878
3198CC
3198CE
3F9986
319902
001A00
001808
3FFFFC
003800
001800
001800
001800
001800
001800
003807
FFFFFF
ENDCHAR
STARTCHAR C282d
ENCODING 10285
SWIDTH 400 0
DWIDTH 24 0
BBX 24 24 0 -2
BITMAP
001800
001800
001804
7FFFFE
003800
001800
001818
3FFFFC
000000
200006
7FFFFF
600007
C00046
8FFFE4
000000
03FF80
038180
038180
030181
030181
060183
0E01FF
3801FF
60007E
ENDCHAR
STARTCHAR C282e
ENCODING 10286
SWIDTH 400 0
DWIDTH 24 0
BBX 24 24 0 -2
BITMAP
003800
003800
003000
00600C
7FFFFE
00C100
0180C0
030060
06003C
0C001F
380066
EFFFF0
0C1870
0C1860
0C1860
0C1860
0C3860
0FFFE0
0C1860
0C1860
0C1860
0C1860
0FFFE0
0C0060
ENDCHAR
STARTCHAR C282f
ENCODING 10287
SWIDTH 400 0
DWIDTH 24 0
BBX 24 24 0 -2
BITMAP
001800
001800
001808
001FFC
001800
001800
07FFF0
060030
060030
060030
060030
060030
07FFF0
041020
001C00
003800
003006
FFFFFF
006100
00C1C0
018070
07001C
1C000E
700006
ENDCHAR
STARTCHAR C2830
ENCODING 10288
SWIDTH 400 0
DWIDTH 24 0
BBX 24 24 0 -2
BITMAP
000000
38000C
383FFC
300180
320188
33218E
FF919C
FB1998
330DB0
330DA0
330DE0
330180
660186
667FFF
E60180
7E0180
1C0180
1E0180
1F0180
338180
600180
C00180
000180
000180
ENDCHAR
STARTCHAR C2831
ENCODING 10289
SWIDTH 400 0
DWIDTH 24 0
BBX 24 24 0 -2
BITMAP
000000
380007
383FFF
3000E0
3200C0
3301C0
FF81C0
FB03C0
3303E0
3307D0
3307C8
330DCC
6619CE
6611C6
E621C7
7E41C2
1C01C0
1E01C0
1F01C0
3381C0
6001C0
C00082
007FFF
000000
ENDCHAR
STARTCHAR C2832
ENCODING 10290
SWIDTH 400 0
DWIDTH 24 0
BBX 24 24 0 -2
BITMAP
000300
300300
300300
300606
34FFFF
360FC0
FF0DC0
FE19C0
3619CC
363FFE
2639CE
2679CC
6E79CC
4CF9CC
CD99CC
7D19CC
1C19CC
1E19CC
3619CC
3219FC
6019D8
C011D0
0001C0
000180
ENDCHAR
STARTCHAR C2833
ENCODING 10291
SWIDTH 400 0
DWIDTH 24 0
BBX 24 24 0 -2
BITMAP
000E00
380E00
380E20
300E30
320E18
330E00
FFFFFE
FB0C00
330C00
330C1C
330E1C
331F18
661B38
661938
E61938
7E19B0
1C18E0
1E30E0
1F30E0
33E1F0
6063BC
C0471F
008E0E
003800
ENDCHAR
STARTCHAR C2834
ENCODING 10292
SWIDTH 400 0
DWIDTH 24 0
BBX 24 24 0 -2
BITMAP
000000
1E0007
1C3FFF
1C0007
1C0007
1D8067
FFDFF7
F98007
198007
198CC7
198FE7
318C67
338C67
338C67
330C67
3F0C67
0E0FE7
0F0C47
0D8807
18C007
300007
60003F
80001E
00000C
ENDCHAR
STARTCHAR C2835
ENCODING 10293
SWIDTH 400 0
DWIDTH 24 0
BBX 24 24 0 -2
BITMAP
000008
38701C
387FFC
30700C
32700C
33700C
FFF00C
FB7FFC
337188
337180
337180
337184
667FFE
6671C0
E671C0
7E70C0
1C70C0
1E7060
1F7060
33F1B1
607E39
C0781F
00700F
003007
ENDCHAR
STARTCHAR C2836
ENCODING 10294
SWIDTH 400 0
DWIDTH 24 0
BBX 24 24 0 -2
BITMAP
000000
380000
38300E
303FFF
3231C6
3331C6
FFB1C6
FB31C6
3331C6
3331C6
3331C6
3331C6
663FFE
6631C6
E631C6
7E31C6
1C31C6
1E31C6
1F31C6
33B1C6
6031C6
C03FFE
003004
000000
ENDCHAR
STARTCHAR C2837
ENCODING 10295
SWIDTH 400 0
DWIDTH 24 0
BBX 24 24 0 -2
BITMAP
000010
380078
3803F8
303F00
320600
330300
FF8380
FB0180
33019C
333FFC
330018
330038
660030
660060
E60060
7E00C0
1C0180
1E0300
1F0600
339C00
603800
C0FFFF
0063FC
0000F8
ENDCHAR
STARTCHAR C2838
ENCODING 10296
SWIDTH 400 0
DWIDTH 24 0
BBX 24 24 0 -2
BITMAP
000E00
1E0E00
1C0E00
1C0C00
1C0C07
1D9FFF
FFD980
F99180
19B180
19E180
19818C
3181FC
338180
338180
330180
3F0180
0E018C
0F01FC
0D8180
18C180
300180
600180
800180
000180
ENDCHAR
STARTCHAR C2839
ENCODING 10297
SWIDTH 400 0
DWIDTH 24 0
BBX 24 24 0 -2
BITMAP
001C00
381C00
381800
301806
321FFE
333006
FFE006
FB60C6
33DFE6
3398E6
3318C6
3318C6
6618C6
6618C6
E61FC6
7E180E
1C18FC
1E1838
1F1811
339801
601803
C01FFF
001FFF
000FFE
ENDCHAR
STARTCHAR C283a
ENCODING 10298
SWIDTH 400 0
DWIDTH 24 0
BBX 24 24 0 -2
BITMAP
000E00
380E00
380E00
300C00
321C38
331FF8
FFB830
FB3460
3364E0
33C3C0
330380
3307E0
660E78
66183F
E6340F
7EC302
1C01C0
1E00C0
1F0040
338600
600380
C001C0
0000E0
000060
ENDCHAR
STARTCHAR C283b
ENCODING 10299
SWIDTH 400 0
DWIDTH 24 0
BBX 24 24 0 -2
BITMAP
000000
380038
3800F8
301380
321C00
331800
FF9800
FB1800
33180C
331FFE
331860
331860
731860
661860
661860
E61860
3C1860
1E1860
1F1860
331860
219862
40FFFF
800000
000000
ENDCHAR
STARTCHAR C283c
ENCODING 10300
SWIDTH 400 0
DWIDTH 24 0
BBX 24 24 0 -2
BITMAP
000004
00800E
7FDFFE
0C0700
0C0600
0C0E0C
0C0FFE
0C000C
0DC00C
7E000C
70000C
6001F8
00C070
00C020
0181C2
FFFFFF
038180
030380
030300
07C600
007F00
007BE0
03C078
7F0038
ENDCHAR
STARTCHAR C283d
ENCODING 10301
SWIDTH 400 0
DWIDTH 24 0
BBX 24 24 0 -2
BITMAP
060000
060000
06230E
7FF3FF
0E3B06
0C3306
0C3306
183306
187306
33E3FE
60C306
C00004
00C000
00C080
00C1C2
FFFFFF
038180
030380
030300
07C600
007F00
007BE0
03C078
7E0038
ENDCHAR
STARTCHAR C283e
ENCODING 10302
SWIDTH 400 0
DWIDTH 24 0
BBX 24 24 0 -2
BITMAP
000020
1C0070
1FFFF8
1C1830
1C1830
1C1830
1FFFF0
1C1830
1C1830
1C1830
1FFFF0
000020
00C000
00C1E0
01C1C2
FFFFFF
038180
030380
030300
07C600
007F00
007BE0
03C078
7E0038
ENDCHAR
STARTCHAR C283f
ENCODING 10303
SWIDTH 400 0
DWIDTH 24 0
BBX 24 24 0 -2
BITMAP
000300
380180
3801C0
300086
323FFF
3301C0
FF81C0
FB11CC
331FFE
3319CE
3319CC
3319CC
6619CC
6619CC
E619CC
7E19CC
1C19CC
1E19CC
1F19FC
3399DC
6011C8
C001C0
0001C0
000180
ENDCHAR
STARTCHAR C2840
ENCODING 10304
SWIDTH 400 0
DWIDTH 24 0
BBX 24 24 0 -2
BITMAP
000000
380006
383FFF
30000C
32000C
33000C
FFB18C
FB3F8C
33318C
33318C
33318C
33318C
66318C
66318C
E63F8C
7E318C
1C300C
1E000C
1F000C
33800C
60000C
C001FC
000078
000030
ENDCHAR
STARTCHAR C2841
ENCODING 10305
SWIDTH 400 0
DWIDTH 24 0
BBX 24 24 0 -2
BITMAP
000000
380006
387FFF
300300
320300
330600
FF8600
FB0600
330E00
330C00
330C00
331C0C
661FFE
661C0C
E63C0C
7E6C0C
1C4C0C
1ECC0C
1F8C0C
338C0C
600C0C
C00FFC
000C0C
000800
ENDCHAR
STARTCHAR C2842
ENCODING 10306
SWIDTH 400 0
DWIDTH 24 0
BBX 24 24 0 -2
BITMAP
007000
307000
307000
307000
347000
367766
FFFF7F
FE7367
367367
367367
267367
267367
6E6367
4C6367
CC6367
7C6367
1CC367
1EC367
37C367
33C367
618367
C33E7F
021E62
040C00
ENDCHAR
STARTCHAR C2843
ENCODING 10307
SWIDTH 400 0
DWIDTH 24 0
BBX 24 24 0 -2
BITMAP
000000
1E1808
1C1FFC
1C180C
1C180C
1D980C
FFD80C
F9980C
19980C
199FFC
199808
319800
339804
339C0E
331FFF
3F1806
0E1806
0F1806
0D9806
18D806
301806
601FFE
801804
000000
ENDCHAR
STARTCHAR C2844
ENCODING 10308
SWIDTH 400 0
DWIDTH 24 0
BBX 24 24 0 -2
BITMAP
000030
38FFF8
380E38
300E22
320C7F
330C07
FF8C07
FB1807
33180E
33307E
33201C
336008
66DFF0
660030
E60060
7E0180
1C0184
1EFFFE
1F0180
338180
600180
C00F80
000700
000200
ENDCHAR
STARTCHAR C2845
ENCODING 10309
SWIDTH 400 0
DWIDTH 24 0
BBX 24 24 0 -2
BITMAP
0001C0
3801C0
3819C0
301DC0
3219C0
3319CC
FF9FFE
FB31C0
3331C0
3361C0
3341C0
3301C6
667FFF
6601C0
E601C0
7E01E0
1C0360
1E0320
1F0630
338E18
601C1E
C0380F
007006
01C000
ENDCHAR
STARTCHAR C2846
ENCODING 10310
SWIDTH 400 0
DWIDTH 24 0
BBX 24 24 0 -2
BITMAP
000004
304E4E
307F7F
306666
346666
366666
FF6666
FE6666
366666
366666
266666
26FFFF
6E6666
4C6666
CC6666
7C6666
1C6666
1E6666
366666
32C666
60C666
C0C6C6
009EDE
010D8C
ENDCHAR
STARTCHAR C2847
ENCODING 10311
SWIDTH 400 0
DWIDTH 24 0
BBX 24 24 0 -2
BITMAP
000380
380380
380300
300780
3206C0
330CE0
FF8C70
FB1838
33301C
33638F
334386
338300
660300
663300
E63B30
7E3318
1C630C
1E6306
1F4306
338300
600300
C00F00
000F00
000200
ENDCHAR
STARTCHAR C2848
ENCODING 10312
SWIDTH 400 0
DWIDTH 24 0
BBX 24 24 0 -2
BITMAP
00000C
7FFFFE
00000E
00008C
3FFFCC
00000C
0FFE0C
0C070C
0C060C
0FFE0C
0C00FC
000038
000090
07FFC0
0003C0
000700
000C02
FFFFFF
000C00
000C00
000C00
00FC00
003C00
001800
ENDCHAR
STARTCHAR C2849
ENCODING 10313
SWIDTH 400 0
DWIDTH 24 0
BBX 24 24 0 -2
BITMAP
204000
30E00C
3FF3FE
30601C
3C6018
366030
376060
336060
306060
306060
FFF862
606FFF
606060
666060
676060
E36060
E36060
E06060
FFF060
C0E060
00C060
0FC3E0
0383C0
030180
ENDCHAR
STARTCHAR C284a
ENCODING 10314
SWIDTH 400 0
DWIDTH 24 0
BBX 24 24 0 -2
BITMAP
002000
003000
201802
3FFFFF
600007
E0C006
DFE0EC
00E0E0
00C0C0
00C1C0
08C180
1FC180
1CC180
180300
18C300
1FE300
00C610
00C618
00CC0C
00CC0C
019FFE
1F9F06
0F0806
060000
ENDCHAR
STARTCHAR C284b
ENCODING 10315
SWIDTH 400 0
DWIDTH 24 0
BBX 24 24 0 -2
BITMAP
003000
001800
201802
3FFFFF
600007
E20806
C18E0C
00CC00
00CC00
000C00
030C00
018C00
018C00
008C0C
3FFFFC
001A00
001B00
003180
0061C0
00C0E0
018078
03003F
060018
780008
ENDCHAR
STARTCHAR C284c
ENCODING 10316
SWIDTH 400 0
DWIDTH 24 0
BBX 24 24 0 -2
BITMAP
003000
001800
201806
3FFFFF
600006
E0400C
C03008
001800
001810
1FFFF8
003800
001800
001800
001800
001820
07FFF0
003800
001800
001800
001800
001800
00180C
7FFFFE
000000
ENDCHAR
STARTCHAR C284d
ENCODING 10317
SWIDTH 400 0
DWIDTH 24 0
BBX 24 24 0 -2
BITMAP
003000
001800
201802
3FFFFF
601007
E01806
C0180C
003860
07FFE0
001800
001810
0FFFF8
001800
001800
00180C
3FFFFC
003400
006600
00C300
0181C0
0300F0
06007F
1C003C
700008
ENDCHAR
STARTCHAR C284e
ENCODING 10318
SWIDTH 400 0
DWIDTH 24 0
BBX 24 24 0 -2
BITMAP
006000
003000
203802
3FFFFF
600007
E00006
C00034
1FFFF0
001800
001800
001800
001800
001800
003860
07FFE0
001800
001980
0018C0
0018E0
001860
00180C
3FFFFE
000000
000000
ENDCHAR
STARTCHAR C284f
ENCODING 10319
SWIDTH 400 0
DWIDTH 24 0
BBX 24 24 0 -2
BITMAP
006000
003000
203802
3FFFFF
600007
E01006
C01C0C
001800
001800
001800
00380C
3FFFFC
001800
001800
001800
001860
0FFFF0
0C0070
0C0060
0C0060
0C0060
0FFFE0
0C0060
000000
ENDCHAR
STARTCHAR C2850
ENCODING 10320
SWIDTH 400 0
DWIDTH 24 0
BBX 24 24 0 -2
BITMAP
000038
401838
FFF838
E00038
E00038
E00038
E06FFF
EFE038
EC6038
EC6038
EC6038
EC6438
EC6338
EC6338
EC61B8
EC61B8
EFE038
EC6038
E00038
E00038
E00038
E011F8
FFF8F0
000060
ENDCHAR
STARTCHAR C2851
ENCODING 10321
SWIDTH 400 0
DWIDTH 24 0
BBX 24 24 0 -2
BITMAP
001800
001800
001800
039980
0398C0
071870
0E1838
18181C
60180C
001800
200008
3FFFFC
30000C
30010C
33FF8C
33818C
33818C
33818C
33FF8C
33818C
30010C
3000FC
300078
200030
ENDCHAR
STARTCHAR C2852
ENCODING 10322
SWIDTH 400 0
DWIDTH 24 0
BBX 24 24 0 -2
BITMAP
000008
30001C
3FFFFC
30000C
30000C
30000C
3FFFFC
300008
301800
300C00
300C38
33FFF8
300000
3000E0
30C0C0
30E1C0
306180
307180
603300
603300
401200
C00006
8FFFFE
000000
ENDCHAR
STARTCHAR C2853
ENCODING 10323
SWIDTH 400 0
DWIDTH 24 0
BBX 24 24 0 -2
BITMAP
200018
3FFFFC
300018
300018
300018
300018
3FFFF8
300018
301C00
301C00
301800
309820
37D9F0
301800
301800
301800
609820
6FDBF0
601801
601801
C01801
C01C03
801FFF
000FFF
ENDCHAR
STARTCHAR C2854
ENCODING 10324
SWIDTH 400 0
DWIDTH 24 0
BBX 24 24 0 -2
BITMAP
000006
3FFFFE
300006
300006
300006
3FFFFE
300006
300840
31CC60
318C60
318C60
318C60
37FFFE
318CE0
318C60
318C60
318C60
318C60
318FE0
618800
618000
C18006
81FFFE
000000
ENDCHAR
STARTCHAR C2855
ENCODING 10325
SWIDTH 400 0
DWIDTH 24 0
BBX 24 24 0 -2
BITMAP
000006
3FFFFE
300006
300006
300006
3FFFFE
300006
300200
300380
300300
300300
31030E
33FFFF
338306
338306
338306
338706
33FFFE
738306
638306
638306
C3FFFE
838006
000004
ENDCHAR
STARTCHAR C2856
ENCODING 10326
SWIDTH 400 0
DWIDTH 24 0
BBX 24 24 0 -2
BITMAP
001000
1E180C
1C1FFE
1C180C
1C180C
5D180C
DD980C
DD9FFC
DD980C
DD9800
DD9B80
DD9B80
DD9B00
DD9B04
DD9BFE
DDB300
DDB300
DDB300
FFF301
016301
006303
00C3FF
0081FF
0000FE
ENDCHAR
STARTCHAR C2857
ENCODING 10327
SWIDTH 400 0
DWIDTH 24 0
BBX 24 24 0 -2
BITMAP
000038
1E01FC
1C3FC0
1C31C0
1C31C0
5D31C0
DDB1C0
DDB1C4
DDBFFE
DDB1C0
DDB0C0
DDB0C0
DDB060
DDB060
DDB060
DDB030
DDB031
DDB319
FFBE1F
01380F
003007
000002
00000C
000FFC
ENDCHAR
STARTCHAR C2858
ENCODING 10328
SWIDTH 400 0
DWIDTH 24 0
BBX 24 24 0 -2
BITMAP
001800
301818
38181C
301818
301818
301818
3FFFF8
004000
03E200
3F03FC
30031C
30C30C
30E30C
30C30C
30C30C
30C30C
37C30C
3CC30C
38C37C
318378
018330
030300
060300
380200
ENDCHAR
STARTCHAR C2859
ENCODING 10329
SWIDTH 400 0
DWIDTH 24 0
BBX 24 24 0 -2
BITMAP
0001E0
000FF0
01FF00
0F1800
001800
00180E
7FFFFE
007C00
00FB80
01D8E0
039878
07181C
0E180E
301006
E01000
001C00
001800
1C183C
181838
181838
181838
181838
3FFFF8
100030
ENDCHAR
STARTCHAR C285a
ENCODING 10330
SWIDTH 400 0
DWIDTH 24 0
BBX 24 24 0 -2
BITMAP
001000
1E1807
1C1FFF
1C1800
1C1800
5D180C
DD9BFE
DD9860
DD9860
DD9860
DD9860
DD9862
DD9BFF
DD9870
DDB060
DDB060
DDB060
DDB060
FFF060
016060
006060
004060
00C060
000060
ENDCHAR
STARTCHAR C285b
ENCODING 10331
SWIDTH 400 0
DWIDTH 24 0
BBX 24 24 0 -2
BITMAP
000000
1E0006
1C7FFF
1C000C
1C000C
5D000C
DDB18C
DDBF8C
DDB18C
DDB18C
DDB18C
DDB18C
DDB18C
DDB18C
DDBF8C
DDB18C
DDB00C
DD800C
FF800C
01000C
00000C
0001FC
000078
000030
ENDCHAR
STARTCHAR C285c
ENCODING 10332
SWIDTH 400 0
DWIDTH 24 0
BBX 24 24 0 -2
BITMAP
100004
1C000E
183FFF
180306
180306
990306
DB8606
9B8606
9B8E0E
9B8C7C
9B983C
9B9018
9BA000
9BC00C
9B9FFE
9B980C
9B980C
9B980C
FF980C
01180C
00180C
001FFC
00180C
001000
ENDCHAR
STARTCHAR C285d
ENCODING 10333
SWIDTH 400 0
DWIDTH 24 0
BBX 24 24 0 -2
BITMAP
100E00
1C0E00
180C00
180C00
181C07
991FFF
DBB300
9BB300
9BE300
9BC300
9B838C
9B83FC
9B8300
9B8300
9B8300
9B8300
9B838C
9B83FC
FF8300
010300
000300
000300
000300
000300
ENDCHAR
STARTCHAR C285e
ENCODING 10334
SWIDTH 400 0
DWIDTH 24 0
BBX 24 24 0 -2
BITMAP
000008
1E003C
1C09FC
1C0F00
1C0C00
5D0C00
DDCC00
DD8C00
DD8C00
DD8FFE
DD8C30
DD8C30
DD8C30
DD8C30
DD8C30
DD8C30
DD8C30
DD8C30
FF8C30
018C30
000C30
000C30
007FFF
000000
ENDCHAR
STARTCHAR C285f
ENCODING 10335
SWIDTH 400 0
DWIDTH 24 0
BBX 24 24 0 -2
BITMAP
001800
301818
38181C
301818
383818
3FFFF8
001810
003800
003C00
006600
00C300
0181E0
07FF7F
1C003F
70008C
C3FFC0
0001E0
000180
000300
004600
003C00
001C00
000C00
000C00
ENDCHAR
STARTCHAR C2860
ENCODING 10336
SWIDTH 400 0
DWIDTH 24 0
BBX 24 24 0 -2
BITMAP
000004
00320E
FFFBFF
0C3B06
0C3306
0C3306
1C3306
183306
183306
33F306
30E3FE
60C306
C00304
806300
7FF300
607300
607300
607300
607301
607301
607303
7FF3FF
6063FF
6001FE
ENDCHAR
STARTCHAR C2861
ENCODING 10337
SWIDTH 400 0
DWIDTH 24 0
BBX 24 24 0 -2
BITMAP
1C01C0
1C01C0
1C0180
1C0180
1C0186
FFBFFF
DD8180
DD8180
DD8180
DD8180
DD818C
DD9FFC
DD83C0
DD83C0
DD87E0
DD8FE0
DF0DB0
DF19B8
1C399C
1C718F
1CE187
1DC182
1C0180
180180
ENDCHAR
STARTCHAR C2862
ENCODING 10338
SWIDTH 400 0
DWIDTH 24 0
BBX 24 24 0 -2
BITMAP
038700
078730
070638
0E0618
0C060F
1CFFFF
3C0600
6C0300
4C0180
8C01C1
0C00E3
0C0073
0C183E
0C181E
301806
3FFFF8
38381C
301818
301818
3018F8
301838
301810
001800
001000
ENDCHAR
STARTCHAR C2863
ENCODING 10339
SWIDTH 400 0
DWIDTH 24 0
BBX 24 24 0 -2
BITMAP
018060
018060
0300C0
0300C0
060180
04010C
3FC7FE
0600C0
0600C0
0600C0
0600C0
0600C0
0600C0
0700C7
7FC7FF
0600C0
0600C0
0600C0
0600C0
0600C0
0C00C0
1800C0
3000C0
6000C0
ENDCHAR
STARTCHAR C2864
ENCODING 10340
SWIDTH 400 0
DWIDTH 24 0
BBX 24 24 0 -2
BITMAP
001800
000C00
300C06
3FFFFF
300000
3080E0
30FFE0
30C060
30C060
30C060
30C060
30FFE0
30C060
30C060
30C060
30C060
30C0E0
30FFE0
30C060
60C060
60C060
C0C066
8FFFFE
000000
ENDCHAR
STARTCHAR C2865
ENCODING 10341
SWIDTH 400 0
DWIDTH 24 0
BBX 24 24 0 -2
BITMAP
001800
000C00
300C06
3FFFFF
300000
310010
31FFF8
31861C
318618
318618
318618
31FFF8
318618
318618
31FFF8
318618
318600
300600
300600
600600
600600
C00600
800600
000000
ENDCHAR
STARTCHAR C2866
ENCODING 10342
SWIDTH 400 0
DWIDTH 24 0
BBX 24 24 0 -2
BITMAP
001800
000C00
300606
3FFFFF
300000
303904
33FDFE
330186
331986
331D86
331986
331986
331986
331986
331986
33F986
339986
3319BE
30399E
60318C
607180
C06180
80C180
038180
ENDCHAR
STARTCHAR C2867
ENCODING 10343
SWIDTH 400 0
DWIDTH 24 0
BBX 24 24 0 -2
BITMAP
001800
000C00
300C06
3FFFFF
300000
300700
300700
300600
310608
33FFFC
33861C
33860C
33860C
33860C
33860C
33FFFC
33861C
33860C
33860C
63860C
63860C
C3FFFC
83801C
030008
ENDCHAR
STARTCHAR C2868
ENCODING 10344
SWIDTH 400 0
DWIDTH 24 0
BBX 24 24 0 -2
BITMAP
001800
000C00
300C06
3FFFFF
302000
307060
307FF0
3060F0
30E0E0
31D0C0
3399C0
360F80
300F00
300F80
301CE0
30707F
30CC1F
37870C
3E0380
600180
600C00
C00700
800380
000180
ENDCHAR
STARTCHAR C2869
ENCODING 10345
SWIDTH 400 0
DWIDTH 24 0
BBX 24 24 0 -2
BITMAP
0001C0
0001C0
040180
7E0180
0E0180
0C218C
0C7FFE
18718C
18718C
33718C
3F718C
23718C
037FFC
43718C
66718C
26718C
36718C
1C718C
1C7FFC
1C200C
1F0000
33FFFF
60FFFC
007FF8
ENDCHAR
STARTCHAR C286a
ENCODING 10346
SWIDTH 400 0
DWIDTH 24 0
BBX 24 24 0 -2
BITMAP
000000
000000
04200E
7E7FFF
0E7006
0C7006
0C7026
0877F6
187676
137666
3F7666
037666
037666
437666
4677E6
267666
367606
1C7006
1C707E
1C600C
1F0000
33FFFF
60FFFC
003FF8
ENDCHAR
STARTCHAR C286b
ENCODING 10347
SWIDTH 400 0
DWIDTH 24 0
BBX 24 24 0 -2
BITMAP
000000
0001C0
040180
7E0300
0E120C
0C1FFE
0C180C
18180C
18180C
33180C
3F180C
231FFC
03180C
43180C
66180C
26180C
36180C
1C180C
1C1FFC
1C100C
1F0000
33FFFF
60FFFC
007FF8
ENDCHAR
STARTCHAR C286c
ENCODING 10348
SWIDTH 400 0
DWIDTH 24 0
BBX 24 24 0 -2
BITMAP
338198
338198
338198
338198
338198
33C19A
FFE7FE
338198
338198
338198
338198
338198
338198
FFEFFF
338198
338198
338198
338398
338318
238318
638318
638618
C38618
830C18
ENDCHAR
STARTCHAR C286d
ENCODING 10349
SWIDTH 400 0
DWIDTH 24 0
BBX 24 24 0 -2
BITMAP
001800
001800
001800
1FFFF0
003800
001800
001808
3FFFFC
00E000
0381C0
060060
1FFFF0
1FF018
0D8088
05C1C0
0181C4
0181CE
3FFFFE
0381C0
0301C0
0701C0
0E01C0
1C01C0
700180
ENDCHAR
STARTCHAR C286e
ENCODING 10350
SWIDTH 400 0
DWIDTH 24 0
BBX 24 24 0 -2
BITMAP
020000
070006
FFBFFE
031800
031800
031800
031800
7F1808
621FFC
60180C
60180C
E3180C
FF980C
03980C
03980C
039FFC
039808
039800
039800
039800
031800
7F1806
1E7FFF
0C0000
ENDCHAR
STARTCHAR C286f
ENCODING 10351
SWIDTH 400 0
DWIDTH 24 0
BBX 24 24 0 -2
BITMAP
001C00
061C00
7F1800
061804
06180E
063FFE
2661C0
3E61C0
36D1C0
609DC0
6019CC
E619FE
FF7FCE
C739CC
0619CC
0619CC
0619C8
0619C0
061981
061801
0C1803
FC1FFF
381FFF
300FFE
ENDCHAR
STARTCHAR C2870
ENCODING 10352
SWIDTH 400 0
DWIDTH 24 0
BBX 24 24 0 -2
BITMAP
000E00
060E00
7F0C00
061800
061806
061FFF
2631C0
3E21C0
3661C0
6041C0
6001C0
E61DD0
FF1DD8
C719CC
0619CE
0631C6
0621C7
0661C7
06C1C2
0601C0
0C01C0
FC0FC0
380780
300300
ENDCHAR
STARTCHAR C2871
ENCODING 10353
SWIDTH 400 0
DWIDTH 24 0
BBX 24 24 0 -2
BITMAP
000060
0FFFF0
000070
000060
000060
03FFE0
000060
000064
7FFFFE
001800
001830
0E1878
0718E0
0399C0
001900
001800
001980
079870
3E1818
78180C
301804
00F800
007800
003000
ENDCHAR
STARTCHAR C2872
ENCODING 10354
SWIDTH 400 0
DWIDTH 24 0
BBX 24 24 0 -2
BITMAP
040000
06000E
0C000E
0C001C
0C0038
18C070
1860C0
303300
30380E
63F80E
FF0C1C
F00C38
400470
0060E0
7FF180
607307
607007
60700E
60701C
607038
607070
7FF0E0
606180
600600
ENDCHAR
STARTCHAR C2873
ENCODING 10355
SWIDTH 400 0
DWIDTH 24 0
BBX 24 24 0 -2
BITMAP
1CE000
1CE00E
18C00E
18C01C
18C038
18D860
7FF9C0
18C300
1EC00E
1BC00E
1BC01C
18C038
18C870
FFFCE0
18C380
18C607
18C007
38C00E
30C01C
30C038
20C070
60C0E0
C0C300
80CE00
ENDCHAR
STARTCHAR C2874
ENCODING 10356
SWIDTH 400 0
DWIDTH 24 0
BBX 24 24 0 -2
BITMAP
0701C0
0701C0
0601C0
0E01C0
1C01C0
3801C0
73B1C6
47BFFE
0731C6
0E31C6
0C31C6
1C31C6
3C31C6
3C31C6
5C3FFE
9C31C6
1C31C6
1C31C6
1C31C6
1C31C6
1C31C6
1C3FFE
1C3006
183004
ENDCHAR
STARTCHAR C2875
ENCODING 10357
SWIDTH 400 0
DWIDTH 24 0
BBX 24 24 0 -2
BITMAP
060000
060038
0C3FFC
0C1038
181830
300C70
6606E0
0603C0
0C03C0
1C07E0
180E70
381C3F
7839DF
78E1C4
D88180
980188
18019C
183FFC
180180
180180
180180
180180
180187
18FFFF
ENDCHAR
STARTCHAR C2876
ENCODING 10358
SWIDTH 400 0
DWIDTH 24 0
BBX 24 24 0 -2
BITMAP
0601C0
0601C0
0C3980
0C3980
183180
303180
667186
067FFE
0CE180
1CC180
188180
390180
780180
780184
D83FFE
980180
180180
180180
180180
180180
180180
180180
180187
18FFFF
ENDCHAR
STARTCHAR C2877
ENCODING 10359
SWIDTH 400 0
DWIDTH 24 0
BBX 24 24 0 -2
BITMAP
1C0600
1C0300
180380
180180
180107
18FFFF
5C0380
5E0300
DB0600
D90C38
D81878
983070
1838E0
180FC0
180780
180300
180700
180610
180C18
18181C
1833FE
187F8E
187006
181000
ENDCHAR
STARTCHAR C2878
ENCODING 10360
SWIDTH 400 0
DWIDTH 24 0
BBX 24 24 0 -2
BITMAP
1C0000
1C0006
187FFE
183000
183000
183000
5C3000
5E3008
DB3FFC
D9300C
D8300C
98300C
18300C
18300C
18300C
183FFC
183008
183000
183000
183000
183000
183006
18FFFF
180000
ENDCHAR
STARTCHAR C2879
ENCODING 10361
SWIDTH 400 0
DWIDTH 24 0
BBX 24 24 0 -2
BITMAP
1C1838
1C1838
181838
181838
181838
18183A
5CFFFF
5E1838
DB1838
D91838
D81838
981838
181838
181838
181FF8
181838
181838
181838
181838
181838
181838
181838
181FF8
181030
ENDCHAR
STARTCHAR C287a
ENCODING 10362
SWIDTH 400 0
DWIDTH 24 0
BBX 24 24 0 -2
BITMAP
1C01C0
1C01C0
180180
180180
184186
187FFF
5C6187
5E6184
DB6188
D96180
D86188
987FFC
18681C
186818
186C38
186630
186360
18E1C0
18C1C0
18C3E0
18863C
198C1F
19180E
18E004
ENDCHAR
STARTCHAR C287b
ENCODING 10363
SWIDTH 400 0
DWIDTH 24 0
BBX 24 24 0 -2
BITMAP
000000
000038
1FFFF8
001800
001800
003002
FFFFFF
007400
006600
00C300
01C1C0
0380F0
07007F
1C303F
701C0C
C38E00
038600
130210
13004C
330046
6300C7
E3FFC3
C1FFC1
807F80
ENDCHAR
STARTCHAR C287c
ENCODING 10364
SWIDTH 400 0
DWIDTH 24 0
BBX 24 24 0 -2
BITMAP
100010
1FFFF8
181800
181800
181800
301804
3FFFFE
303700
007700
006600
00C603
038602
0707FE
1C03FE
F019FC
038C00
138E00
33060C
330026
230066
630043
C3FFC3
81FFE1
007FC0
ENDCHAR
STARTCHAR C287d
ENCODING 10365
SWIDTH 400 0
DWIDTH 24 0
BBX 24 24 0 -2
BITMAP
000180
3FFF80
038180
038300
038360
03FFF0
036070
0320E0
0730C0
061980
060F00
0C0F00
183BF0
30707F
63C03F
4E000C
021800
038C00
23064C
230046
6300C7
E3FFC3
C1FFE1
807FC0
ENDCHAR
STARTCHAR C287e
ENCODING 10366
SWIDTH 400 0
DWIDTH 24 0
BBX 24 24 0 -2
BITMAP
000400
008200
01E300
01C180
0380E0
071878
0C383F
18700C
60E080
01C0C0
038060
07FFF0
07C030
030030
000000
021800
038C00
230E08
23040E
630027
630063
C3FFC3
81FFE0
007FC0
ENDCHAR
STARTCHAR C2921
ENCODING 10529
SWIDTH 400 0
DWIDTH 24 0
BBX 24 24 0 -2
BITMAP
1C01C0
1C01C0
180180
180180
180188
183FFC
5C0180
5E0180
DB0180
D90184
D8018E
987FFE
1803C0
1803C0
1807E0
180DE0
180DB0
1819B8
18399C
18718F
18E187
19C182
180180
180180
ENDCHAR
STARTCHAR C2922
ENCODING 10530
SWIDTH 400 0
DWIDTH 24 0
BBX 24 24 0 -2
BITMAP
1C0338
1C3338
183B38
183338
183338
183338
5C3338
5E3338
DB333A
D9FFFF
D83338
983338
183338
183338
183338
183338
1833F8
183330
183000
183000
183000
183006
183FFE
180000
ENDCHAR
STARTCHAR C2923
ENCODING 10531
SWIDTH 400 0
DWIDTH 24 0
BBX 24 24 0 -2
BITMAP
1C0380
1C0380
180300
180300
180300
18030C
5CFFFE
5E0300
DB0780
D907C0
D80FC0
981F60
181B30
183B38
18331C
18630F
18C307
198313
193FF8
180300
180300
180300
180300
180300
ENDCHAR
STARTCHAR C2924
ENCODING 10532
SWIDTH 400 0
DWIDTH 24 0
BBX 24 24 0 -2
BITMAP
1C0300
1C0300
180300
180300
180300
180606
5CFFFF
5E0E00
DB0C00
D90C00
D81800
981800
183818
183FFC
18780C
18D80C
18980C
19180C
18180C
18180C
18180C
181FFC
181C1C
181808
ENDCHAR
STARTCHAR C2925
ENCODING 10533
SWIDTH 400 0
DWIDTH 24 0
BBX 24 24 0 -2
BITMAP
1C01C0
1C01C0
1C0180
1C0180
1C0188
1D3FFC
7F0180
1C0180
1C0180
1C0184
1C018E
1D7FFE
1E0380
FC03C0
FC07E0
5C0DE0
1C0DB0
1C19B8
1C399C
1C718F
1CE187
7DC182
380180
180180
ENDCHAR
STARTCHAR C2926
ENCODING 10534
SWIDTH 400 0
DWIDTH 24 0
BBX 24 24 0 -2
BITMAP
1C0000
1C0006
1C7FFF
1C000C
1C000C
1D000C
7F318C
1C3F8C
1C318C
1C318C
1C318C
1F318C
1C318C
FC318C
FC3F8C
5C318C
1C300C
1C000C
1C000C
1C000C
1C000C
7C01FC
380078
180030
ENDCHAR
STARTCHAR C2927
ENCODING 10535
SWIDTH 400 0
DWIDTH 24 0
BBX 24 24 0 -2
BITMAP
1C01C0
1C01C0
1C0180
1C0306
1C3FFE
1D0600
7F0600
1C0C00
1C0C10
1C1808
1C180C
1F3FFE
1C3E67
FC1662
FC0660
5C0660
1C0660
1C0E60
1C0C61
1C1861
1C1863
7C307F
38607F
19803E
ENDCHAR
STARTCHAR C2928
ENCODING 10536
SWIDTH 400 0
DWIDTH 24 0
BBX 24 24 0 -2
BITMAP
1C0000
1C0007
1C3FFF
1C00E0
1C00C0
1D01C0
7F01C0
1C03C0
1C03E0
1C07D0
1C07C8
1F0DCC
1C19CE
FC11C6
FC21C7
5C41C2
1C01C0
1C01C0
1C01C0
1C01C0
1C01C0
7C0082
387FFF
180000
ENDCHAR
STARTCHAR C2929
ENCODING 10537
SWIDTH 400 0
DWIDTH 24 0
BBX 24 24 0 -2
BITMAP
1C0200
1C0380
1C0300
1C0300
1C030C
1D03FC
7F0300
1C0300
1C0302
1CFFFF
1C0300
1F0300
1C03C0
FC0360
FC0330
5C0318
1C030C
1C0300
1C0300
1C0300
1C0300
7C0300
380300
180200
ENDCHAR
STARTCHAR C292a
ENCODING 10538
SWIDTH 400 0
DWIDTH 24 0
BBX 24 24 0 -2
BITMAP
1C0000
1C1008
1C1FFC
1C180C
1C180C
1D180C
7F180C
1C180C
1C180C
1C180C
1C180C
1F1FFC
1C180C
FC0000
FC0800
5C0E30
1C0C18
1C181C
1C180C
1C3006
1C3007
7C6003
38C003
198001
ENDCHAR
STARTCHAR C292b
ENCODING 10539
SWIDTH 400 0
DWIDTH 24 0
BBX 24 24 0 -2
BITMAP
1C0004
1C000E
1CFFFE
1C1800
1C1800
1D1800
7F1830
1C1FF0
1C1830
1C1830
1C1830
1F1E30
1C1B30
FC1BB0
FC19F0
5C3060
1C3060
1C3060
1C3060
1C3061
1C33E1
7C7E7F
38F03F
18601E
ENDCHAR
STARTCHAR C292c
ENCODING 10540
SWIDTH 400 0
DWIDTH 24 0
BBX 24 24 0 -2
BITMAP
1C0C00
1C1E00
18F0C6
18CEFF
18CEC7
1ACEC7
7ECEC7
18CEC7
18CEC7
18CEC7
18CEC7
1CCEC7
38CEC7
F8CEC7
F8FEC7
58ECC7
18CCC7
18CCDF
1818CE
1818CC
1830C0
F860C0
78C0C0
3180C0
ENDCHAR
STARTCHAR C292d
ENCODING 10541
SWIDTH 400 0
DWIDTH 24 0
BBX 24 24 0 -2
BITMAP
1C0000
1C0038
1C21F8
1C7FC0
1C7740
1D7340
7F7360
1C7360
1C7360
1C7360
1C7320
1F7330
1C7330
FC7330
FC7638
5C6618
1C6618
1C6E1C
1C4CCC
1CC86C
1CDBF6
7DBF37
399833
1B0000
ENDCHAR
STARTCHAR C292e
ENCODING 10542
SWIDTH 400 0
DWIDTH 24 0
BBX 24 24 0 -2
BITMAP
1C0300
1C0180
1C01C0
1C10C6
1C3FFF
1D3007
7F6004
1C4008
1C0E00
1C0C00
1C0C00
1F0C08
1C0C3C
FC0C78
FC0FC0
5C0F00
1C0C00
1C0C00
1C0C01
1C0C03
1C0C02
7C0FFE
380FFE
1803FC
ENDCHAR
STARTCHAR C292f
ENCODING 10543
SWIDTH 400 0
DWIDTH 24 0
BBX 24 24 0 -2
BITMAP
1C00C0
1C0060
1C6062
1C7FFF
1C7000
1D7000
7F71C0
1C71C0
1C71C0
1C71C0
1C7180
1F7180
3C7180
FC7300
FC7300
5C6718
1C660C
1C660C
1C4C06
1CC806
1CDFFF
7C9F03
398C02
180000
ENDCHAR
STARTCHAR C2930
ENCODING 10544
SWIDTH 400 0
DWIDTH 24 0
BBX 24 24 0 -2
BITMAP
0E0000
0E0006
0C3FFE
0C0180
0C0180
0D0184
7F9FFE
0C0180
0C0180
0C0180
0C0184
0FBFFE
1E0180
7C0180
6C0180
2C0186
0C7FFE
0C0180
0C0180
0C0180
0C0180
3C0180
3C0180
180180
ENDCHAR
STARTCHAR C2931
ENCODING 10545
SWIDTH 400 0
DWIDTH 24 0
BBX 24 24 0 -2
BITMAP
1C0000
1C0007
1C7FFF
1C0180
1C0180
1D0180
7F6186
1C7FFE
1C6186
1C6186
1C63C6
1F6326
1C6736
FC661E
FC6C1E
5C681E
1C7006
1C6006
1C6006
1C6006
1C6006
7C607E
38603C
186008
ENDCHAR
STARTCHAR C2932
ENCODING 10546
SWIDTH 400 0
DWIDTH 24 0
BBX 24 24 0 -2
BITMAP
1C7000
1C7000
187000
187000
187000
187766
7FFF7F
187367
187367
187367
187367
1C7367
386367
F86367
F86367
586367
18C367
18C367
18C367
18C367
198767
FB3E7F
7A1E62
340C00
ENDCHAR
STARTCHAR C2933
ENCODING 10547
SWIDTH 400 0
DWIDTH 24 0
BBX 24 24 0 -2
BITMAP
1C0000
1C3018
1C3FFC
1C301C
1C3018
1D3018
7F3018
1C3018
1C3018
1C3FF8
1C3018
1F3018
1C3018
FC3018
FC3018
5C3018
1C3018
1C3FF8
1C3010
1C0000
1C0002
7CFFFF
380000
180000
ENDCHAR
STARTCHAR C2934
ENCODING 10548
SWIDTH 400 0
DWIDTH 24 0
BBX 24 24 0 -2
BITMAP
1C4008
1C601C
1C7FFC
1C600C
1C600C
1D600C
7F600C
1C600C
1C600C
1C600C
1C7FFC
1F6EC8
1C0EC0
FC0EC0
FC0CC0
5C0CC0
1C18C0
1C18C1
1C38C1
1C30C1
1C60C3
7CC0FF
39807F
1B003E
ENDCHAR
STARTCHAR C2935
ENCODING 10549
SWIDTH 400 0
DWIDTH 24 0
BBX 24 24 0 -2
BITMAP
1C0000
1C001C
1C0018
1C7018
1C7018
1D6018
7F6018
1C6018
1C6018
1C6618
1C6318
1F6318
1C63B8
FC63B8
FC67B0
5C6C30
1C7830
1C7078
1CE06C
1DC0C6
1CC187
7C0303
380603
181801
ENDCHAR
STARTCHAR C2936
ENCODING 10550
SWIDTH 400 0
DWIDTH 24 0
BBX 24 24 0 -2
BITMAP
1C7000
1C7000
187000
18700C
1860FE
1A7ECE
7F6ECC
186ECC
18CECC
18CCCC
18CCCC
1CCCCC
39D8CC
F938CC
F838CC
58398F
183907
183F00
186600
186300
18C180
F8C0FF
79807F
30001C
ENDCHAR
STARTCHAR C2937
ENCODING 10551
SWIDTH 400 0
DWIDTH 24 0
BBX 24 24 0 -2
BITMAP
1C0008
1C003C
1C13FC
1C1F00
1C1800
1D1800
7F1800
1C1800
1C1800
1C1FFE
1C1830
1F1830
1C1830
FC1830
FC1830
5C1830
1C1830
1C1830
1C1830
1C1830
1C1830
7C1830
38FFFF
180000
ENDCHAR
STARTCHAR C2938
ENCODING 10552
SWIDTH 400 0
DWIDTH 24 0
BBX 24 24 0 -2
BITMAP
1C0038
1C21FC
1C7FC0
1C7006
1C7FFE
1D7006
7F7006
1C7006
1C7FFE
1C7000
1C7018
1F7FFC
1C701C
FC7030
FC6060
5C60C0
1C6180
1CC300
1CC601
1CCC01
1C9803
7D9FFF
390FFF
1803FE
ENDCHAR
STARTCHAR C2939
ENCODING 10553
SWIDTH 400 0
DWIDTH 24 0
BBX 24 24 0 -2
BITMAP
003000
001808
3FFFFC
030180
018300
00C600
007C00
007E00
00E3C0
0380FF
0E003F
7A008C
C301C0
0301C0
03FFC0
0301C0
0301C0
0301C0
03FFC0
0601C0
0601C0
0601C0
0C01C0
180180
ENDCHAR
STARTCHAR C293a
ENCODING 10554
SWIDTH 400 0
DWIDTH 24 0
BBX 24 24 0 -2
BITMAP
000038
000038
018630
7FC330
0003B0
0001B0
000030
000030
00C830
FFE630
330330
330330
330330
330032
33003F
333FF0
330030
330030
331030
637030
63C030
C30030
830030
000030
ENDCHAR
STARTCHAR C293b
ENCODING 10555
SWIDTH 400 0
DWIDTH 24 0
BBX 24 24 0 -2
BITMAP
00E00E
03E03E
3F03E0
300300
300300
300300
300300
302302
3FF3FF
338338
338338
338338
338338
338338
338338
338738
338638
338638
638E38
638C38
638C38
C39838
839038
030030
ENDCHAR
STARTCHAR C293c
ENCODING 10556
SWIDTH 400 0
DWIDTH 24 0
BBX 24 24 0 -2
BITMAP
0001C0
1001C0
180380
1C03C0
088320
FFC630
180E18
180C0E
191807
1FB023
1BAF38
1B8E30
338E30
338E30
338E30
338E30
338E30
638E30
638C30
630C30
C31830
DF1830
9E3030
046030
ENDCHAR
STARTCHAR C293d
ENCODING 10557
SWIDTH 400 0
DWIDTH 24 0
BBX 24 24 0 -2
BITMAP
0001C0
0001C0
410180
FF8180
E38180
E3818C
E3BFFC
E38180
E38180
E38180
E38180
FF818E
E3FFFE
E38380
E38380
E383C0
E38740
E38660
FF8E70
C10C38
00181E
00300F
006006
018000
ENDCHAR
STARTCHAR C293e
ENCODING 10558
SWIDTH 400 0
DWIDTH 24 0
BBX 24 24 0 -2
BITMAP
000E00
000E00
410C00
FF9C00
E39C0C
E39FFC
E3B9C0
E3B1C0
E3E1C0
E3C1C0
E381C0
FF81C0
E381C2
E3FFFF
E381C0
E381C0
E381C0
E381C0
FF81C0
C101C0
0001C0
0001C0
0001C0
000180
ENDCHAR
ENDFONT
